Amiamie-RegularRound.ufo
<glyph name="parenright" format="2">
	<advance width="336"/>
	<unicode hex="0029"/>
	<note>
		parenright
	</note>
	<outline>
		<contour>
			<point x="54" y="747"/>
			<point x="56" y="743" type="curve" smooth="yes"/>
			<point x="119" y="622"/>
			<point x="154" y="488"/>
			<point x="154" y="350" type="curve" smooth="yes"/>
			<point x="154" y="212"/>
			<point x="119" y="78"/>
			<point x="56" y="-43" type="curve" smooth="yes"/>
			<point x="54" y="-47"/>
			<point x="52" y="-51"/>
			<point x="52" y="-56" type="curve" smooth="yes"/>
			<point x="52" y="-72"/>
			<point x="66" y="-86"/>
			<point x="82" y="-86" type="curve" smooth="yes"/>
			<point x="92" y="-86"/>
			<point x="101" y="-80"/>
			<point x="106" y="-73" type="curve" smooth="yes"/>
			<point x="182" y="42"/>
			<point x="227" y="191"/>
			<point x="227" y="350" type="curve" smooth="yes"/>
			<point x="227" y="510"/>
			<point x="182" y="658"/>
			<point x="106" y="773" type="curve" smooth="yes"/>
			<point x="101" y="780"/>
			<point x="92" y="786"/>
			<point x="82" y="786" type="curve" smooth="yes"/>
			<point x="66" y="786"/>
			<point x="52" y="772"/>
			<point x="52" y="756" type="curve" smooth="yes"/>
			<point x="52" y="751"/>
		</contour>
	</outline>
</glyph>
<glyph name="asterisk" format="2">
	<advance width="578"/>
	<unicode hex="002A"/>
	<note>
		asterisk
	</note>
	<outline>
		<contour>
			<point x="433" y="352" type="curve"/>
			<point x="316" y="305" type="line"/>
			<point x="325" y="442" type="line" smooth="yes"/>
			<point x="326" y="461"/>
			<point x="311" y="481"/>
			<point x="289" y="481" type="curve" smooth="yes"/>
			<point x="267" y="481"/>
			<point x="252" y="461"/>
			<point x="253" y="442" type="curve" smooth="yes"/>
			<point x="262" y="305" type="line"/>
			<point x="145" y="352" type="line"/>
			<point x="141" y="353"/>
			<point x="137" y="354"/>
			<point x="132" y="354" type="curve" smooth="yes"/>
			<point x="112" y="354"/>
			<point x="97" y="338"/>
			<point x="97" y="319" type="curve" smooth="yes"/>
			<point x="97" y="302"/>
			<point x="109" y="288"/>
			<point x="124" y="284" type="curve" smooth="yes"/>
			<point x="245" y="254" type="line"/>
			<point x="156" y="148" type="line" smooth="yes"/>
			<point x="151" y="141"/>
			<point x="148" y="134"/>
			<point x="148" y="125" type="curve" smooth="yes"/>
			<point x="148" y="105"/>
			<point x="164" y="89"/>
			<point x="183" y="89" type="curve" smooth="yes"/>
			<point x="196" y="89"/>
			<point x="208" y="96"/>
			<point x="214" y="106" type="curve" smooth="yes"/>
			<point x="289" y="224" type="line"/>
			<point x="364" y="106" type="line" smooth="yes"/>
			<point x="370" y="96"/>
			<point x="382" y="89"/>
			<point x="395" y="89" type="curve" smooth="yes"/>
			<point x="414" y="89"/>
			<point x="430" y="105"/>
			<point x="430" y="125" type="curve" smooth="yes"/>
			<point x="430" y="134"/>
			<point x="427" y="141"/>
			<point x="422" y="148" type="curve" smooth="yes"/>
			<point x="333" y="254" type="line"/>
			<point x="454" y="284" type="line" smooth="yes"/>
			<point x="469" y="288"/>
			<point x="481" y="302"/>
			<point x="481" y="319" type="curve" smooth="yes"/>
			<point x="481" y="338"/>
			<point x="466" y="354"/>
			<point x="446" y="354" type="curve" smooth="yes"/>
			<point x="441" y="354"/>
			<point x="437" y="353"/>
		</contour>
	</outline>
</glyph>
<glyph name="comma" format="2">
	<advance width="232"/>
	<unicode hex="002C"/>
	<note>
		comma
	</note>
	<outline>
		<contour>
			<point x="76" y="-98" type="curve" smooth="yes"/>
			<point x="141" y="62" type="line" smooth="yes"/>
			<point x="154" y="94"/>
			<point x="152" y="126"/>
			<point x="120" y="136" type="curve" smooth="yes"/>
			<point x="113" y="139"/>
			<point x="105" y="140"/>
			<point x="97" y="140" type="curve" smooth="yes"/>
			<point x="61" y="140"/>
			<point x="46" y="111"/>
			<point x="36" y="80" type="curve" smooth="yes"/>
			<point x="-12" y="-65" type="line" smooth="yes"/>
			<point x="-13" y="-69"/>
			<point x="-14" y="-75"/>
			<point x="-14" y="-80" type="curve" smooth="yes"/>
			<point x="-14" y="-106"/>
			<point x="7" y="-127"/>
			<point x="33" y="-127" type="curve" smooth="yes"/>
			<point x="52" y="-127"/>
			<point x="69" y="-115"/>
		</contour>
	</outline>
</glyph>
<glyph name="hyphen" format="2">
	<advance width="284"/>
	<unicode hex="002D"/>
	<note>
		hyphen
	</note>
	<outline>
		<contour>
			<point x="60" y="250" type="curve" smooth="yes"/>
			<point x="225" y="250" type="line" smooth="yes"/>
			<point x="243" y="250"/>
			<point x="258" y="265"/>
			<point x="258" y="283" type="curve" smooth="yes"/>
			<point x="258" y="301"/>
			<point x="243" y="316"/>
			<point x="225" y="316" type="curve" smooth="yes"/>
			<point x="60" y="316" type="line" smooth="yes"/>
			<point x="42" y="316"/>
			<point x="27" y="301"/>
			<point x="27" y="283" type="curve" smooth="yes"/>
			<point x="27" y="265"/>
			<point x="42" y="250"/>
		</contour>
	</outline>
</glyph>
<glyph name="two" format="2">
	<advance width="601"/>
	<unicode hex="0032"/>
	<note>
		two
	</note>
	<outline>
		<contour>
			<point x="503" y="88" type="curve" smooth="yes"/>
			<point x="224" y="88" type="line"/>
			<point x="376" y="238" type="line" smooth="yes"/>
			<point x="497" y="356"/>
			<point x="545" y="420"/>
			<point x="545" y="511" type="curve" smooth="yes"/>
			<point x="545" y="620"/>
			<point x="471" y="705"/>
			<point x="325" y="705" type="curve" smooth="yes"/>
			<point x="193" y="705"/>
			<point x="108" y="641"/>
			<point x="82" y="521" type="curve" smooth="yes"/>
			<point x="76" y="492"/>
			<point x="80" y="466"/>
			<point x="107" y="454" type="curve" smooth="yes"/>
			<point x="115" y="450"/>
			<point x="125" y="448"/>
			<point x="135" y="448" type="curve" smooth="yes"/>
			<point x="147" y="448"/>
			<point x="156" y="452"/>
			<point x="164" y="458" type="curve" smooth="yes"/>
			<point x="183" y="471"/>
			<point x="186" y="491"/>
			<point x="192" y="519" type="curve" smooth="yes"/>
			<point x="208" y="585"/>
			<point x="246" y="621"/>
			<point x="313" y="621" type="curve" smooth="yes"/>
			<point x="388" y="621"/>
			<point x="426" y="568"/>
			<point x="426" y="501" type="curve" smooth="yes"/>
			<point x="426" y="435"/>
			<point x="388" y="385"/>
			<point x="301" y="299" type="curve" smooth="yes"/>
			<point x="65" y="61" type="line" smooth="yes"/>
			<point x="59" y="55"/>
			<point x="54" y="46"/>
			<point x="54" y="36" type="curve" smooth="yes"/>
			<point x="54" y="16"/>
			<point x="71" y="0"/>
			<point x="90" y="0" type="curve" smooth="yes"/>
			<point x="503" y="0" type="line" smooth="yes"/>
			<point x="527" y="0"/>
			<point x="547" y="20"/>
			<point x="547" y="44" type="curve" smooth="yes"/>
			<point x="547" y="68"/>
			<point x="527" y="88"/>
		</contour>
	</outline>
</glyph>
<glyph name="seven" format="2">
	<advance width="601"/>
	<unicode hex="0037"/>
	<note>
		seven
	</note>
	<outline>
		<contour>
			<point x="547" y="690"/>
			<point x="528" y="690" type="curve" smooth="yes"/>
			<point x="90" y="690" type="line" smooth="yes"/>
			<point x="66" y="690"/>
			<point x="47" y="671"/>
			<point x="47" y="647" type="curve" smooth="yes"/>
			<point x="47" y="622"/>
			<point x="66" y="603"/>
			<point x="90" y="603" type="curve" smooth="yes"/>
			<point x="427" y="603" type="line"/>
			<point x="140" y="71" type="line" smooth="yes"/>
			<point x="136" y="63"/>
			<point x="134" y="55"/>
			<point x="134" y="46" type="curve" smooth="yes"/>
			<point x="134" y="18"/>
			<point x="157" y="-5"/>
			<point x="186" y="-5" type="curve" smooth="yes"/>
			<point x="206" y="-5"/>
			<point x="223" y="5"/>
			<point x="232" y="22" type="curve" smooth="yes"/>
			<point x="559" y="637" type="line" smooth="yes"/>
			<point x="561" y="642"/>
			<point x="564" y="648"/>
			<point x="564" y="654" type="curve" smooth="yes"/>
			<point x="564" y="674"/>
		</contour>
	</outline>
</glyph>
<glyph name="C" format="2">
	<advance width="708"/>
	<unicode hex="0043"/>
	<note>
		C
	</note>
	<outline>
		<contour>
			<point x="379" y="704" type="curve" smooth="yes"/>
			<point x="185" y="704"/>
			<point x="49" y="559"/>
			<point x="49" y="342" type="curve" smooth="yes"/>
			<point x="49" y="132"/>
			<point x="170" y="-14"/>
			<point x="367" y="-14" type="curve" smooth="yes"/>
			<point x="528" y="-14"/>
			<point x="626" y="69"/>
			<point x="655" y="183" type="curve" smooth="yes"/>
			<point x="662" y="212"/>
			<point x="658" y="238"/>
			<point x="631" y="250" type="curve" smooth="yes"/>
			<point x="622" y="254"/>
			<point x="612" y="256"/>
			<point x="601" y="256" type="curve" smooth="yes"/>
			<point x="590" y="256"/>
			<point x="581" y="252"/>
			<point x="573" y="246" type="curve" smooth="yes"/>
			<point x="555" y="232"/>
			<point x="551" y="214"/>
			<point x="542" y="187" type="curve" smooth="yes"/>
			<point x="516" y="115"/>
			<point x="462" y="70"/>
			<point x="372" y="70" type="curve" smooth="yes"/>
			<point x="250" y="70"/>
			<point x="168" y="176"/>
			<point x="168" y="347" type="curve" smooth="yes"/>
			<point x="168" y="510"/>
			<point x="249" y="620"/>
			<point x="377" y="620" type="curve" smooth="yes"/>
			<point x="467" y="620"/>
			<point x="521" y="576"/>
			<point x="547" y="505" type="curve" smooth="yes"/>
			<point x="556" y="478"/>
			<point x="562" y="455"/>
			<point x="588" y="447" type="curve" smooth="yes"/>
			<point x="594" y="446"/>
			<point x="600" y="445"/>
			<point x="606" y="445" type="curve" smooth="yes"/>
			<point x="617" y="445"/>
			<point x="629" y="446"/>
			<point x="639" y="450" type="curve" smooth="yes"/>
			<point x="662" y="457"/>
			<point x="667" y="481"/>
			<point x="659" y="512" type="curve" smooth="yes"/>
			<point x="631" y="625"/>
			<point x="539" y="704"/>
		</contour>
	</outline>
</glyph>
<glyph name="J" format="2">
	<advance width="568"/>
	<unicode hex="004A"/>
	<note>
		J
	</note>
	<outline>
		<contour>
			<point x="513" y="273" type="curve" smooth="yes"/>
			<point x="513" y="641" type="line" smooth="yes"/>
			<point x="513" y="671"/>
			<point x="488" y="696"/>
			<point x="458" y="696" type="curve" smooth="yes"/>
			<point x="428" y="696"/>
			<point x="403" y="671"/>
			<point x="403" y="641" type="curve" smooth="yes"/>
			<point x="403" y="268" type="line" smooth="yes"/>
			<point x="403" y="236"/>
			<point x="403" y="212"/>
			<point x="402" y="191" type="curve" smooth="yes"/>
			<point x="396" y="116"/>
			<point x="360" y="70"/>
			<point x="287" y="70" type="curve" smooth="yes"/>
			<point x="213" y="70"/>
			<point x="170" y="110"/>
			<point x="165" y="204" type="curve"/>
			<point x="160" y="229"/>
			<point x="137" y="248"/>
			<point x="110" y="248" type="curve" smooth="yes"/>
			<point x="96" y="248"/>
			<point x="82" y="243"/>
			<point x="72" y="234" type="curve" smooth="yes"/>
			<point x="52" y="216"/>
			<point x="53" y="194"/>
			<point x="57" y="168" type="curve" smooth="yes"/>
			<point x="73" y="55"/>
			<point x="147" y="-14"/>
			<point x="277" y="-14" type="curve" smooth="yes"/>
			<point x="431" y="-14"/>
			<point x="503" y="67"/>
			<point x="510" y="184" type="curve" smooth="yes"/>
			<point x="513" y="223"/>
			<point x="513" y="245"/>
		</contour>
	</outline>
</glyph>
<glyph name="Q" format="2">
	<advance width="748"/>
	<unicode hex="0051"/>
	<note>
		Q
	</note>
	<outline>
		<contour>
			<point x="595" y="87" type="curve"/>
			<point x="673" y="144"/>
			<point x="714" y="238"/>
			<point x="714" y="345" type="curve" smooth="yes"/>
			<point x="714" y="559"/>
			<point x="593" y="704"/>
			<point x="382" y="704" type="curve" smooth="yes"/>
			<point x="170" y="704"/>
			<point x="49" y="559"/>
			<point x="49" y="345" type="curve" smooth="yes"/>
			<point x="49" y="132"/>
			<point x="170" y="-14"/>
			<point x="382" y="-14" type="curve" smooth="yes"/>
			<point x="408" y="-14"/>
			<point x="431" y="-12"/>
			<point x="453" y="-7" type="curve" smooth="yes"/>
			<point x="481" y="-1"/>
			<point x="498" y="2"/>
			<point x="526" y="2" type="curve" smooth="yes"/>
			<point x="557" y="2"/>
			<point x="583" y="-4"/>
			<point x="631" y="-32" type="curve" smooth="yes"/>
			<point x="639" y="-37"/>
			<point x="647" y="-39"/>
			<point x="656" y="-39" type="curve" smooth="yes"/>
			<point x="683" y="-39"/>
			<point x="704" y="-17"/>
			<point x="704" y="10" type="curve" smooth="yes"/>
			<point x="704" y="27"/>
			<point x="695" y="42"/>
			<point x="682" y="51" type="curve" smooth="yes"/>
			<point x="653" y="70"/>
			<point x="625" y="82"/>
		</contour>
		<contour>
			<point x="167" y="345" type="curve" smooth="yes"/>
			<point x="167" y="517"/>
			<point x="247" y="620"/>
			<point x="382" y="620" type="curve" smooth="yes"/>
			<point x="516" y="620"/>
			<point x="596" y="517"/>
			<point x="596" y="345" type="curve" smooth="yes"/>
			<point x="596" y="174"/>
			<point x="516" y="70"/>
			<point x="382" y="70" type="curve" smooth="yes"/>
			<point x="247" y="70"/>
			<point x="167" y="174"/>
		</contour>
	</outline>
</glyph>
<glyph name="bracketleft" format="2">
	<advance width="333"/>
	<unicode hex="005B"/>
	<note>
		bracketleft
	</note>
	<outline>
		<contour>
			<point x="282" y="780"/>
			<point x="264" y="780" type="curve" smooth="yes"/>
			<point x="159" y="780" type="line" smooth="yes"/>
			<point x="122" y="780"/>
			<point x="101" y="759"/>
			<point x="101" y="722" type="curve" smooth="yes"/>
			<point x="101" y="-22" type="line" smooth="yes"/>
			<point x="101" y="-59"/>
			<point x="122" y="-80"/>
			<point x="159" y="-80" type="curve" smooth="yes"/>
			<point x="264" y="-80" type="line" smooth="yes"/>
			<point x="282" y="-80"/>
			<point x="297" y="-65"/>
			<point x="297" y="-47" type="curve" smooth="yes"/>
			<point x="297" y="-29"/>
			<point x="282" y="-14"/>
			<point x="264" y="-14" type="curve" smooth="yes"/>
			<point x="169" y="-14" type="line"/>
			<point x="169" y="714" type="line"/>
			<point x="264" y="714" type="line" smooth="yes"/>
			<point x="282" y="714"/>
			<point x="297" y="729"/>
			<point x="297" y="747" type="curve" smooth="yes"/>
			<point x="297" y="765"/>
		</contour>
	</outline>
</glyph>
<glyph name="underscore" format="2">
	<advance width="500"/>
	<unicode hex="005F"/>
	<note>
		underscore
	</note>
	<outline>
		<contour>
			<point x="78" y="-87" type="curve" smooth="yes"/>
			<point x="423" y="-87" type="line" smooth="yes"/>
			<point x="441" y="-87"/>
			<point x="456" y="-72"/>
			<point x="456" y="-54" type="curve" smooth="yes"/>
			<point x="456" y="-36"/>
			<point x="441" y="-21"/>
			<point x="423" y="-21" type="curve" smooth="yes"/>
			<point x="78" y="-21" type="line" smooth="yes"/>
			<point x="60" y="-21"/>
			<point x="45" y="-36"/>
			<point x="45" y="-54" type="curve" smooth="yes"/>
			<point x="45" y="-72"/>
			<point x="60" y="-87"/>
		</contour>
	</outline>
</glyph>
<glyph name="grave" format="2">
	<advance width="300"/>
	<unicode hex="0060"/>
	<note>
		grave
	</note>
	<outline>
		<contour>
			<point x="170" y="613"/>
			<point x="168" y="617" type="curve" smooth="yes"/>
			<point x="130" y="680" type="line" smooth="yes"/>
			<point x="124" y="691"/>
			<point x="112" y="698"/>
			<point x="99" y="698" type="curve" smooth="yes"/>
			<point x="79" y="698"/>
			<point x="63" y="681"/>
			<point x="63" y="661" type="curve" smooth="yes"/>
			<point x="63" y="652"/>
			<point x="67" y="643"/>
			<point x="72" y="637" type="curve" smooth="yes"/>
			<point x="121" y="582" type="line" smooth="yes"/>
			<point x="126" y="576"/>
			<point x="134" y="573"/>
			<point x="143" y="573" type="curve" smooth="yes"/>
			<point x="159" y="573"/>
			<point x="172" y="586"/>
			<point x="172" y="602" type="curve" smooth="yes"/>
			<point x="172" y="607"/>
		</contour>
	</outline>
</glyph>
<glyph name="r" format="2">
	<advance width="353"/>
	<unicode hex="0072"/>
	<note>
		r
	</note>
	<outline>
		<contour>
			<point x="306" y="544" type="curve" smooth="yes"/>
			<point x="291" y="544"/>
			<point x="274" y="540"/>
			<point x="258" y="534" type="curve" smooth="yes"/>
			<point x="231" y="523"/>
			<point x="219" y="506"/>
			<point x="205" y="483" type="curve" smooth="yes"/>
			<point x="179" y="441" type="line"/>
			<point x="179" y="482" type="line" smooth="yes"/>
			<point x="179" y="512"/>
			<point x="154" y="537"/>
			<point x="124" y="537" type="curve" smooth="yes"/>
			<point x="94" y="537"/>
			<point x="69" y="512"/>
			<point x="69" y="482" type="curve" smooth="yes"/>
			<point x="69" y="50" type="line" smooth="yes"/>
			<point x="69" y="20"/>
			<point x="94" y="-6"/>
			<point x="124" y="-6" type="curve" smooth="yes"/>
			<point x="154" y="-6"/>
			<point x="179" y="20"/>
			<point x="179" y="50" type="curve" smooth="yes"/>
			<point x="179" y="276" type="line" smooth="yes"/>
			<point x="179" y="389"/>
			<point x="226" y="443"/>
			<point x="307" y="451" type="curve" smooth="yes"/>
			<point x="330" y="453"/>
			<point x="349" y="474"/>
			<point x="349" y="498" type="curve" smooth="yes"/>
			<point x="349" y="522"/>
			<point x="329" y="542"/>
		</contour>
	</outline>
</glyph>
<glyph name="v" format="2">
	<advance width="538"/>
	<unicode hex="0076"/>
	<note>
		v
	</note>
	<outline>
		<contour>
			<point x="349" y="46" type="curve" smooth="yes"/>
			<point x="509" y="463" type="line" smooth="yes"/>
			<point x="511" y="469"/>
			<point x="513" y="476"/>
			<point x="513" y="483" type="curve" smooth="yes"/>
			<point x="513" y="512"/>
			<point x="489" y="536"/>
			<point x="459" y="536" type="curve" smooth="yes"/>
			<point x="435" y="536"/>
			<point x="415" y="520"/>
			<point x="408" y="499" type="curve" smooth="yes"/>
			<point x="271" y="81" type="line"/>
			<point x="133" y="498" type="line" smooth="yes"/>
			<point x="126" y="521"/>
			<point x="105" y="536"/>
			<point x="80" y="536" type="curve" smooth="yes"/>
			<point x="49" y="536"/>
			<point x="24" y="512"/>
			<point x="24" y="481" type="curve" smooth="yes"/>
			<point x="24" y="474"/>
			<point x="26" y="467"/>
			<point x="28" y="461" type="curve" smooth="yes"/>
			<point x="187" y="46" type="line" smooth="yes"/>
			<point x="199" y="14"/>
			<point x="220" y="0"/>
			<point x="253" y="0" type="curve" smooth="yes"/>
			<point x="283" y="0" type="line" smooth="yes"/>
			<point x="316" y="0"/>
			<point x="337" y="14"/>
		</contour>
	</outline>
</glyph>
<glyph name="z" format="2">
	<advance width="478"/>
	<unicode hex="007A"/>
	<note>
		z
	</note>
	<outline>
		<contour>
			<point x="436" y="79"/>
			<point x="415" y="79" type="curve" smooth="yes"/>
			<point x="148" y="79" type="line"/>
			<point x="439" y="440" type="line" smooth="yes"/>
			<point x="446" y="449"/>
			<point x="451" y="461"/>
			<point x="451" y="474" type="curve" smooth="yes"/>
			<point x="451" y="503"/>
			<point x="426" y="527"/>
			<point x="397" y="527" type="curve" smooth="yes"/>
			<point x="78" y="527" type="line" smooth="yes"/>
			<point x="57" y="527"/>
			<point x="39" y="509"/>
			<point x="39" y="488" type="curve" smooth="yes"/>
			<point x="39" y="466"/>
			<point x="57" y="448"/>
			<point x="78" y="448" type="curve" smooth="yes"/>
			<point x="323" y="448" type="line"/>
			<point x="30" y="83" type="line" smooth="yes"/>
			<point x="23" y="75"/>
			<point x="18" y="63"/>
			<point x="18" y="51" type="curve" smooth="yes"/>
			<point x="18" y="23"/>
			<point x="42" y="0"/>
			<point x="70" y="0" type="curve" smooth="yes"/>
			<point x="415" y="0" type="line" smooth="yes"/>
			<point x="436" y="0"/>
			<point x="455" y="18"/>
			<point x="455" y="40" type="curve" smooth="yes"/>
			<point x="455" y="61"/>
		</contour>
	</outline>
</glyph>
<glyph name="currency" format="2">
	<advance width="601"/>
	<unicode hex="00A4"/>
	<note>
		currency
	</note>
	<outline>
		<contour>
			<point x="480" y="301" type="curve" smooth="yes"/>
			<point x="480" y="339"/>
			<point x="468" y="375"/>
			<point x="448" y="404" type="curve"/>
			<point x="488" y="443" type="line" smooth="yes"/>
			<point x="494" y="448"/>
			<point x="498" y="457"/>
			<point x="498" y="466" type="curve" smooth="yes"/>
			<point x="498" y="484"/>
			<point x="483" y="498"/>
			<point x="466" y="498" type="curve" smooth="yes"/>
			<point x="457" y="498"/>
			<point x="448" y="494"/>
			<point x="443" y="489" type="curve" smooth="yes"/>
			<point x="403" y="449" type="line"/>
			<point x="374" y="469"/>
			<point x="338" y="481"/>
			<point x="300" y="481" type="curve" smooth="yes"/>
			<point x="262" y="481"/>
			<point x="227" y="469"/>
			<point x="198" y="449" type="curve"/>
			<point x="159" y="488" type="line" smooth="yes"/>
			<point x="154" y="493"/>
			<point x="145" y="498"/>
			<point x="136" y="498" type="curve" smooth="yes"/>
			<point x="119" y="498"/>
			<point x="104" y="483"/>
			<point x="104" y="466" type="curve" smooth="yes"/>
			<point x="104" y="457"/>
			<point x="109" y="448"/>
			<point x="114" y="443" type="curve" smooth="yes"/>
			<point x="152" y="405" type="line"/>
			<point x="132" y="375"/>
			<point x="120" y="340"/>
			<point x="120" y="301" type="curve" smooth="yes"/>
			<point x="120" y="263"/>
			<point x="132" y="227"/>
			<point x="152" y="198" type="curve"/>
			<point x="114" y="160" type="line" smooth="yes"/>
			<point x="109" y="155"/>
			<point x="104" y="146"/>
			<point x="104" y="137" type="curve" smooth="yes"/>
			<point x="104" y="120"/>
			<point x="119" y="105"/>
			<point x="136" y="105" type="curve" smooth="yes"/>
			<point x="145" y="105"/>
			<point x="154" y="110"/>
			<point x="159" y="115" type="curve" smooth="yes"/>
			<point x="197" y="153" type="line"/>
			<point x="226" y="133"/>
			<point x="262" y="121"/>
			<point x="300" y="121" type="curve" smooth="yes"/>
			<point x="339" y="121"/>
			<point x="374" y="133"/>
			<point x="404" y="154" type="curve"/>
			<point x="443" y="115" type="line" smooth="yes"/>
			<point x="448" y="110"/>
			<point x="457" y="105"/>
			<point x="466" y="105" type="curve" smooth="yes"/>
			<point x="483" y="105"/>
			<point x="498" y="119"/>
			<point x="498" y="137" type="curve" smooth="yes"/>
			<point x="498" y="146"/>
			<point x="494" y="155"/>
			<point x="488" y="160" type="curve" smooth="yes"/>
			<point x="448" y="199" type="line"/>
			<point x="468" y="228"/>
			<point x="480" y="263"/>
		</contour>
		<contour>
			<point x="300" y="188" type="curve" smooth="yes"/>
			<point x="239" y="188"/>
			<point x="193" y="235"/>
			<point x="193" y="301" type="curve" smooth="yes"/>
			<point x="193" y="367"/>
			<point x="239" y="414"/>
			<point x="300" y="414" type="curve" smooth="yes"/>
			<point x="362" y="414"/>
			<point x="408" y="367"/>
			<point x="408" y="301" type="curve" smooth="yes"/>
			<point x="408" y="235"/>
			<point x="362" y="188"/>
		</contour>
	</outline>
</glyph>
<glyph name="dieresis" format="2">
	<advance width="300"/>
	<unicode hex="00A8"/>
	<note>
		dieresis
	</note>
	<outline>
		<contour>
			<point x="38" y="582"/>
			<point x="67" y="582" type="curve" smooth="yes"/>
			<point x="81" y="582" type="line" smooth="yes"/>
			<point x="109" y="582"/>
			<point x="133" y="605"/>
			<point x="133" y="633" type="curve" smooth="yes"/>
			<point x="133" y="640"/>
			<point x="131" y="647"/>
			<point x="129" y="652" type="curve" smooth="yes"/>
			<point x="120" y="675"/>
			<point x="99" y="693"/>
			<point x="73" y="693" type="curve" smooth="yes"/>
			<point x="63" y="693"/>
			<point x="54" y="690"/>
			<point x="47" y="686" type="curve" smooth="yes"/>
			<point x="28" y="676"/>
			<point x="14" y="657"/>
			<point x="14" y="635" type="curve" smooth="yes"/>
			<point x="14" y="606"/>
		</contour>
		<contour>
			<point x="193" y="582"/>
			<point x="222" y="582" type="curve" smooth="yes"/>
			<point x="236" y="582" type="line" smooth="yes"/>
			<point x="264" y="582"/>
			<point x="288" y="605"/>
			<point x="288" y="633" type="curve" smooth="yes"/>
			<point x="288" y="640"/>
			<point x="286" y="647"/>
			<point x="284" y="652" type="curve" smooth="yes"/>
			<point x="275" y="675"/>
			<point x="254" y="693"/>
			<point x="228" y="693" type="curve" smooth="yes"/>
			<point x="218" y="693"/>
			<point x="209" y="690"/>
			<point x="202" y="686" type="curve" smooth="yes"/>
			<point x="183" y="676"/>
			<point x="169" y="657"/>
			<point x="169" y="635" type="curve" smooth="yes"/>
			<point x="169" y="606"/>
		</contour>
	</outline>
</glyph>
<glyph name="guillemotleft" format="2">
	<advance width="592"/>
	<unicode hex="00AB"/>
	<note>
		guillemotleft
	</note>
	<outline>
		<contour>
			<point x="214" y="248" type="line"/>
			<point x="310" y="365" type="line" smooth="yes"/>
			<point x="315" y="370"/>
			<point x="318" y="378"/>
			<point x="318" y="386" type="curve" smooth="yes"/>
			<point x="318" y="404"/>
			<point x="303" y="420"/>
			<point x="284" y="420" type="curve" smooth="yes"/>
			<point x="274" y="420"/>
			<point x="264" y="415"/>
			<point x="258" y="407" type="curve" smooth="yes"/>
			<point x="161" y="289" type="line" smooth="yes"/>
			<point x="139" y="262"/>
			<point x="139" y="234"/>
			<point x="161" y="207" type="curve" smooth="yes"/>
			<point x="258" y="89" type="line" smooth="yes"/>
			<point x="264" y="81"/>
			<point x="274" y="76"/>
			<point x="284" y="76" type="curve" smooth="yes"/>
			<point x="303" y="76"/>
			<point x="318" y="92"/>
			<point x="318" y="110" type="curve" smooth="yes"/>
			<point x="318" y="118"/>
			<point x="315" y="126"/>
			<point x="310" y="131" type="curve" smooth="yes"/>
		</contour>
		<contour>
			<point x="401" y="248" type="line"/>
			<point x="497" y="365" type="line" smooth="yes"/>
			<point x="502" y="370"/>
			<point x="505" y="378"/>
			<point x="505" y="386" type="curve" smooth="yes"/>
			<point x="505" y="404"/>
			<point x="490" y="420"/>
			<point x="471" y="420" type="curve" smooth="yes"/>
			<point x="461" y="420"/>
			<point x="451" y="415"/>
			<point x="445" y="407" type="curve" smooth="yes"/>
			<point x="348" y="289" type="line" smooth="yes"/>
			<point x="326" y="262"/>
			<point x="326" y="234"/>
			<point x="348" y="207" type="curve" smooth="yes"/>
			<point x="445" y="89" type="line" smooth="yes"/>
			<point x="451" y="81"/>
			<point x="461" y="76"/>
			<point x="471" y="76" type="curve" smooth="yes"/>
			<point x="490" y="76"/>
			<point x="505" y="92"/>
			<point x="505" y="110" type="curve" smooth="yes"/>
			<point x="505" y="118"/>
			<point x="502" y="126"/>
			<point x="497" y="131" type="curve" smooth="yes"/>
		</contour>
	</outline>
</glyph>
<glyph name="acute" format="2">
	<advance width="300"/>
	<unicode hex="00B4"/>
	<note>
		acute
	</note>
	<outline>
		<contour>
			<point x="176" y="576"/>
			<point x="181" y="582" type="curve" smooth="yes"/>
			<point x="247" y="655" type="line" smooth="yes"/>
			<point x="251" y="659"/>
			<point x="253" y="665"/>
			<point x="253" y="672" type="curve" smooth="yes"/>
			<point x="253" y="687"/>
			<point x="239" y="699"/>
			<point x="224" y="697" type="curve" smooth="yes"/>
			<point x="177" y="691"/>
			<point x="134" y="654"/>
			<point x="130" y="608" type="curve" smooth="yes"/>
			<point x="130" y="602" type="line" smooth="yes"/>
			<point x="130" y="585"/>
			<point x="143" y="572"/>
			<point x="159" y="572" type="curve" smooth="yes"/>
			<point x="168" y="572"/>
		</contour>
	</outline>
</glyph>
<glyph name="cedilla" format="2">
	<advance width="300"/>
	<unicode hex="00B8"/>
	<note>
		cedilla
	</note>
	<outline>
		<contour>
			<point x="161" y="-41" type="curve"/>
			<point x="176" y="-12"/>
			<point x="170" y="9"/>
			<point x="148" y="9" type="curve" smooth="yes"/>
			<point x="123" y="9"/>
			<point x="102" y="-12"/>
			<point x="102" y="-37" type="curve" smooth="yes"/>
			<point x="102" y="-59"/>
			<point x="117" y="-78"/>
			<point x="137" y="-83" type="curve" smooth="yes"/>
			<point x="164" y="-89"/>
			<point x="175" y="-102"/>
			<point x="175" y="-122" type="curve" smooth="yes"/>
			<point x="175" y="-146"/>
			<point x="155" y="-161"/>
			<point x="113" y="-161" type="curve" smooth="yes"/>
			<point x="103" y="-161"/>
			<point x="93" y="-160"/>
			<point x="82" y="-159" type="curve" smooth="yes"/>
			<point x="67" y="-156"/>
			<point x="53" y="-168"/>
			<point x="53" y="-183" type="curve" smooth="yes"/>
			<point x="53" y="-195"/>
			<point x="63" y="-205"/>
			<point x="74" y="-207" type="curve" smooth="yes"/>
			<point x="86" y="-209"/>
			<point x="98" y="-210"/>
			<point x="111" y="-210" type="curve" smooth="yes"/>
			<point x="189" y="-210"/>
			<point x="245" y="-181"/>
			<point x="245" y="-122" type="curve" smooth="yes"/>
			<point x="245" y="-76"/>
			<point x="216" y="-48"/>
		</contour>
	</outline>
</glyph>
<glyph name="Agrave" format="2">
	<advance width="656"/>
	<unicode hex="00C0"/>
	<note>
		Agrave
	</note>
	<outline>
		<contour>
			<point x="269" y="784" type="curve" smooth="yes"/>
			<point x="275" y="778" type="line" smooth="yes"/>
			<point x="301" y="750"/>
			<point x="343" y="743"/>
			<point x="349" y="780" type="curve" smooth="yes"/>
			<point x="350" y="784"/>
			<point x="350" y="787"/>
			<point x="350" y="791" type="curve" smooth="yes"/>
			<point x="350" y="822"/>
			<point x="325" y="841"/>
			<point x="295" y="844" type="curve"/>
			<point x="275" y="844"/>
			<point x="260" y="828"/>
			<point x="260" y="808" type="curve" smooth="yes"/>
			<point x="260" y="799"/>
			<point x="263" y="791"/>
		</contour>
		<contour>
			<point x="215" y="228" type="line"/>
			<point x="460" y="228" type="line"/>
			<point x="524" y="33" type="line" smooth="yes"/>
			<point x="531" y="10"/>
			<point x="552" y="-6"/>
			<point x="577" y="-6" type="curve" smooth="yes"/>
			<point x="608" y="-6"/>
			<point x="633" y="20"/>
			<point x="633" y="50" type="curve" smooth="yes"/>
			<point x="633" y="57"/>
			<point x="632" y="64"/>
			<point x="630" y="69" type="curve" smooth="yes"/>
			<point x="429" y="643" type="line" smooth="yes"/>
			<point x="418" y="674"/>
			<point x="396" y="690"/>
			<point x="363" y="690" type="curve" smooth="yes"/>
			<point x="320" y="690" type="line" smooth="yes"/>
			<point x="287" y="690"/>
			<point x="265" y="676"/>
			<point x="254" y="644" type="curve" smooth="yes"/>
			<point x="47" y="68" type="line" smooth="yes"/>
			<point x="45" y="63"/>
			<point x="44" y="56"/>
			<point x="44" y="49" type="curve" smooth="yes"/>
			<point x="44" y="19"/>
			<point x="69" y="-6"/>
			<point x="99" y="-6" type="curve" smooth="yes"/>
			<point x="123" y="-6"/>
			<point x="144" y="11"/>
			<point x="151" y="32" type="curve" smooth="yes"/>
		</contour>
		<contour>
			<point x="431" y="315" type="line"/>
			<point x="244" y="315" type="line"/>
			<point x="340" y="599" type="line"/>
		</contour>
	</outline>
</glyph>
<glyph name="Acircumflex" format="2">
	<advance width="656"/>
	<unicode hex="00C2"/>
	<note>
		Acircumflex
	</note>
	<outline>
		<contour>
			<point x="312" y="737"/>
			<point x="317" y="747" type="curve" smooth="yes"/>
			<point x="342" y="796" type="line"/>
			<point x="358" y="766" type="line" smooth="yes"/>
			<point x="368" y="747"/>
			<point x="408" y="741"/>
			<point x="413" y="780" type="curve" smooth="yes"/>
			<point x="414" y="782"/>
			<point x="414" y="785"/>
			<point x="414" y="787" type="curve" smooth="yes"/>
			<point x="414" y="816"/>
			<point x="391" y="839"/>
			<point x="362" y="839" type="curve" smooth="yes"/>
			<point x="333" y="839"/>
			<point x="310" y="816"/>
			<point x="310" y="787" type="curve" smooth="yes"/>
			<point x="310" y="766"/>
			<point x="318" y="787"/>
			<point x="331" y="808" type="curve" smooth="yes"/>
			<point x="343" y="827"/>
			<point x="350" y="838"/>
			<point x="339" y="838" type="curve" smooth="yes"/>
			<point x="296" y="838"/>
			<point x="260" y="803"/>
			<point x="258" y="761" type="curve" smooth="yes"/>
			<point x="258" y="744"/>
			<point x="272" y="730"/>
			<point x="289" y="730" type="curve" smooth="yes"/>
			<point x="301" y="730"/>
		</contour>
		<contour>
			<point x="215" y="228" type="line"/>
			<point x="460" y="228" type="line"/>
			<point x="524" y="33" type="line" smooth="yes"/>
			<point x="531" y="10"/>
			<point x="552" y="-6"/>
			<point x="577" y="-6" type="curve" smooth="yes"/>
			<point x="608" y="-6"/>
			<point x="633" y="20"/>
			<point x="633" y="50" type="curve" smooth="yes"/>
			<point x="633" y="57"/>
			<point x="632" y="64"/>
			<point x="630" y="69" type="curve" smooth="yes"/>
			<point x="429" y="643" type="line" smooth="yes"/>
			<point x="418" y="674"/>
			<point x="396" y="690"/>
			<point x="363" y="690" type="curve" smooth="yes"/>
			<point x="320" y="690" type="line" smooth="yes"/>
			<point x="287" y="690"/>
			<point x="265" y="676"/>
			<point x="254" y="644" type="curve" smooth="yes"/>
			<point x="47" y="68" type="line" smooth="yes"/>
			<point x="45" y="63"/>
			<point x="44" y="56"/>
			<point x="44" y="49" type="curve" smooth="yes"/>
			<point x="44" y="19"/>
			<point x="69" y="-6"/>
			<point x="99" y="-6" type="curve" smooth="yes"/>
			<point x="123" y="-6"/>
			<point x="144" y="11"/>
			<point x="151" y="32" type="curve" smooth="yes"/>
		</contour>
		<contour>
			<point x="431" y="315" type="line"/>
			<point x="244" y="315" type="line"/>
			<point x="340" y="599" type="line"/>
		</contour>
	</outline>
</glyph>
<glyph name="Aring" format="2">
	<advance width="656"/>
	<unicode hex="00C5"/>
	<note>
		Aring
	</note>
	<outline>
		<contour>
			<point x="342" y="718" type="curve" smooth="yes"/>
			<point x="399" y="718"/>
			<point x="440" y="753"/>
			<point x="440" y="803" type="curve" smooth="yes"/>
			<point x="440" y="853"/>
			<point x="399" y="889"/>
			<point x="342" y="889" type="curve" smooth="yes"/>
			<point x="285" y="889"/>
			<point x="244" y="853"/>
			<point x="244" y="803" type="curve" smooth="yes"/>
			<point x="244" y="753"/>
			<point x="285" y="718"/>
		</contour>
		<contour>
			<point x="342" y="845" type="curve" smooth="yes"/>
			<point x="365" y="845"/>
			<point x="382" y="828"/>
			<point x="382" y="803" type="curve" smooth="yes"/>
			<point x="382" y="779"/>
			<point x="365" y="761"/>
			<point x="342" y="761" type="curve" smooth="yes"/>
			<point x="319" y="761"/>
			<point x="302" y="779"/>
			<point x="302" y="803" type="curve" smooth="yes"/>
			<point x="302" y="828"/>
			<point x="319" y="845"/>
		</contour>
		<contour>
			<point x="215" y="228" type="line"/>
			<point x="460" y="228" type="line"/>
			<point x="524" y="33" type="line" smooth="yes"/>
			<point x="531" y="10"/>
			<point x="552" y="-6"/>
			<point x="577" y="-6" type="curve" smooth="yes"/>
			<point x="608" y="-6"/>
			<point x="633" y="20"/>
			<point x="633" y="50" type="curve" smooth="yes"/>
			<point x="633" y="57"/>
			<point x="632" y="64"/>
			<point x="630" y="69" type="curve" smooth="yes"/>
			<point x="429" y="643" type="line" smooth="yes"/>
			<point x="418" y="674"/>
			<point x="396" y="690"/>
			<point x="363" y="690" type="curve" smooth="yes"/>
			<point x="320" y="690" type="line" smooth="yes"/>
			<point x="287" y="690"/>
			<point x="265" y="676"/>
			<point x="254" y="644" type="curve" smooth="yes"/>
			<point x="47" y="68" type="line" smooth="yes"/>
			<point x="45" y="63"/>
			<point x="44" y="56"/>
			<point x="44" y="49" type="curve" smooth="yes"/>
			<point x="44" y="19"/>
			<point x="69" y="-6"/>
			<point x="99" y="-6" type="curve" smooth="yes"/>
			<point x="123" y="-6"/>
			<point x="144" y="11"/>
			<point x="151" y="32" type="curve" smooth="yes"/>
		</contour>
		<contour>
			<point x="431" y="315" type="line"/>
			<point x="244" y="315" type="line"/>
			<point x="340" y="599" type="line"/>
		</contour>
	</outline>
</glyph>
<glyph name="AE" format="2">
	<advance width="930"/>
	<unicode hex="00C6"/>
	<note>
		AE
	</note>
	<outline>
		<contour>
			<point x="888" y="88"/>
			<point x="864" y="88" type="curve" smooth="yes"/>
			<point x="555" y="88" type="line"/>
			<point x="539" y="302" type="line"/>
			<point x="826" y="302" type="line" smooth="yes"/>
			<point x="850" y="302"/>
			<point x="870" y="321"/>
			<point x="870" y="346" type="curve" smooth="yes"/>
			<point x="870" y="370"/>
			<point x="850" y="389"/>
			<point x="826" y="389" type="curve" smooth="yes"/>
			<point x="533" y="389" type="line"/>
			<point x="517" y="603" type="line"/>
			<point x="854" y="603" type="line" smooth="yes"/>
			<point x="878" y="603"/>
			<point x="898" y="622"/>
			<point x="898" y="647" type="curve" smooth="yes"/>
			<point x="898" y="671"/>
			<point x="878" y="690"/>
			<point x="854" y="690" type="curve" smooth="yes"/>
			<point x="398" y="690" type="line" smooth="yes"/>
			<point x="366" y="690"/>
			<point x="345" y="678"/>
			<point x="329" y="650" type="curve" smooth="yes"/>
			<point x="3" y="71" type="line" smooth="yes"/>
			<point x="-1" y="63"/>
			<point x="-4" y="55"/>
			<point x="-4" y="46" type="curve" smooth="yes"/>
			<point x="-4" y="17"/>
			<point x="19" y="-5"/>
			<point x="48" y="-5" type="curve" smooth="yes"/>
			<point x="67" y="-5"/>
			<point x="85" y="5"/>
			<point x="93" y="21" type="curve" smooth="yes"/>
			<point x="208" y="235" type="line"/>
			<point x="434" y="235" type="line"/>
			<point x="447" y="56" type="line" smooth="yes"/>
			<point x="450" y="20"/>
			<point x="471" y="0"/>
			<point x="507" y="0" type="curve" smooth="yes"/>
			<point x="864" y="0" type="line" smooth="yes"/>
			<point x="888" y="0"/>
			<point x="908" y="20"/>
			<point x="908" y="44" type="curve" smooth="yes"/>
			<point x="908" y="68"/>
		</contour>
		<contour>
			<point x="407" y="602" type="line"/>
			<point x="428" y="323" type="line"/>
			<point x="256" y="323" type="line"/>
		</contour>
	</outline>
</glyph>
<glyph name="Ccedilla" format="2">
	<advance width="708"/>
	<unicode hex="00C7"/>
	<note>
		Ccedilla
	</note>
	<outline>
		<contour>
			<point x="586" y="254"/>
			<point x="580" y="250" type="curve" smooth="yes"/>
			<point x="555" y="236"/>
			<point x="551" y="214"/>
			<point x="542" y="187" type="curve" smooth="yes"/>
			<point x="516" y="115"/>
			<point x="462" y="70"/>
			<point x="372" y="70" type="curve" smooth="yes"/>
			<point x="250" y="70"/>
			<point x="168" y="176"/>
			<point x="168" y="347" type="curve" smooth="yes"/>
			<point x="168" y="510"/>
			<point x="249" y="620"/>
			<point x="377" y="620" type="curve" smooth="yes"/>
			<point x="467" y="620"/>
			<point x="521" y="576"/>
			<point x="547" y="505" type="curve" smooth="yes"/>
			<point x="556" y="478"/>
			<point x="562" y="455"/>
			<point x="588" y="447" type="curve" smooth="yes"/>
			<point x="594" y="446"/>
			<point x="600" y="445"/>
			<point x="606" y="445" type="curve" smooth="yes"/>
			<point x="617" y="445"/>
			<point x="629" y="446"/>
			<point x="639" y="450" type="curve" smooth="yes"/>
			<point x="662" y="457"/>
			<point x="667" y="481"/>
			<point x="659" y="512" type="curve" smooth="yes"/>
			<point x="631" y="625"/>
			<point x="539" y="704"/>
			<point x="379" y="704" type="curve" smooth="yes"/>
			<point x="185" y="704"/>
			<point x="49" y="559"/>
			<point x="49" y="342" type="curve" smooth="yes"/>
			<point x="49" y="149"/>
			<point x="151" y="11"/>
			<point x="320" y="-11" type="curve"/>
			<point x="302" y="-46" type="line" smooth="yes"/>
			<point x="291" y="-68"/>
			<point x="310" y="-73"/>
			<point x="350" y="-85" type="curve" smooth="yes"/>
			<point x="370" y="-92"/>
			<point x="379" y="-104"/>
			<point x="379" y="-122" type="curve" smooth="yes"/>
			<point x="379" y="-146"/>
			<point x="359" y="-161"/>
			<point x="317" y="-161" type="curve" smooth="yes"/>
			<point x="307" y="-161"/>
			<point x="297" y="-160"/>
			<point x="286" y="-159" type="curve" smooth="yes"/>
			<point x="271" y="-156"/>
			<point x="257" y="-168"/>
			<point x="257" y="-183" type="curve" smooth="yes"/>
			<point x="257" y="-195"/>
			<point x="267" y="-205"/>
			<point x="278" y="-207" type="curve" smooth="yes"/>
			<point x="290" y="-209"/>
			<point x="302" y="-210"/>
			<point x="315" y="-210" type="curve" smooth="yes"/>
			<point x="393" y="-210"/>
			<point x="449" y="-181"/>
			<point x="449" y="-122" type="curve" smooth="yes"/>
			<point x="449" y="-76"/>
			<point x="420" y="-48"/>
			<point x="365" y="-41" type="curve"/>
			<point x="379" y="-14" type="line"/>
			<point x="533" y="-10"/>
			<point x="627" y="72"/>
			<point x="655" y="183" type="curve" smooth="yes"/>
			<point x="662" y="212"/>
			<point x="658" y="238"/>
			<point x="631" y="250" type="curve" smooth="yes"/>
			<point x="622" y="254"/>
			<point x="612" y="256"/>
			<point x="601" y="256" type="curve" smooth="yes"/>
			<point x="593" y="256"/>
		</contour>
	</outline>
</glyph>
<glyph name="Egrave" format="2">
	<advance width="600"/>
	<unicode hex="00C8"/>
	<note>
		Egrave
	</note>
	<outline>
		<contour>
			<point x="264" y="784" type="curve" smooth="yes"/>
			<point x="270" y="778" type="line" smooth="yes"/>
			<point x="296" y="750"/>
			<point x="338" y="743"/>
			<point x="344" y="780" type="curve" smooth="yes"/>
			<point x="345" y="784"/>
			<point x="345" y="787"/>
			<point x="345" y="791" type="curve" smooth="yes"/>
			<point x="345" y="822"/>
			<point x="320" y="841"/>
			<point x="290" y="844" type="curve"/>
			<point x="270" y="844"/>
			<point x="255" y="828"/>
			<point x="255" y="808" type="curve" smooth="yes"/>
			<point x="255" y="799"/>
			<point x="258" y="791"/>
		</contour>
		<contour>
			<point x="558" y="88"/>
			<point x="534" y="88" type="curve" smooth="yes"/>
			<point x="205" y="88" type="line"/>
			<point x="205" y="302" type="line"/>
			<point x="496" y="302" type="line" smooth="yes"/>
			<point x="520" y="302"/>
			<point x="540" y="321"/>
			<point x="540" y="346" type="curve" smooth="yes"/>
			<point x="540" y="370"/>
			<point x="520" y="389"/>
			<point x="496" y="389" type="curve" smooth="yes"/>
			<point x="205" y="389" type="line"/>
			<point x="205" y="603" type="line"/>
			<point x="524" y="603" type="line" smooth="yes"/>
			<point x="548" y="603"/>
			<point x="568" y="622"/>
			<point x="568" y="647" type="curve" smooth="yes"/>
			<point x="568" y="671"/>
			<point x="548" y="690"/>
			<point x="524" y="690" type="curve" smooth="yes"/>
			<point x="153" y="690" type="line" smooth="yes"/>
			<point x="116" y="690"/>
			<point x="95" y="669"/>
			<point x="95" y="632" type="curve" smooth="yes"/>
			<point x="95" y="58" type="line" smooth="yes"/>
			<point x="95" y="21"/>
			<point x="116" y="0"/>
			<point x="153" y="0" type="curve" smooth="yes"/>
			<point x="534" y="0" type="line" smooth="yes"/>
			<point x="558" y="0"/>
			<point x="578" y="20"/>
			<point x="578" y="44" type="curve" smooth="yes"/>
			<point x="578" y="68"/>
		</contour>
	</outline>
</glyph>
<glyph name="Ocircumflex" format="2">
	<advance width="750"/>
	<unicode hex="00D4"/>
	<note>
		Ocircumflex
	</note>
	<outline>
		<contour>
			<point x="352" y="737"/>
			<point x="357" y="747" type="curve" smooth="yes"/>
			<point x="382" y="796" type="line"/>
			<point x="398" y="766" type="line" smooth="yes"/>
			<point x="408" y="747"/>
			<point x="448" y="741"/>
			<point x="453" y="780" type="curve" smooth="yes"/>
			<point x="454" y="782"/>
			<point x="454" y="785"/>
			<point x="454" y="787" type="curve" smooth="yes"/>
			<point x="454" y="816"/>
			<point x="431" y="839"/>
			<point x="402" y="839" type="curve" smooth="yes"/>
			<point x="373" y="839"/>
			<point x="350" y="816"/>
			<point x="350" y="787" type="curve" smooth="yes"/>
			<point x="350" y="766"/>
			<point x="358" y="787"/>
			<point x="371" y="808" type="curve" smooth="yes"/>
			<point x="383" y="827"/>
			<point x="390" y="838"/>
			<point x="379" y="838" type="curve" smooth="yes"/>
			<point x="336" y="838"/>
			<point x="300" y="803"/>
			<point x="298" y="761" type="curve" smooth="yes"/>
			<point x="298" y="744"/>
			<point x="312" y="730"/>
			<point x="329" y="730" type="curve" smooth="yes"/>
			<point x="341" y="730"/>
		</contour>
		<contour>
			<point x="382" y="704" type="curve" smooth="yes"/>
			<point x="170" y="704"/>
			<point x="49" y="559"/>
			<point x="49" y="345" type="curve" smooth="yes"/>
			<point x="49" y="132"/>
			<point x="170" y="-14"/>
			<point x="382" y="-14" type="curve" smooth="yes"/>
			<point x="593" y="-14"/>
			<point x="714" y="132"/>
			<point x="714" y="345" type="curve" smooth="yes"/>
			<point x="714" y="559"/>
			<point x="593" y="704"/>
		</contour>
		<contour>
			<point x="382" y="70" type="curve" smooth="yes"/>
			<point x="247" y="70"/>
			<point x="167" y="174"/>
			<point x="167" y="345" type="curve" smooth="yes"/>
			<point x="167" y="517"/>
			<point x="247" y="620"/>
			<point x="382" y="620" type="curve" smooth="yes"/>
			<point x="516" y="620"/>
			<point x="596" y="517"/>
			<point x="596" y="345" type="curve" smooth="yes"/>
			<point x="596" y="174"/>
			<point x="516" y="70"/>
		</contour>
	</outline>
</glyph>
<glyph name="Otilde" format="2">
	<advance width="750"/>
	<unicode hex="00D5"/>
	<note>
		Otilde
	</note>
	<outline>
		<contour>
			<point x="330" y="771" type="curve" smooth="yes"/>
			<point x="339" y="771"/>
			<point x="350" y="767"/>
			<point x="374" y="759" type="curve" smooth="yes"/>
			<point x="404" y="748"/>
			<point x="420" y="744"/>
			<point x="441" y="744" type="curve" smooth="yes"/>
			<point x="475" y="744"/>
			<point x="495" y="759"/>
			<point x="501" y="806" type="curve" smooth="yes"/>
			<point x="503" y="823"/>
			<point x="491" y="837"/>
			<point x="474" y="837" type="curve" smooth="yes"/>
			<point x="462" y="837"/>
			<point x="451" y="829"/>
			<point x="448" y="818" type="curve" smooth="yes"/>
			<point x="446" y="810"/>
			<point x="441" y="808"/>
			<point x="434" y="808" type="curve" smooth="yes"/>
			<point x="426" y="808"/>
			<point x="414" y="812"/>
			<point x="390" y="820" type="curve" smooth="yes"/>
			<point x="361" y="831"/>
			<point x="345" y="835"/>
			<point x="323" y="835" type="curve" smooth="yes"/>
			<point x="290" y="835"/>
			<point x="269" y="819"/>
			<point x="264" y="773" type="curve" smooth="yes"/>
			<point x="262" y="758"/>
			<point x="274" y="742"/>
			<point x="290" y="742" type="curve" smooth="yes"/>
			<point x="302" y="742"/>
			<point x="313" y="751"/>
			<point x="316" y="761" type="curve" smooth="yes"/>
			<point x="319" y="769"/>
			<point x="324" y="771"/>
		</contour>
		<contour>
			<point x="382" y="704" type="curve" smooth="yes"/>
			<point x="170" y="704"/>
			<point x="49" y="559"/>
			<point x="49" y="345" type="curve" smooth="yes"/>
			<point x="49" y="132"/>
			<point x="170" y="-14"/>
			<point x="382" y="-14" type="curve" smooth="yes"/>
			<point x="593" y="-14"/>
			<point x="714" y="132"/>
			<point x="714" y="345" type="curve" smooth="yes"/>
			<point x="714" y="559"/>
			<point x="593" y="704"/>
		</contour>
		<contour>
			<point x="382" y="70" type="curve" smooth="yes"/>
			<point x="247" y="70"/>
			<point x="167" y="174"/>
			<point x="167" y="345" type="curve" smooth="yes"/>
			<point x="167" y="517"/>
			<point x="247" y="620"/>
			<point x="382" y="620" type="curve" smooth="yes"/>
			<point x="516" y="620"/>
			<point x="596" y="517"/>
			<point x="596" y="345" type="curve" smooth="yes"/>
			<point x="596" y="174"/>
			<point x="516" y="70"/>
		</contour>
	</outline>
</glyph>
<glyph name="Oslash" format="2">
	<advance width="756"/>
	<unicode hex="00D8"/>
	<note>
		Oslash
	</note>
	<outline>
		<contour>
			<point x="658" y="570" type="curve"/>
			<point x="705" y="617" type="line" smooth="yes"/>
			<point x="711" y="623"/>
			<point x="715" y="632"/>
			<point x="715" y="641" type="curve" smooth="yes"/>
			<point x="715" y="660"/>
			<point x="700" y="675"/>
			<point x="681" y="675" type="curve" smooth="yes"/>
			<point x="672" y="675"/>
			<point x="663" y="671"/>
			<point x="657" y="665" type="curve" smooth="yes"/>
			<point x="614" y="622" type="line"/>
			<point x="558" y="674"/>
			<point x="481" y="704"/>
			<point x="385" y="704" type="curve" smooth="yes"/>
			<point x="174" y="704"/>
			<point x="52" y="559"/>
			<point x="52" y="345" type="curve" smooth="yes"/>
			<point x="52" y="257"/>
			<point x="73" y="180"/>
			<point x="112" y="120" type="curve"/>
			<point x="65" y="73" type="line" smooth="yes"/>
			<point x="59" y="67"/>
			<point x="55" y="58"/>
			<point x="55" y="49" type="curve" smooth="yes"/>
			<point x="55" y="30"/>
			<point x="70" y="15"/>
			<point x="89" y="15" type="curve" smooth="yes"/>
			<point x="98" y="15"/>
			<point x="107" y="19"/>
			<point x="113" y="25" type="curve" smooth="yes"/>
			<point x="156" y="68" type="line"/>
			<point x="212" y="16"/>
			<point x="290" y="-14"/>
			<point x="385" y="-14" type="curve" smooth="yes"/>
			<point x="596" y="-14"/>
			<point x="718" y="132"/>
			<point x="718" y="345" type="curve" smooth="yes"/>
			<point x="718" y="434"/>
			<point x="697" y="510"/>
		</contour>
		<contour>
			<point x="170" y="345" type="curve" smooth="yes"/>
			<point x="170" y="517"/>
			<point x="250" y="620"/>
			<point x="385" y="620" type="curve" smooth="yes"/>
			<point x="451" y="620"/>
			<point x="504" y="595"/>
			<point x="541" y="549" type="curve"/>
			<point x="194" y="202" type="line"/>
			<point x="178" y="242"/>
			<point x="170" y="290"/>
		</contour>
		<contour>
			<point x="600" y="345" type="curve" smooth="yes"/>
			<point x="600" y="174"/>
			<point x="520" y="70"/>
			<point x="385" y="70" type="curve" smooth="yes"/>
			<point x="319" y="70"/>
			<point x="266" y="95"/>
			<point x="229" y="141" type="curve"/>
			<point x="576" y="488" type="line"/>
			<point x="592" y="448"/>
			<point x="600" y="400"/>
		</contour>
	</outline>
</glyph>
<glyph name="Ugrave" format="2">
	<advance width="691"/>
	<unicode hex="00D9"/>
	<note>
		Ugrave
	</note>
	<outline>
		<contour>
			<point x="377" y="759"/>
			<point x="376" y="760" type="curve" smooth="yes"/>
			<point x="331" y="821"/>
			<point x="284" y="847"/>
			<point x="277" y="817" type="curve" smooth="yes"/>
			<point x="276" y="814"/>
			<point x="276" y="811"/>
			<point x="276" y="808" type="curve" smooth="yes"/>
			<point x="276" y="799"/>
			<point x="279" y="791"/>
			<point x="285" y="784" type="curve" smooth="yes"/>
			<point x="328" y="739" type="line" smooth="yes"/>
			<point x="333" y="733"/>
			<point x="340" y="731"/>
			<point x="349" y="731" type="curve" smooth="yes"/>
			<point x="365" y="731"/>
			<point x="377" y="743"/>
			<point x="377" y="759" type="curve"/>
			<point x="377" y="759"/>
		</contour>
		<contour>
			<point x="629" y="267" type="curve" smooth="yes"/>
			<point x="629" y="641" type="line" smooth="yes"/>
			<point x="629" y="671"/>
			<point x="605" y="696"/>
			<point x="575" y="696" type="curve" smooth="yes"/>
			<point x="544" y="696"/>
			<point x="520" y="671"/>
			<point x="520" y="641" type="curve" smooth="yes"/>
			<point x="520" y="265" type="line" smooth="yes"/>
			<point x="520" y="244"/>
			<point x="520" y="225"/>
			<point x="518" y="209" type="curve" smooth="yes"/>
			<point x="511" y="126"/>
			<point x="458" y="70"/>
			<point x="358" y="70" type="curve" smooth="yes"/>
			<point x="259" y="70"/>
			<point x="206" y="126"/>
			<point x="199" y="209" type="curve" smooth="yes"/>
			<point x="197" y="225"/>
			<point x="197" y="244"/>
			<point x="197" y="265" type="curve" smooth="yes"/>
			<point x="197" y="641" type="line" smooth="yes"/>
			<point x="197" y="671"/>
			<point x="173" y="696"/>
			<point x="143" y="696" type="curve" smooth="yes"/>
			<point x="112" y="696"/>
			<point x="88" y="671"/>
			<point x="88" y="641" type="curve" smooth="yes"/>
			<point x="88" y="267" type="line" smooth="yes"/>
			<point x="88" y="242"/>
			<point x="88" y="222"/>
			<point x="90" y="196" type="curve" smooth="yes"/>
			<point x="99" y="81"/>
			<point x="178" y="-14"/>
			<point x="358" y="-14" type="curve" smooth="yes"/>
			<point x="538" y="-14"/>
			<point x="617" y="81"/>
			<point x="627" y="196" type="curve" smooth="yes"/>
			<point x="629" y="222"/>
			<point x="629" y="242"/>
		</contour>
	</outline>
</glyph>
<glyph name="Ucircumflex" format="2">
	<advance width="691"/>
	<unicode hex="00DB"/>
	<note>
		Ucircumflex
	</note>
	<outline>
		<contour>
			<point x="328" y="737"/>
			<point x="333" y="747" type="curve" smooth="yes"/>
			<point x="358" y="796" type="line"/>
			<point x="374" y="766" type="line" smooth="yes"/>
			<point x="384" y="747"/>
			<point x="424" y="741"/>
			<point x="429" y="780" type="curve" smooth="yes"/>
			<point x="430" y="782"/>
			<point x="430" y="785"/>
			<point x="430" y="787" type="curve" smooth="yes"/>
			<point x="430" y="816"/>
			<point x="407" y="839"/>
			<point x="378" y="839" type="curve" smooth="yes"/>
			<point x="349" y="839"/>
			<point x="326" y="816"/>
			<point x="326" y="787" type="curve" smooth="yes"/>
			<point x="326" y="766"/>
			<point x="334" y="787"/>
			<point x="347" y="808" type="curve" smooth="yes"/>
			<point x="359" y="827"/>
			<point x="366" y="838"/>
			<point x="355" y="838" type="curve" smooth="yes"/>
			<point x="312" y="838"/>
			<point x="276" y="803"/>
			<point x="274" y="761" type="curve" smooth="yes"/>
			<point x="274" y="744"/>
			<point x="288" y="730"/>
			<point x="305" y="730" type="curve" smooth="yes"/>
			<point x="317" y="730"/>
		</contour>
		<contour>
			<point x="629" y="267" type="curve" smooth="yes"/>
			<point x="629" y="641" type="line" smooth="yes"/>
			<point x="629" y="671"/>
			<point x="605" y="696"/>
			<point x="575" y="696" type="curve" smooth="yes"/>
			<point x="544" y="696"/>
			<point x="520" y="671"/>
			<point x="520" y="641" type="curve" smooth="yes"/>
			<point x="520" y="265" type="line" smooth="yes"/>
			<point x="520" y="244"/>
			<point x="520" y="225"/>
			<point x="518" y="209" type="curve" smooth="yes"/>
			<point x="511" y="126"/>
			<point x="458" y="70"/>
			<point x="358" y="70" type="curve" smooth="yes"/>
			<point x="259" y="70"/>
			<point x="206" y="126"/>
			<point x="199" y="209" type="curve" smooth="yes"/>
			<point x="197" y="225"/>
			<point x="197" y="244"/>
			<point x="197" y="265" type="curve" smooth="yes"/>
			<point x="197" y="641" type="line" smooth="yes"/>
			<point x="197" y="671"/>
			<point x="173" y="696"/>
			<point x="143" y="696" type="curve" smooth="yes"/>
			<point x="112" y="696"/>
			<point x="88" y="671"/>
			<point x="88" y="641" type="curve" smooth="yes"/>
			<point x="88" y="267" type="line" smooth="yes"/>
			<point x="88" y="242"/>
			<point x="88" y="222"/>
			<point x="90" y="196" type="curve" smooth="yes"/>
			<point x="99" y="81"/>
			<point x="178" y="-14"/>
			<point x="358" y="-14" type="curve" smooth="yes"/>
			<point x="538" y="-14"/>
			<point x="617" y="81"/>
			<point x="627" y="196" type="curve" smooth="yes"/>
			<point x="629" y="222"/>
			<point x="629" y="242"/>
		</contour>
	</outline>
</glyph>
<glyph name="eacute" format="2">
	<advance width="562"/>
	<unicode hex="00E9"/>
	<note>
		eacute
	</note>
	<outline>
		<contour>
			<point x="309" y="576"/>
			<point x="314" y="582" type="curve" smooth="yes"/>
			<point x="380" y="655" type="line" smooth="yes"/>
			<point x="384" y="659"/>
			<point x="386" y="665"/>
			<point x="386" y="672" type="curve" smooth="yes"/>
			<point x="386" y="687"/>
			<point x="372" y="699"/>
			<point x="357" y="697" type="curve" smooth="yes"/>
			<point x="310" y="691"/>
			<point x="267" y="654"/>
			<point x="263" y="608" type="curve" smooth="yes"/>
			<point x="263" y="602" type="line" smooth="yes"/>
			<point x="263" y="585"/>
			<point x="276" y="572"/>
			<point x="292" y="572" type="curve" smooth="yes"/>
			<point x="301" y="572"/>
		</contour>
		<contour>
			<point x="526" y="279" type="curve" smooth="yes"/>
			<point x="526" y="429"/>
			<point x="443" y="545"/>
			<point x="289" y="545" type="curve" smooth="yes"/>
			<point x="136" y="545"/>
			<point x="29" y="432"/>
			<point x="29" y="264" type="curve" smooth="yes"/>
			<point x="29" y="76"/>
			<point x="136" y="-14"/>
			<point x="278" y="-14" type="curve" smooth="yes"/>
			<point x="369" y="-14"/>
			<point x="450" y="23"/>
			<point x="493" y="102" type="curve" smooth="yes"/>
			<point x="497" y="110"/>
			<point x="499" y="117"/>
			<point x="499" y="126" type="curve" smooth="yes"/>
			<point x="499" y="155"/>
			<point x="475" y="178"/>
			<point x="447" y="178" type="curve" smooth="yes"/>
			<point x="425" y="178"/>
			<point x="406" y="164"/>
			<point x="399" y="144" type="curve" smooth="yes"/>
			<point x="379" y="93"/>
			<point x="335" y="66"/>
			<point x="282" y="66" type="curve" smooth="yes"/>
			<point x="210" y="66"/>
			<point x="152" y="108"/>
			<point x="143" y="235" type="curve"/>
			<point x="467" y="235" type="line" smooth="yes"/>
			<point x="504" y="235"/>
			<point x="526" y="279"/>
		</contour>
		<contour>
			<point x="285" y="465" type="curve" smooth="yes"/>
			<point x="362" y="465"/>
			<point x="405" y="410"/>
			<point x="413" y="312" type="curve"/>
			<point x="144" y="312" type="line"/>
			<point x="156" y="414"/>
			<point x="210" y="465"/>
		</contour>
	</outline>
</glyph>
<glyph name="ecircumflex" format="2">
	<advance width="562"/>
	<unicode hex="00EA"/>
	<note>
		ecircumflex
	</note>
	<outline>
		<contour>
			<point x="251" y="579"/>
			<point x="256" y="590" type="curve" smooth="yes"/>
			<point x="283" y="643" type="line"/>
			<point x="310" y="590" type="line" smooth="yes"/>
			<point x="315" y="579"/>
			<point x="326" y="573"/>
			<point x="338" y="573" type="curve" smooth="yes"/>
			<point x="356" y="573"/>
			<point x="370" y="587"/>
			<point x="370" y="604" type="curve" smooth="yes"/>
			<point x="370" y="610"/>
			<point x="369" y="616"/>
			<point x="366" y="620" type="curve" smooth="yes"/>
			<point x="347" y="652" type="line" smooth="yes"/>
			<point x="331" y="679"/>
			<point x="312" y="692"/>
			<point x="287" y="692" type="curve" smooth="yes"/>
			<point x="241" y="692"/>
			<point x="201" y="657"/>
			<point x="198" y="611" type="curve"/>
			<point x="197" y="609"/>
			<point x="197" y="606"/>
			<point x="197" y="604" type="curve" smooth="yes"/>
			<point x="197" y="586"/>
			<point x="211" y="573"/>
			<point x="228" y="573" type="curve" smooth="yes"/>
			<point x="240" y="573"/>
		</contour>
		<contour>
			<point x="526" y="279" type="curve" smooth="yes"/>
			<point x="526" y="429"/>
			<point x="443" y="545"/>
			<point x="289" y="545" type="curve" smooth="yes"/>
			<point x="136" y="545"/>
			<point x="29" y="432"/>
			<point x="29" y="264" type="curve" smooth="yes"/>
			<point x="29" y="76"/>
			<point x="136" y="-14"/>
			<point x="278" y="-14" type="curve" smooth="yes"/>
			<point x="369" y="-14"/>
			<point x="450" y="23"/>
			<point x="493" y="102" type="curve" smooth="yes"/>
			<point x="497" y="110"/>
			<point x="499" y="117"/>
			<point x="499" y="126" type="curve" smooth="yes"/>
			<point x="499" y="155"/>
			<point x="475" y="178"/>
			<point x="447" y="178" type="curve" smooth="yes"/>
			<point x="425" y="178"/>
			<point x="406" y="164"/>
			<point x="399" y="144" type="curve" smooth="yes"/>
			<point x="379" y="93"/>
			<point x="335" y="66"/>
			<point x="282" y="66" type="curve" smooth="yes"/>
			<point x="210" y="66"/>
			<point x="152" y="108"/>
			<point x="143" y="235" type="curve"/>
			<point x="467" y="235" type="line" smooth="yes"/>
			<point x="504" y="235"/>
			<point x="526" y="279"/>
		</contour>
		<contour>
			<point x="285" y="465" type="curve" smooth="yes"/>
			<point x="362" y="465"/>
			<point x="405" y="410"/>
			<point x="413" y="312" type="curve"/>
			<point x="144" y="312" type="line"/>
			<point x="156" y="414"/>
			<point x="210" y="465"/>
		</contour>
	</outline>
</glyph>
<glyph name="idieresis" format="2">
	<advance width="251"/>
	<unicode hex="00EF"/>
	<note>
		idieresis
	</note>
	<outline>
		<contour>
			<point x="179" y="20"/>
			<point x="179" y="50" type="curve" smooth="yes"/>
			<point x="179" y="482" type="line" smooth="yes"/>
			<point x="179" y="512"/>
			<point x="154" y="537"/>
			<point x="124" y="537" type="curve" smooth="yes"/>
			<point x="94" y="537"/>
			<point x="69" y="512"/>
			<point x="69" y="482" type="curve" smooth="yes"/>
			<point x="69" y="50" type="line" smooth="yes"/>
			<point x="69" y="20"/>
			<point x="94" y="-6"/>
			<point x="124" y="-6" type="curve" smooth="yes"/>
			<point x="154" y="-6"/>
		</contour>
		<contour>
			<point x="13" y="582"/>
			<point x="42" y="582" type="curve" smooth="yes"/>
			<point x="56" y="582" type="line" smooth="yes"/>
			<point x="84" y="582"/>
			<point x="108" y="605"/>
			<point x="108" y="633" type="curve" smooth="yes"/>
			<point x="108" y="640"/>
			<point x="106" y="647"/>
			<point x="104" y="652" type="curve" smooth="yes"/>
			<point x="95" y="675"/>
			<point x="74" y="693"/>
			<point x="48" y="693" type="curve" smooth="yes"/>
			<point x="39" y="693"/>
			<point x="32" y="692"/>
			<point x="25" y="688" type="curve" smooth="yes"/>
			<point x="4" y="678"/>
			<point x="-12" y="658"/>
			<point x="-12" y="635" type="curve" smooth="yes"/>
			<point x="-12" y="606"/>
		</contour>
		<contour>
			<point x="168" y="582"/>
			<point x="197" y="582" type="curve" smooth="yes"/>
			<point x="211" y="582" type="line" smooth="yes"/>
			<point x="239" y="582"/>
			<point x="263" y="605"/>
			<point x="263" y="633" type="curve" smooth="yes"/>
			<point x="263" y="640"/>
			<point x="261" y="647"/>
			<point x="259" y="652" type="curve" smooth="yes"/>
			<point x="250" y="675"/>
			<point x="229" y="693"/>
			<point x="203" y="693" type="curve" smooth="yes"/>
			<point x="193" y="693"/>
			<point x="184" y="690"/>
			<point x="177" y="686" type="curve" smooth="yes"/>
			<point x="158" y="676"/>
			<point x="144" y="657"/>
			<point x="144" y="635" type="curve" smooth="yes"/>
			<point x="144" y="606"/>
		</contour>
	</outline>
</glyph>
<glyph name="ydieresis" format="2">
	<advance width="537"/>
	<unicode hex="00FF"/>
	<note>
		ydieresis
	</note>
	<outline>
		<contour>
			<point x="318" y="-34" type="curve" smooth="yes"/>
			<point x="508" y="462" type="line" smooth="yes"/>
			<point x="510" y="468"/>
			<point x="511" y="475"/>
			<point x="511" y="482" type="curve" smooth="yes"/>
			<point x="511" y="512"/>
			<point x="487" y="537"/>
			<point x="457" y="537" type="curve" smooth="yes"/>
			<point x="432" y="537"/>
			<point x="412" y="521"/>
			<point x="405" y="499" type="curve" smooth="yes"/>
			<point x="270" y="82" type="line"/>
			<point x="135" y="497" type="line" smooth="yes"/>
			<point x="128" y="519"/>
			<point x="106" y="537"/>
			<point x="81" y="537" type="curve" smooth="yes"/>
			<point x="50" y="537"/>
			<point x="25" y="511"/>
			<point x="25" y="480" type="curve" smooth="yes"/>
			<point x="25" y="473"/>
			<point x="26" y="466"/>
			<point x="28" y="460" type="curve" smooth="yes"/>
			<point x="215" y="-25" type="line"/>
			<point x="207" y="-44" type="line" smooth="yes"/>
			<point x="181" y="-105"/>
			<point x="149" y="-127"/>
			<point x="99" y="-127" type="curve" smooth="yes"/>
			<point x="77" y="-127"/>
			<point x="58" y="-146"/>
			<point x="58" y="-168" type="curve" smooth="yes"/>
			<point x="58" y="-191"/>
			<point x="77" y="-210"/>
			<point x="99" y="-210" type="curve" smooth="yes"/>
			<point x="116" y="-210" type="line" smooth="yes"/>
			<point x="212" y="-210"/>
			<point x="270" y="-160"/>
		</contour>
		<contour>
			<point x="156" y="579"/>
			<point x="185" y="579" type="curve" smooth="yes"/>
			<point x="199" y="579" type="line" smooth="yes"/>
			<point x="227" y="579"/>
			<point x="251" y="602"/>
			<point x="251" y="630" type="curve" smooth="yes"/>
			<point x="251" y="637"/>
			<point x="249" y="644"/>
			<point x="247" y="649" type="curve" smooth="yes"/>
			<point x="238" y="672"/>
			<point x="217" y="690"/>
			<point x="191" y="690" type="curve" smooth="yes"/>
			<point x="181" y="690"/>
			<point x="172" y="687"/>
			<point x="165" y="683" type="curve" smooth="yes"/>
			<point x="146" y="673"/>
			<point x="132" y="654"/>
			<point x="132" y="632" type="curve" smooth="yes"/>
			<point x="132" y="603"/>
		</contour>
		<contour>
			<point x="311" y="579"/>
			<point x="340" y="579" type="curve" smooth="yes"/>
			<point x="354" y="579" type="line" smooth="yes"/>
			<point x="382" y="579"/>
			<point x="406" y="602"/>
			<point x="406" y="630" type="curve" smooth="yes"/>
			<point x="406" y="637"/>
			<point x="404" y="644"/>
			<point x="402" y="649" type="curve" smooth="yes"/>
			<point x="393" y="672"/>
			<point x="372" y="690"/>
			<point x="346" y="690" type="curve" smooth="yes"/>
			<point x="336" y="690"/>
			<point x="327" y="687"/>
			<point x="320" y="683" type="curve" smooth="yes"/>
			<point x="301" y="673"/>
			<point x="287" y="654"/>
			<point x="287" y="632" type="curve" smooth="yes"/>
			<point x="287" y="603"/>
		</contour>
	</outline>
</glyph>
<glyph name="amacron" format="2">
	<advance width="545"/>
	<unicode hex="0101"/>
	<note>
		amacron
	</note>
	<outline>
		<contour>
			<point x="170" y="600" type="curve" smooth="yes"/>
			<point x="373" y="600" type="line" smooth="yes"/>
			<point x="390" y="600"/>
			<point x="405" y="614"/>
			<point x="405" y="632" type="curve" smooth="yes"/>
			<point x="405" y="649"/>
			<point x="390" y="663"/>
			<point x="373" y="663" type="curve" smooth="yes"/>
			<point x="170" y="663" type="line" smooth="yes"/>
			<point x="153" y="663"/>
			<point x="139" y="649"/>
			<point x="139" y="632" type="curve" smooth="yes"/>
			<point x="139" y="614"/>
			<point x="153" y="600"/>
		</contour>
		<contour>
			<point x="365" y="77" type="line"/>
			<point x="370" y="42" type="line" smooth="yes"/>
			<point x="373" y="16"/>
			<point x="396" y="-6"/>
			<point x="423" y="-6" type="curve" smooth="yes"/>
			<point x="455" y="-6"/>
			<point x="481" y="23"/>
			<point x="478" y="54" type="curve" smooth="yes"/>
			<point x="475" y="85"/>
			<point x="474" y="109"/>
			<point x="474" y="135" type="curve" smooth="yes"/>
			<point x="474" y="322" type="line" smooth="yes"/>
			<point x="474" y="347"/>
			<point x="473" y="375"/>
			<point x="471" y="397" type="curve" smooth="yes"/>
			<point x="462" y="487"/>
			<point x="408" y="545"/>
			<point x="271" y="545" type="curve" smooth="yes"/>
			<point x="177" y="545"/>
			<point x="104" y="505"/>
			<point x="72" y="431" type="curve" smooth="yes"/>
			<point x="69" y="424"/>
			<point x="68" y="418"/>
			<point x="68" y="410" type="curve" smooth="yes"/>
			<point x="68" y="381"/>
			<point x="92" y="357"/>
			<point x="122" y="357" type="curve" smooth="yes"/>
			<point x="146" y="357"/>
			<point x="167" y="373"/>
			<point x="173" y="395" type="curve" smooth="yes"/>
			<point x="186" y="442"/>
			<point x="218" y="465"/>
			<point x="269" y="465" type="curve" smooth="yes"/>
			<point x="332" y="465"/>
			<point x="359" y="435"/>
			<point x="362" y="392" type="curve" smooth="yes"/>
			<point x="364" y="372"/>
			<point x="364" y="354"/>
			<point x="364" y="334" type="curve" smooth="yes"/>
			<point x="364" y="321" type="line"/>
			<point x="330" y="321" type="line" smooth="yes"/>
			<point x="129" y="321"/>
			<point x="35" y="257"/>
			<point x="35" y="139" type="curve" smooth="yes"/>
			<point x="35" y="40"/>
			<point x="112" y="-14"/>
			<point x="206" y="-14" type="curve" smooth="yes"/>
			<point x="241" y="-14"/>
			<point x="274" y="-10"/>
			<point x="304" y="2" type="curve" smooth="yes"/>
			<point x="330" y="12"/>
			<point x="343" y="29"/>
			<point x="355" y="55" type="curve" smooth="yes"/>
		</contour>
		<contour>
			<point x="246" y="66" type="curve" smooth="yes"/>
			<point x="188" y="66"/>
			<point x="151" y="92"/>
			<point x="151" y="148" type="curve" smooth="yes"/>
			<point x="151" y="229"/>
			<point x="235" y="258"/>
			<point x="364" y="248" type="curve"/>
			<point x="364" y="199" type="line" smooth="yes"/>
			<point x="364" y="113"/>
			<point x="315" y="66"/>
		</contour>
	</outline>
</glyph>
<glyph name="cdotaccent" format="2">
	<advance width="544"/>
	<unicode hex="010B"/>
	<note>
		cdotaccent
	</note>
	<outline>
		<contour>
			<point x="275" y="716" type="curve" smooth="yes"/>
			<point x="238" y="716"/>
			<point x="211" y="689"/>
			<point x="211" y="653" type="curve" smooth="yes"/>
			<point x="211" y="616"/>
			<point x="238" y="589"/>
			<point x="275" y="589" type="curve" smooth="yes"/>
			<point x="312" y="589"/>
			<point x="340" y="616"/>
			<point x="340" y="653" type="curve" smooth="yes"/>
			<point x="340" y="689"/>
			<point x="312" y="716"/>
		</contour>
		<contour>
			<point x="286" y="545" type="curve" smooth="yes"/>
			<point x="147" y="545"/>
			<point x="29" y="444"/>
			<point x="29" y="263" type="curve" smooth="yes"/>
			<point x="29" y="74"/>
			<point x="134" y="-14"/>
			<point x="273" y="-14" type="curve" smooth="yes"/>
			<point x="371" y="-14"/>
			<point x="449" y="25"/>
			<point x="490" y="105" type="curve" smooth="yes"/>
			<point x="494" y="113"/>
			<point x="495" y="120"/>
			<point x="495" y="129" type="curve" smooth="yes"/>
			<point x="495" y="158"/>
			<point x="472" y="182"/>
			<point x="442" y="182" type="curve" smooth="yes"/>
			<point x="420" y="182"/>
			<point x="400" y="168"/>
			<point x="393" y="148" type="curve" smooth="yes"/>
			<point x="372" y="93"/>
			<point x="332" y="66"/>
			<point x="279" y="66" type="curve" smooth="yes"/>
			<point x="205" y="66"/>
			<point x="145" y="127"/>
			<point x="145" y="271" type="curve" smooth="yes"/>
			<point x="145" y="404"/>
			<point x="206" y="465"/>
			<point x="283" y="465" type="curve" smooth="yes"/>
			<point x="338" y="465"/>
			<point x="377" y="439"/>
			<point x="398" y="378" type="curve" smooth="yes"/>
			<point x="405" y="356"/>
			<point x="425" y="341"/>
			<point x="449" y="341" type="curve" smooth="yes"/>
			<point x="479" y="341"/>
			<point x="503" y="365"/>
			<point x="503" y="395" type="curve" smooth="yes"/>
			<point x="503" y="403"/>
			<point x="502" y="411"/>
			<point x="499" y="417" type="curve" smooth="yes"/>
			<point x="465" y="496"/>
			<point x="390" y="545"/>
		</contour>
	</outline>
</glyph>
<glyph name="Dcaron" format="2">
	<advance width="719"/>
	<unicode hex="010E"/>
	<note>
		Dcaron
	</note>
	<outline>
		<contour>
			<point x="327" y="736"/>
			<point x="355" y="736" type="curve" smooth="yes"/>
			<point x="378" y="736" type="line" smooth="yes"/>
			<point x="421" y="736"/>
			<point x="457" y="771"/>
			<point x="459" y="813" type="curve" smooth="yes"/>
			<point x="459" y="830"/>
			<point x="445" y="844"/>
			<point x="428" y="844" type="curve" smooth="yes"/>
			<point x="416" y="844"/>
			<point x="405" y="837"/>
			<point x="400" y="827" type="curve" smooth="yes"/>
			<point x="375" y="777" type="line"/>
			<point x="360" y="808" type="line" smooth="yes"/>
			<point x="350" y="828"/>
			<point x="309" y="833"/>
			<point x="303" y="794" type="curve" smooth="yes"/>
			<point x="303" y="792"/>
			<point x="303" y="789"/>
			<point x="303" y="787" type="curve" smooth="yes"/>
			<point x="303" y="758"/>
		</contour>
		<contour>
			<point x="406" y="686" type="curve" smooth="yes"/>
			<point x="371" y="690"/>
			<point x="355" y="690"/>
			<point x="318" y="690" type="curve" smooth="yes"/>
			<point x="153" y="690" type="line" smooth="yes"/>
			<point x="116" y="690"/>
			<point x="95" y="669"/>
			<point x="95" y="632" type="curve" smooth="yes"/>
			<point x="95" y="58" type="line" smooth="yes"/>
			<point x="95" y="21"/>
			<point x="116" y="0"/>
			<point x="153" y="0" type="curve" smooth="yes"/>
			<point x="314" y="0" type="line" smooth="yes"/>
			<point x="351" y="0"/>
			<point x="367" y="0"/>
			<point x="402" y="4" type="curve" smooth="yes"/>
			<point x="562" y="24"/>
			<point x="684" y="147"/>
			<point x="684" y="353" type="curve" smooth="yes"/>
			<point x="684" y="562"/>
			<point x="566" y="667"/>
		</contour>
		<contour>
			<point x="383" y="92" type="curve" smooth="yes"/>
			<point x="361" y="88"/>
			<point x="338" y="88"/>
			<point x="304" y="88" type="curve" smooth="yes"/>
			<point x="205" y="88" type="line"/>
			<point x="205" y="603" type="line"/>
			<point x="308" y="603" type="line" smooth="yes"/>
			<point x="341" y="603"/>
			<point x="365" y="602"/>
			<point x="387" y="598" type="curve" smooth="yes"/>
			<point x="497" y="582"/>
			<point x="566" y="498"/>
			<point x="566" y="353" type="curve" smooth="yes"/>
			<point x="566" y="200"/>
			<point x="494" y="108"/>
		</contour>
	</outline>
</glyph>
<glyph name="dcaron" format="2">
	<advance width="629"/>
	<unicode hex="010F"/>
	<note>
		dcaron
	</note>
	<outline>
		<contour>
			<point x="703" y="743" type="curve" smooth="yes"/>
			<point x="695" y="747"/>
			<point x="686" y="750"/>
			<point x="676" y="750" type="curve" smooth="yes"/>
			<point x="653" y="750"/>
			<point x="641" y="732"/>
			<point x="633" y="712" type="curve" smooth="yes"/>
			<point x="598" y="623" type="line"/>
			<point x="597" y="619"/>
			<point x="595" y="615"/>
			<point x="595" y="611" type="curve" smooth="yes"/>
			<point x="595" y="592"/>
			<point x="610" y="577"/>
			<point x="629" y="577" type="curve" smooth="yes"/>
			<point x="642" y="577"/>
			<point x="653" y="585"/>
			<point x="658" y="596" type="curve" smooth="yes"/>
			<point x="700" y="678" type="line" smooth="yes"/>
			<point x="716" y="709"/>
			<point x="719" y="733"/>
		</contour>
		<contour>
			<point x="447" y="716"/>
			<point x="447" y="686" type="curve" smooth="yes"/>
			<point x="447" y="459" type="line"/>
			<point x="430" y="486" type="line" smooth="yes"/>
			<point x="417" y="506"/>
			<point x="405" y="519"/>
			<point x="380" y="529" type="curve" smooth="yes"/>
			<point x="352" y="539"/>
			<point x="316" y="545"/>
			<point x="286" y="545" type="curve" smooth="yes"/>
			<point x="149" y="545"/>
			<point x="29" y="451"/>
			<point x="29" y="257" type="curve" smooth="yes"/>
			<point x="29" y="101"/>
			<point x="116" y="-14"/>
			<point x="268" y="-14" type="curve" smooth="yes"/>
			<point x="307" y="-14"/>
			<point x="346" y="-6"/>
			<point x="376" y="8" type="curve" smooth="yes"/>
			<point x="400" y="19"/>
			<point x="413" y="34"/>
			<point x="428" y="56" type="curve" smooth="yes"/>
			<point x="447" y="84" type="line"/>
			<point x="447" y="50" type="line" smooth="yes"/>
			<point x="447" y="20"/>
			<point x="472" y="-6"/>
			<point x="502" y="-6" type="curve" smooth="yes"/>
			<point x="532" y="-6"/>
			<point x="557" y="20"/>
			<point x="557" y="50" type="curve" smooth="yes"/>
			<point x="557" y="686" type="line" smooth="yes"/>
			<point x="557" y="716"/>
			<point x="532" y="741"/>
			<point x="502" y="741" type="curve" smooth="yes"/>
			<point x="472" y="741"/>
		</contour>
		<contour>
			<point x="293" y="66" type="curve" smooth="yes"/>
			<point x="198" y="66"/>
			<point x="145" y="151"/>
			<point x="145" y="266" type="curve" smooth="yes"/>
			<point x="145" y="398"/>
			<point x="211" y="465"/>
			<point x="298" y="465" type="curve" smooth="yes"/>
			<point x="369" y="465"/>
			<point x="447" y="417"/>
			<point x="447" y="288" type="curve" smooth="yes"/>
			<point x="447" y="260" type="line" smooth="yes"/>
			<point x="447" y="118"/>
			<point x="376" y="66"/>
		</contour>
	</outline>
</glyph>
<glyph name="Emacron" format="2">
	<advance width="600"/>
	<unicode hex="0112"/>
	<note>
		Emacron
	</note>
	<outline>
		<contour>
			<point x="236" y="758" type="curve" smooth="yes"/>
			<point x="439" y="758" type="line" smooth="yes"/>
			<point x="456" y="758"/>
			<point x="471" y="772"/>
			<point x="471" y="790" type="curve" smooth="yes"/>
			<point x="471" y="807"/>
			<point x="456" y="821"/>
			<point x="439" y="821" type="curve" smooth="yes"/>
			<point x="236" y="821" type="line" smooth="yes"/>
			<point x="219" y="821"/>
			<point x="205" y="807"/>
			<point x="205" y="790" type="curve" smooth="yes"/>
			<point x="205" y="772"/>
			<point x="219" y="758"/>
		</contour>
		<contour>
			<point x="558" y="88"/>
			<point x="534" y="88" type="curve" smooth="yes"/>
			<point x="205" y="88" type="line"/>
			<point x="205" y="302" type="line"/>
			<point x="496" y="302" type="line" smooth="yes"/>
			<point x="520" y="302"/>
			<point x="540" y="321"/>
			<point x="540" y="346" type="curve" smooth="yes"/>
			<point x="540" y="370"/>
			<point x="520" y="389"/>
			<point x="496" y="389" type="curve" smooth="yes"/>
			<point x="205" y="389" type="line"/>
			<point x="205" y="603" type="line"/>
			<point x="524" y="603" type="line" smooth="yes"/>
			<point x="548" y="603"/>
			<point x="568" y="622"/>
			<point x="568" y="647" type="curve" smooth="yes"/>
			<point x="568" y="671"/>
			<point x="548" y="690"/>
			<point x="524" y="690" type="curve" smooth="yes"/>
			<point x="153" y="690" type="line" smooth="yes"/>
			<point x="116" y="690"/>
			<point x="95" y="669"/>
			<point x="95" y="632" type="curve" smooth="yes"/>
			<point x="95" y="58" type="line" smooth="yes"/>
			<point x="95" y="21"/>
			<point x="116" y="0"/>
			<point x="153" y="0" type="curve" smooth="yes"/>
			<point x="534" y="0" type="line" smooth="yes"/>
			<point x="558" y="0"/>
			<point x="578" y="20"/>
			<point x="578" y="44" type="curve" smooth="yes"/>
			<point x="578" y="68"/>
		</contour>
	</outline>
</glyph>
<glyph name="emacron" format="2">
	<advance width="562"/>
	<unicode hex="0113"/>
	<note>
		emacron
	</note>
	<outline>
		<contour>
			<point x="182" y="600" type="curve" smooth="yes"/>
			<point x="385" y="600" type="line" smooth="yes"/>
			<point x="402" y="600"/>
			<point x="417" y="614"/>
			<point x="417" y="632" type="curve" smooth="yes"/>
			<point x="417" y="649"/>
			<point x="402" y="663"/>
			<point x="385" y="663" type="curve" smooth="yes"/>
			<point x="182" y="663" type="line" smooth="yes"/>
			<point x="165" y="663"/>
			<point x="151" y="649"/>
			<point x="151" y="632" type="curve" smooth="yes"/>
			<point x="151" y="614"/>
			<point x="165" y="600"/>
		</contour>
		<contour>
			<point x="526" y="279" type="curve" smooth="yes"/>
			<point x="526" y="429"/>
			<point x="443" y="545"/>
			<point x="289" y="545" type="curve" smooth="yes"/>
			<point x="136" y="545"/>
			<point x="29" y="432"/>
			<point x="29" y="264" type="curve" smooth="yes"/>
			<point x="29" y="76"/>
			<point x="136" y="-14"/>
			<point x="278" y="-14" type="curve" smooth="yes"/>
			<point x="369" y="-14"/>
			<point x="450" y="23"/>
			<point x="493" y="102" type="curve" smooth="yes"/>
			<point x="497" y="110"/>
			<point x="499" y="117"/>
			<point x="499" y="126" type="curve" smooth="yes"/>
			<point x="499" y="155"/>
			<point x="475" y="178"/>
			<point x="447" y="178" type="curve" smooth="yes"/>
			<point x="425" y="178"/>
			<point x="406" y="164"/>
			<point x="399" y="144" type="curve" smooth="yes"/>
			<point x="379" y="93"/>
			<point x="335" y="66"/>
			<point x="282" y="66" type="curve" smooth="yes"/>
			<point x="210" y="66"/>
			<point x="152" y="108"/>
			<point x="143" y="235" type="curve"/>
			<point x="467" y="235" type="line" smooth="yes"/>
			<point x="504" y="235"/>
			<point x="526" y="279"/>
		</contour>
		<contour>
			<point x="285" y="465" type="curve" smooth="yes"/>
			<point x="362" y="465"/>
			<point x="405" y="410"/>
			<point x="413" y="312" type="curve"/>
			<point x="144" y="312" type="line"/>
			<point x="156" y="414"/>
			<point x="210" y="465"/>
		</contour>
	</outline>
</glyph>
<glyph name="Edotaccent" format="2">
	<advance width="600"/>
	<unicode hex="0116"/>
	<note>
		Edotaccent
	</note>
	<outline>
		<contour>
			<point x="337" y="734" type="curve" smooth="yes"/>
			<point x="370" y="734"/>
			<point x="395" y="758"/>
			<point x="395" y="791" type="curve" smooth="yes"/>
			<point x="395" y="823"/>
			<point x="370" y="847"/>
			<point x="337" y="847" type="curve" smooth="yes"/>
			<point x="304" y="847"/>
			<point x="279" y="823"/>
			<point x="279" y="791" type="curve" smooth="yes"/>
			<point x="279" y="758"/>
			<point x="304" y="734"/>
		</contour>
		<contour>
			<point x="558" y="88"/>
			<point x="534" y="88" type="curve" smooth="yes"/>
			<point x="205" y="88" type="line"/>
			<point x="205" y="302" type="line"/>
			<point x="496" y="302" type="line" smooth="yes"/>
			<point x="520" y="302"/>
			<point x="540" y="321"/>
			<point x="540" y="346" type="curve" smooth="yes"/>
			<point x="540" y="370"/>
			<point x="520" y="389"/>
			<point x="496" y="389" type="curve" smooth="yes"/>
			<point x="205" y="389" type="line"/>
			<point x="205" y="603" type="line"/>
			<point x="524" y="603" type="line" smooth="yes"/>
			<point x="548" y="603"/>
			<point x="568" y="622"/>
			<point x="568" y="647" type="curve" smooth="yes"/>
			<point x="568" y="671"/>
			<point x="548" y="690"/>
			<point x="524" y="690" type="curve" smooth="yes"/>
			<point x="153" y="690" type="line" smooth="yes"/>
			<point x="116" y="690"/>
			<point x="95" y="669"/>
			<point x="95" y="632" type="curve" smooth="yes"/>
			<point x="95" y="58" type="line" smooth="yes"/>
			<point x="95" y="21"/>
			<point x="116" y="0"/>
			<point x="153" y="0" type="curve" smooth="yes"/>
			<point x="534" y="0" type="line" smooth="yes"/>
			<point x="558" y="0"/>
			<point x="578" y="20"/>
			<point x="578" y="44" type="curve" smooth="yes"/>
			<point x="578" y="68"/>
		</contour>
	</outline>
</glyph>
<glyph name="eogonek" format="2">
	<advance width="562"/>
	<unicode hex="0119"/>
	<note>
		eogonek
	</note>
	<outline>
		<contour>
			<point x="526" y="279" type="curve" smooth="yes"/>
			<point x="526" y="429"/>
			<point x="443" y="545"/>
			<point x="289" y="545" type="curve" smooth="yes"/>
			<point x="136" y="545"/>
			<point x="29" y="432"/>
			<point x="29" y="264" type="curve" smooth="yes"/>
			<point x="29" y="88"/>
			<point x="123" y="-2"/>
			<point x="252" y="-13" type="curve"/>
			<point x="215" y="-41"/>
			<point x="186" y="-84"/>
			<point x="186" y="-138" type="curve" smooth="yes"/>
			<point x="186" y="-201"/>
			<point x="226" y="-223"/>
			<point x="284" y="-223" type="curve" smooth="yes"/>
			<point x="319" y="-223"/>
			<point x="349" y="-215"/>
			<point x="377" y="-200" type="curve" smooth="yes"/>
			<point x="385" y="-195"/>
			<point x="391" y="-187"/>
			<point x="391" y="-177" type="curve" smooth="yes"/>
			<point x="391" y="-160"/>
			<point x="373" y="-148"/>
			<point x="357" y="-153" type="curve" smooth="yes"/>
			<point x="348" y="-156"/>
			<point x="340" y="-157"/>
			<point x="332" y="-157" type="curve" smooth="yes"/>
			<point x="305" y="-157"/>
			<point x="288" y="-144"/>
			<point x="288" y="-107" type="curve" smooth="yes"/>
			<point x="288" y="-58"/>
			<point x="316" y="-20"/>
			<point x="351" y="-5" type="curve"/>
			<point x="357" y="-4"/>
			<point x="363" y="-2"/>
			<point x="370" y="0" type="curve" smooth="yes"/>
			<point x="422" y="17"/>
			<point x="466" y="50"/>
			<point x="493" y="102" type="curve" smooth="yes"/>
			<point x="497" y="110"/>
			<point x="499" y="117"/>
			<point x="499" y="126" type="curve" smooth="yes"/>
			<point x="499" y="155"/>
			<point x="476" y="178"/>
			<point x="447" y="178" type="curve" smooth="yes"/>
			<point x="425" y="178"/>
			<point x="405" y="164"/>
			<point x="398" y="144" type="curve" smooth="yes"/>
			<point x="379" y="93"/>
			<point x="335" y="66"/>
			<point x="282" y="66" type="curve" smooth="yes"/>
			<point x="210" y="66"/>
			<point x="152" y="108"/>
			<point x="143" y="235" type="curve"/>
			<point x="467" y="235" type="line" smooth="yes"/>
			<point x="504" y="235"/>
			<point x="526" y="279"/>
		</contour>
		<contour>
			<point x="285" y="465" type="curve" smooth="yes"/>
			<point x="362" y="465"/>
			<point x="405" y="410"/>
			<point x="413" y="312" type="curve"/>
			<point x="144" y="312" type="line"/>
			<point x="156" y="414"/>
			<point x="210" y="465"/>
		</contour>
	</outline>
</glyph>
<glyph name="Ecaron" format="2">
	<advance width="600"/>
	<unicode hex="011A"/>
	<note>
		Ecaron
	</note>
	<outline>
		<contour>
			<point x="290" y="736"/>
			<point x="318" y="736" type="curve" smooth="yes"/>
			<point x="341" y="736" type="line" smooth="yes"/>
			<point x="384" y="736"/>
			<point x="420" y="771"/>
			<point x="422" y="813" type="curve" smooth="yes"/>
			<point x="422" y="830"/>
			<point x="408" y="844"/>
			<point x="391" y="844" type="curve" smooth="yes"/>
			<point x="379" y="844"/>
			<point x="368" y="837"/>
			<point x="363" y="827" type="curve" smooth="yes"/>
			<point x="338" y="777" type="line"/>
			<point x="323" y="808" type="line" smooth="yes"/>
			<point x="313" y="828"/>
			<point x="272" y="833"/>
			<point x="266" y="794" type="curve" smooth="yes"/>
			<point x="266" y="792"/>
			<point x="266" y="789"/>
			<point x="266" y="787" type="curve" smooth="yes"/>
			<point x="266" y="758"/>
		</contour>
		<contour>
			<point x="558" y="88"/>
			<point x="534" y="88" type="curve" smooth="yes"/>
			<point x="205" y="88" type="line"/>
			<point x="205" y="302" type="line"/>
			<point x="496" y="302" type="line" smooth="yes"/>
			<point x="520" y="302"/>
			<point x="540" y="321"/>
			<point x="540" y="346" type="curve" smooth="yes"/>
			<point x="540" y="370"/>
			<point x="520" y="389"/>
			<point x="496" y="389" type="curve" smooth="yes"/>
			<point x="205" y="389" type="line"/>
			<point x="205" y="603" type="line"/>
			<point x="524" y="603" type="line" smooth="yes"/>
			<point x="548" y="603"/>
			<point x="568" y="622"/>
			<point x="568" y="647" type="curve" smooth="yes"/>
			<point x="568" y="671"/>
			<point x="548" y="690"/>
			<point x="524" y="690" type="curve" smooth="yes"/>
			<point x="153" y="690" type="line" smooth="yes"/>
			<point x="116" y="690"/>
			<point x="95" y="669"/>
			<point x="95" y="632" type="curve" smooth="yes"/>
			<point x="95" y="58" type="line" smooth="yes"/>
			<point x="95" y="21"/>
			<point x="116" y="0"/>
			<point x="153" y="0" type="curve" smooth="yes"/>
			<point x="534" y="0" type="line" smooth="yes"/>
			<point x="558" y="0"/>
			<point x="578" y="20"/>
			<point x="578" y="44" type="curve" smooth="yes"/>
			<point x="578" y="68"/>
		</contour>
	</outline>
</glyph>
<glyph name="ecaron" format="2">
	<advance width="562"/>
	<unicode hex="011B"/>
	<note>
		ecaron
	</note>
	<outline>
		<contour>
			<point x="201" y="650" type="curve" smooth="yes"/>
			<point x="220" y="618" type="line" smooth="yes"/>
			<point x="236" y="591"/>
			<point x="255" y="578"/>
			<point x="280" y="578" type="curve" smooth="yes"/>
			<point x="326" y="578"/>
			<point x="366" y="613"/>
			<point x="369" y="659" type="curve"/>
			<point x="370" y="661"/>
			<point x="370" y="664"/>
			<point x="370" y="666" type="curve" smooth="yes"/>
			<point x="370" y="684"/>
			<point x="356" y="698"/>
			<point x="339" y="698" type="curve" smooth="yes"/>
			<point x="327" y="698"/>
			<point x="316" y="691"/>
			<point x="311" y="680" type="curve" smooth="yes"/>
			<point x="284" y="626" type="line"/>
			<point x="257" y="680" type="line" smooth="yes"/>
			<point x="252" y="691"/>
			<point x="241" y="698"/>
			<point x="229" y="698" type="curve" smooth="yes"/>
			<point x="211" y="698"/>
			<point x="197" y="683"/>
			<point x="197" y="666" type="curve" smooth="yes"/>
			<point x="197" y="660"/>
			<point x="198" y="654"/>
		</contour>
		<contour>
			<point x="526" y="279" type="curve" smooth="yes"/>
			<point x="526" y="429"/>
			<point x="443" y="545"/>
			<point x="289" y="545" type="curve" smooth="yes"/>
			<point x="136" y="545"/>
			<point x="29" y="432"/>
			<point x="29" y="264" type="curve" smooth="yes"/>
			<point x="29" y="76"/>
			<point x="136" y="-14"/>
			<point x="278" y="-14" type="curve" smooth="yes"/>
			<point x="369" y="-14"/>
			<point x="450" y="23"/>
			<point x="493" y="102" type="curve" smooth="yes"/>
			<point x="497" y="110"/>
			<point x="499" y="117"/>
			<point x="499" y="126" type="curve" smooth="yes"/>
			<point x="499" y="155"/>
			<point x="475" y="178"/>
			<point x="447" y="178" type="curve" smooth="yes"/>
			<point x="425" y="178"/>
			<point x="406" y="164"/>
			<point x="399" y="144" type="curve" smooth="yes"/>
			<point x="379" y="93"/>
			<point x="335" y="66"/>
			<point x="282" y="66" type="curve" smooth="yes"/>
			<point x="210" y="66"/>
			<point x="152" y="108"/>
			<point x="143" y="235" type="curve"/>
			<point x="467" y="235" type="line" smooth="yes"/>
			<point x="504" y="235"/>
			<point x="526" y="279"/>
		</contour>
		<contour>
			<point x="285" y="465" type="curve" smooth="yes"/>
			<point x="362" y="465"/>
			<point x="405" y="410"/>
			<point x="413" y="312" type="curve"/>
			<point x="144" y="312" type="line"/>
			<point x="156" y="414"/>
			<point x="210" y="465"/>
		</contour>
	</outline>
</glyph>
<glyph name="imacron" format="2">
	<advance width="251"/>
	<unicode hex="012B"/>
	<note>
		imacron
	</note>
	<outline>
		<contour>
			<point x="22" y="600" type="curve" smooth="yes"/>
			<point x="226" y="600" type="line" smooth="yes"/>
			<point x="243" y="600"/>
			<point x="258" y="614"/>
			<point x="258" y="632" type="curve" smooth="yes"/>
			<point x="258" y="649"/>
			<point x="243" y="663"/>
			<point x="226" y="663" type="curve" smooth="yes"/>
			<point x="22" y="663" type="line" smooth="yes"/>
			<point x="5" y="663"/>
			<point x="-10" y="649"/>
			<point x="-10" y="632" type="curve" smooth="yes"/>
			<point x="-10" y="614"/>
			<point x="5" y="600"/>
		</contour>
		<contour>
			<point x="179" y="20"/>
			<point x="179" y="50" type="curve" smooth="yes"/>
			<point x="179" y="482" type="line" smooth="yes"/>
			<point x="179" y="512"/>
			<point x="154" y="537"/>
			<point x="124" y="537" type="curve" smooth="yes"/>
			<point x="94" y="537"/>
			<point x="69" y="512"/>
			<point x="69" y="482" type="curve" smooth="yes"/>
			<point x="69" y="50" type="line" smooth="yes"/>
			<point x="69" y="20"/>
			<point x="94" y="-6"/>
			<point x="124" y="-6" type="curve" smooth="yes"/>
			<point x="154" y="-6"/>
		</contour>
	</outline>
</glyph>
<glyph name="Idotaccent" format="2">
	<advance width="304"/>
	<unicode hex="0130"/>
	<outline>
		<contour>
			<point x="205" y="20"/>
			<point x="205" y="50" type="curve" smooth="yes"/>
			<point x="205" y="641" type="line" smooth="yes"/>
			<point x="205" y="671"/>
			<point x="180" y="696"/>
			<point x="150" y="696" type="curve" smooth="yes"/>
			<point x="120" y="696"/>
			<point x="95" y="671"/>
			<point x="95" y="641" type="curve" smooth="yes"/>
			<point x="95" y="50" type="line" smooth="yes"/>
			<point x="95" y="20"/>
			<point x="120" y="-6"/>
			<point x="150" y="-6" type="curve" smooth="yes"/>
			<point x="180" y="-6"/>
		</contour>
		<contour>
			<point x="152" y="734" type="curve" smooth="yes"/>
			<point x="185" y="734"/>
			<point x="210" y="758"/>
			<point x="210" y="791" type="curve" smooth="yes"/>
			<point x="210" y="823"/>
			<point x="185" y="847"/>
			<point x="152" y="847" type="curve" smooth="yes"/>
			<point x="119" y="847"/>
			<point x="94" y="823"/>
			<point x="94" y="791" type="curve" smooth="yes"/>
			<point x="94" y="758"/>
			<point x="119" y="734"/>
		</contour>
	</outline>
</glyph>
<glyph name="uni0136" format="2">
	<advance width="643"/>
	<unicode hex="0136"/>
	<note>
		Kcommaaccent
	</note>
	<outline>
		<contour>
			<point x="568" y="87" type="curve" smooth="yes"/>
			<point x="346" y="356" type="line"/>
			<point x="590" y="619" type="line" smooth="yes"/>
			<point x="624" y="656"/>
			<point x="614" y="690"/>
			<point x="569" y="690" type="curve" smooth="yes"/>
			<point x="539" y="690"/>
			<point x="517" y="681"/>
			<point x="497" y="659" type="curve" smooth="yes"/>
			<point x="205" y="339" type="line"/>
			<point x="205" y="641" type="line" smooth="yes"/>
			<point x="205" y="671"/>
			<point x="180" y="696"/>
			<point x="150" y="696" type="curve" smooth="yes"/>
			<point x="120" y="696"/>
			<point x="95" y="671"/>
			<point x="95" y="641" type="curve" smooth="yes"/>
			<point x="95" y="50" type="line" smooth="yes"/>
			<point x="95" y="20"/>
			<point x="120" y="-6"/>
			<point x="150" y="-6" type="curve" smooth="yes"/>
			<point x="180" y="-6"/>
			<point x="205" y="20"/>
			<point x="205" y="50" type="curve" smooth="yes"/>
			<point x="205" y="222" type="line"/>
			<point x="266" y="288" type="line"/>
			<point x="480" y="16" type="line" smooth="yes"/>
			<point x="490" y="3"/>
			<point x="507" y="-6"/>
			<point x="525" y="-6" type="curve" smooth="yes"/>
			<point x="556" y="-6"/>
			<point x="581" y="20"/>
			<point x="581" y="51" type="curve" smooth="yes"/>
			<point x="581" y="65"/>
			<point x="576" y="78"/>
		</contour>
		<contour>
			<point x="311" y="-52"/>
			<point x="303" y="-72" type="curve" smooth="yes"/>
			<point x="269" y="-160" type="line" smooth="yes"/>
			<point x="268" y="-164"/>
			<point x="266" y="-168"/>
			<point x="266" y="-172" type="curve" smooth="yes"/>
			<point x="266" y="-191"/>
			<point x="281" y="-205"/>
			<point x="300" y="-205" type="curve" smooth="yes"/>
			<point x="313" y="-205"/>
			<point x="324" y="-198"/>
			<point x="329" y="-187" type="curve" smooth="yes"/>
			<point x="371" y="-105" type="line" smooth="yes"/>
			<point x="387" y="-74"/>
			<point x="386" y="-36"/>
			<point x="351" y="-34" type="curve" smooth="yes"/>
			<point x="350" y="-34"/>
			<point x="348" y="-34"/>
			<point x="347" y="-34" type="curve" smooth="yes"/>
			<point x="323" y="-34"/>
		</contour>
	</outline>
</glyph>
<glyph name="uni013B" format="2">
	<advance width="588"/>
	<unicode hex="013B"/>
	<note>
		Lcommaaccent
	</note>
	<outline>
		<contour>
			<point x="557" y="91"/>
			<point x="532" y="91" type="curve" smooth="yes"/>
			<point x="205" y="91" type="line"/>
			<point x="205" y="641" type="line" smooth="yes"/>
			<point x="205" y="671"/>
			<point x="180" y="696"/>
			<point x="150" y="696" type="curve" smooth="yes"/>
			<point x="120" y="696"/>
			<point x="95" y="671"/>
			<point x="95" y="641" type="curve" smooth="yes"/>
			<point x="95" y="58" type="line" smooth="yes"/>
			<point x="95" y="21"/>
			<point x="116" y="0"/>
			<point x="153" y="0" type="curve" smooth="yes"/>
			<point x="532" y="0" type="line" smooth="yes"/>
			<point x="557" y="0"/>
			<point x="578" y="20"/>
			<point x="578" y="46" type="curve" smooth="yes"/>
			<point x="578" y="71"/>
		</contour>
		<contour>
			<point x="301" y="-52"/>
			<point x="293" y="-72" type="curve" smooth="yes"/>
			<point x="259" y="-160" type="line" smooth="yes"/>
			<point x="258" y="-164"/>
			<point x="256" y="-168"/>
			<point x="256" y="-172" type="curve" smooth="yes"/>
			<point x="256" y="-191"/>
			<point x="271" y="-205"/>
			<point x="290" y="-205" type="curve" smooth="yes"/>
			<point x="303" y="-205"/>
			<point x="314" y="-198"/>
			<point x="319" y="-187" type="curve" smooth="yes"/>
			<point x="361" y="-105" type="line" smooth="yes"/>
			<point x="377" y="-74"/>
			<point x="376" y="-36"/>
			<point x="341" y="-34" type="curve" smooth="yes"/>
			<point x="340" y="-34"/>
			<point x="338" y="-34"/>
			<point x="337" y="-34" type="curve" smooth="yes"/>
			<point x="313" y="-34"/>
		</contour>
	</outline>
</glyph>
<glyph name="uni013C" format="2">
	<advance width="262"/>
	<unicode hex="013C"/>
	<note>
		lcommaaccent
	</note>
	<outline>
		<contour>
			<point x="175" y="162" type="curve" smooth="yes"/>
			<point x="175" y="686" type="line" smooth="yes"/>
			<point x="175" y="716"/>
			<point x="150" y="741"/>
			<point x="120" y="741" type="curve" smooth="yes"/>
			<point x="90" y="741"/>
			<point x="65" y="716"/>
			<point x="65" y="686" type="curve" smooth="yes"/>
			<point x="65" y="159" type="line" smooth="yes"/>
			<point x="65" y="127"/>
			<point x="65" y="103"/>
			<point x="66" y="83" type="curve" smooth="yes"/>
			<point x="70" y="15"/>
			<point x="109" y="-6"/>
			<point x="167" y="-6" type="curve" smooth="yes"/>
			<point x="180" y="-6"/>
			<point x="193" y="-5"/>
			<point x="207" y="-4" type="curve" smooth="yes"/>
			<point x="228" y="-2"/>
			<point x="245" y="14"/>
			<point x="245" y="36" type="curve" smooth="yes"/>
			<point x="245" y="56"/>
			<point x="229" y="73"/>
			<point x="209" y="76" type="curve" smooth="yes"/>
			<point x="185" y="79"/>
			<point x="177" y="90"/>
			<point x="176" y="112" type="curve" smooth="yes"/>
			<point x="175" y="128"/>
			<point x="175" y="144"/>
		</contour>
		<contour>
			<point x="115" y="-187" type="curve" smooth="yes"/>
			<point x="157" y="-105" type="line" smooth="yes"/>
			<point x="173" y="-74"/>
			<point x="172" y="-36"/>
			<point x="137" y="-34" type="curve" smooth="yes"/>
			<point x="136" y="-34"/>
			<point x="134" y="-34"/>
			<point x="133" y="-34" type="curve" smooth="yes"/>
			<point x="109" y="-34"/>
			<point x="97" y="-52"/>
			<point x="89" y="-72" type="curve" smooth="yes"/>
			<point x="55" y="-160" type="line" smooth="yes"/>
			<point x="54" y="-164"/>
			<point x="52" y="-168"/>
			<point x="52" y="-172" type="curve" smooth="yes"/>
			<point x="52" y="-191"/>
			<point x="67" y="-206"/>
			<point x="86" y="-206" type="curve" smooth="yes"/>
			<point x="99" y="-206"/>
			<point x="110" y="-198"/>
		</contour>
	</outline>
</glyph>
<glyph name="Lcaron" format="2">
	<advance width="588"/>
	<unicode hex="013D"/>
	<note>
		Lcaron
	</note>
	<outline>
		<contour>
			<point x="557" y="91"/>
			<point x="532" y="91" type="curve" smooth="yes"/>
			<point x="205" y="91" type="line"/>
			<point x="205" y="641" type="line" smooth="yes"/>
			<point x="205" y="671"/>
			<point x="180" y="696"/>
			<point x="150" y="696" type="curve" smooth="yes"/>
			<point x="120" y="696"/>
			<point x="95" y="671"/>
			<point x="95" y="641" type="curve" smooth="yes"/>
			<point x="95" y="58" type="line" smooth="yes"/>
			<point x="95" y="21"/>
			<point x="116" y="0"/>
			<point x="153" y="0" type="curve" smooth="yes"/>
			<point x="532" y="0" type="line" smooth="yes"/>
			<point x="557" y="0"/>
			<point x="578" y="20"/>
			<point x="578" y="46" type="curve" smooth="yes"/>
			<point x="578" y="71"/>
		</contour>
	</outline>
</glyph>
<glyph name="Ldot" format="2">
	<advance width="588"/>
	<unicode hex="013F"/>
	<note>
		Ldot
	</note>
	<outline>
		<contour>
			<point x="557" y="91"/>
			<point x="532" y="91" type="curve" smooth="yes"/>
			<point x="205" y="91" type="line"/>
			<point x="205" y="641" type="line" smooth="yes"/>
			<point x="205" y="671"/>
			<point x="180" y="696"/>
			<point x="150" y="696" type="curve" smooth="yes"/>
			<point x="120" y="696"/>
			<point x="95" y="671"/>
			<point x="95" y="641" type="curve" smooth="yes"/>
			<point x="95" y="58" type="line" smooth="yes"/>
			<point x="95" y="21"/>
			<point x="116" y="0"/>
			<point x="153" y="0" type="curve" smooth="yes"/>
			<point x="532" y="0" type="line" smooth="yes"/>
			<point x="557" y="0"/>
			<point x="578" y="20"/>
			<point x="578" y="46" type="curve" smooth="yes"/>
			<point x="578" y="71"/>
		</contour>
		<contour>
			<point x="407" y="334" type="curve" smooth="yes"/>
			<point x="444" y="334"/>
			<point x="473" y="363"/>
			<point x="473" y="400" type="curve" smooth="yes"/>
			<point x="473" y="438"/>
			<point x="444" y="466"/>
			<point x="407" y="466" type="curve" smooth="yes"/>
			<point x="369" y="466"/>
			<point x="340" y="438"/>
			<point x="340" y="400" type="curve" smooth="yes"/>
			<point x="340" y="363"/>
			<point x="369" y="334"/>
		</contour>
	</outline>
</glyph>
<glyph name="uni0146" format="2">
	<advance width="606"/>
	<unicode hex="0146"/>
	<note>
		ncommaaccent
	</note>
	<outline>
		<contour>
			<point x="538" y="393" type="curve" smooth="yes"/>
			<point x="528" y="486"/>
			<point x="463" y="545"/>
			<point x="349" y="545" type="curve" smooth="yes"/>
			<point x="309" y="545"/>
			<point x="278" y="540"/>
			<point x="246" y="524" type="curve" smooth="yes"/>
			<point x="222" y="511"/>
			<point x="210" y="496"/>
			<point x="196" y="472" type="curve" smooth="yes"/>
			<point x="179" y="443" type="line"/>
			<point x="179" y="482" type="line" smooth="yes"/>
			<point x="179" y="512"/>
			<point x="154" y="537"/>
			<point x="124" y="537" type="curve" smooth="yes"/>
			<point x="94" y="537"/>
			<point x="69" y="512"/>
			<point x="69" y="482" type="curve" smooth="yes"/>
			<point x="69" y="50" type="line" smooth="yes"/>
			<point x="69" y="20"/>
			<point x="94" y="-6"/>
			<point x="124" y="-6" type="curve" smooth="yes"/>
			<point x="154" y="-6"/>
			<point x="179" y="20"/>
			<point x="179" y="50" type="curve" smooth="yes"/>
			<point x="179" y="238" type="line" smooth="yes"/>
			<point x="179" y="404"/>
			<point x="241" y="464"/>
			<point x="317" y="464" type="curve" smooth="yes"/>
			<point x="392" y="464"/>
			<point x="424" y="422"/>
			<point x="429" y="362" type="curve" smooth="yes"/>
			<point x="431" y="335"/>
			<point x="431" y="312"/>
			<point x="431" y="287" type="curve" smooth="yes"/>
			<point x="431" y="50" type="line" smooth="yes"/>
			<point x="431" y="20"/>
			<point x="456" y="-6"/>
			<point x="486" y="-6" type="curve" smooth="yes"/>
			<point x="516" y="-6"/>
			<point x="541" y="20"/>
			<point x="541" y="50" type="curve" smooth="yes"/>
			<point x="541" y="299" type="line" smooth="yes"/>
			<point x="541" y="342"/>
			<point x="540" y="366"/>
		</contour>
		<contour>
			<point x="239" y="-135"/>
			<point x="240" y="-140" type="curve" smooth="yes"/>
			<point x="248" y="-183"/>
			<point x="293" y="-172"/>
			<point x="313" y="-133" type="curve" smooth="yes"/>
			<point x="350" y="-59" type="line"/>
			<point x="350" y="-54" type="line" smooth="yes"/>
			<point x="350" y="-51"/>
			<point x="337" y="-48"/>
			<point x="315" y="-48" type="curve" smooth="yes"/>
			<point x="273" y="-48"/>
			<point x="239" y="-82"/>
			<point x="239" y="-124" type="curve" smooth="yes"/>
			<point x="239" y="-129"/>
		</contour>
	</outline>
</glyph>
<glyph name="eng" format="2">
	<advance width="606"/>
	<unicode hex="014B"/>
	<note>
		eng
	</note>
	<outline>
		<contour>
			<point x="538" y="393" type="curve" smooth="yes"/>
			<point x="528" y="486"/>
			<point x="463" y="545"/>
			<point x="349" y="545" type="curve" smooth="yes"/>
			<point x="309" y="545"/>
			<point x="278" y="540"/>
			<point x="246" y="524" type="curve" smooth="yes"/>
			<point x="222" y="511"/>
			<point x="210" y="496"/>
			<point x="196" y="472" type="curve" smooth="yes"/>
			<point x="179" y="443" type="line"/>
			<point x="179" y="482" type="line" smooth="yes"/>
			<point x="179" y="512"/>
			<point x="154" y="537"/>
			<point x="124" y="537" type="curve" smooth="yes"/>
			<point x="94" y="537"/>
			<point x="69" y="512"/>
			<point x="69" y="482" type="curve" smooth="yes"/>
			<point x="69" y="50" type="line" smooth="yes"/>
			<point x="69" y="20"/>
			<point x="94" y="-6"/>
			<point x="124" y="-6" type="curve" smooth="yes"/>
			<point x="154" y="-6"/>
			<point x="179" y="20"/>
			<point x="179" y="50" type="curve" smooth="yes"/>
			<point x="179" y="238" type="line" smooth="yes"/>
			<point x="179" y="404"/>
			<point x="241" y="464"/>
			<point x="317" y="464" type="curve" smooth="yes"/>
			<point x="392" y="464"/>
			<point x="424" y="422"/>
			<point x="429" y="362" type="curve" smooth="yes"/>
			<point x="431" y="335"/>
			<point x="431" y="312"/>
			<point x="431" y="287" type="curve" smooth="yes"/>
			<point x="431" y="-46" type="line" smooth="yes"/>
			<point x="431" y="-56"/>
			<point x="431" y="-66"/>
			<point x="430" y="-74" type="curve" smooth="yes"/>
			<point x="427" y="-104"/>
			<point x="413" y="-118"/>
			<point x="383" y="-123" type="curve" smooth="yes"/>
			<point x="363" y="-126"/>
			<point x="346" y="-144"/>
			<point x="346" y="-165" type="curve" smooth="yes"/>
			<point x="346" y="-191"/>
			<point x="369" y="-211"/>
			<point x="393" y="-209" type="curve" smooth="yes"/>
			<point x="489" y="-202"/>
			<point x="533" y="-171"/>
			<point x="540" y="-90" type="curve" smooth="yes"/>
			<point x="541" y="-76"/>
			<point x="541" y="-67"/>
			<point x="541" y="-49" type="curve" smooth="yes"/>
			<point x="541" y="299" type="line" smooth="yes"/>
			<point x="541" y="342"/>
			<point x="540" y="366"/>
		</contour>
	</outline>
</glyph>
<glyph name="OE" format="2">
	<advance width="1101"/>
	<unicode hex="0152"/>
	<note>
		OE
	</note>
	<outline>
		<contour>
			<point x="1059" y="88"/>
			<point x="1035" y="88" type="curve" smooth="yes"/>
			<point x="706" y="88" type="line"/>
			<point x="706" y="302" type="line"/>
			<point x="997" y="302" type="line" smooth="yes"/>
			<point x="1021" y="302"/>
			<point x="1041" y="321"/>
			<point x="1041" y="346" type="curve" smooth="yes"/>
			<point x="1041" y="370"/>
			<point x="1021" y="389"/>
			<point x="997" y="389" type="curve" smooth="yes"/>
			<point x="706" y="389" type="line"/>
			<point x="706" y="603" type="line"/>
			<point x="1025" y="603" type="line" smooth="yes"/>
			<point x="1049" y="603"/>
			<point x="1069" y="622"/>
			<point x="1069" y="647" type="curve" smooth="yes"/>
			<point x="1069" y="671"/>
			<point x="1049" y="690"/>
			<point x="1025" y="690" type="curve" smooth="yes"/>
			<point x="654" y="690" type="line" smooth="yes"/>
			<point x="617" y="690"/>
			<point x="596" y="669"/>
			<point x="596" y="632" type="curve" smooth="yes"/>
			<point x="596" y="559" type="line"/>
			<point x="582" y="594" type="line" smooth="yes"/>
			<point x="572" y="619"/>
			<point x="562" y="636"/>
			<point x="541" y="653" type="curve" smooth="yes"/>
			<point x="497" y="690"/>
			<point x="445" y="704"/>
			<point x="364" y="704" type="curve" smooth="yes"/>
			<point x="170" y="704"/>
			<point x="49" y="551"/>
			<point x="49" y="345" type="curve" smooth="yes"/>
			<point x="49" y="140"/>
			<point x="170" y="-14"/>
			<point x="364" y="-14" type="curve" smooth="yes"/>
			<point x="438" y="-14"/>
			<point x="494" y="0"/>
			<point x="540" y="35" type="curve" smooth="yes"/>
			<point x="562" y="52"/>
			<point x="572" y="69"/>
			<point x="582" y="94" type="curve" smooth="yes"/>
			<point x="596" y="129" type="line"/>
			<point x="596" y="58" type="line" smooth="yes"/>
			<point x="596" y="21"/>
			<point x="617" y="0"/>
			<point x="654" y="0" type="curve" smooth="yes"/>
			<point x="1035" y="0" type="line" smooth="yes"/>
			<point x="1059" y="0"/>
			<point x="1079" y="20"/>
			<point x="1079" y="44" type="curve" smooth="yes"/>
			<point x="1079" y="68"/>
		</contour>
		<contour>
			<point x="382" y="70" type="curve" smooth="yes"/>
			<point x="247" y="70"/>
			<point x="167" y="180"/>
			<point x="167" y="345" type="curve" smooth="yes"/>
			<point x="167" y="512"/>
			<point x="247" y="620"/>
			<point x="382" y="620" type="curve" smooth="yes"/>
			<point x="516" y="620"/>
			<point x="596" y="512"/>
			<point x="596" y="345" type="curve" smooth="yes"/>
			<point x="596" y="180"/>
			<point x="516" y="70"/>
		</contour>
	</outline>
</glyph>
<glyph name="Scedilla" format="2">
	<advance width="595"/>
	<unicode hex="015E"/>
	<note>
		Scedilla
	</note>
	<outline>
		<contour>
			<point x="566" y="187" type="curve" smooth="yes"/>
			<point x="566" y="302"/>
			<point x="494" y="367"/>
			<point x="342" y="402" type="curve" smooth="yes"/>
			<point x="235" y="427"/>
			<point x="194" y="458"/>
			<point x="194" y="525" type="curve" smooth="yes"/>
			<point x="194" y="590"/>
			<point x="245" y="620"/>
			<point x="310" y="620" type="curve" smooth="yes"/>
			<point x="377" y="620"/>
			<point x="420" y="587"/>
			<point x="437" y="528" type="curve" smooth="yes"/>
			<point x="443" y="506"/>
			<point x="464" y="488"/>
			<point x="489" y="488" type="curve" smooth="yes"/>
			<point x="520" y="488"/>
			<point x="544" y="513"/>
			<point x="544" y="543" type="curve" smooth="yes"/>
			<point x="544" y="550"/>
			<point x="543" y="556"/>
			<point x="541" y="562" type="curve" smooth="yes"/>
			<point x="509" y="648"/>
			<point x="437" y="704"/>
			<point x="316" y="704" type="curve" smooth="yes"/>
			<point x="187" y="704"/>
			<point x="78" y="629"/>
			<point x="78" y="507" type="curve" smooth="yes"/>
			<point x="78" y="387"/>
			<point x="165" y="338"/>
			<point x="296" y="307" type="curve" smooth="yes"/>
			<point x="408" y="281"/>
			<point x="450" y="244"/>
			<point x="450" y="172" type="curve" smooth="yes"/>
			<point x="450" y="109"/>
			<point x="393" y="70"/>
			<point x="321" y="70" type="curve" smooth="yes"/>
			<point x="252" y="70"/>
			<point x="198" y="103"/>
			<point x="172" y="169" type="curve" smooth="yes"/>
			<point x="164" y="191"/>
			<point x="143" y="206"/>
			<point x="119" y="206" type="curve" smooth="yes"/>
			<point x="88" y="206"/>
			<point x="62" y="180"/>
			<point x="62" y="149" type="curve" smooth="yes"/>
			<point x="62" y="141"/>
			<point x="64" y="133"/>
			<point x="66" y="127" type="curve" smooth="yes"/>
			<point x="99" y="46"/>
			<point x="171" y="0"/>
			<point x="271" y="-11" type="curve"/>
			<point x="253" y="-46" type="line" smooth="yes"/>
			<point x="242" y="-68"/>
			<point x="261" y="-73"/>
			<point x="302" y="-85" type="curve" smooth="yes"/>
			<point x="322" y="-92"/>
			<point x="331" y="-104"/>
			<point x="331" y="-122" type="curve" smooth="yes"/>
			<point x="331" y="-146"/>
			<point x="311" y="-161"/>
			<point x="269" y="-161" type="curve" smooth="yes"/>
			<point x="259" y="-161"/>
			<point x="249" y="-160"/>
			<point x="238" y="-159" type="curve" smooth="yes"/>
			<point x="223" y="-156"/>
			<point x="209" y="-168"/>
			<point x="209" y="-183" type="curve" smooth="yes"/>
			<point x="209" y="-195"/>
			<point x="219" y="-205"/>
			<point x="230" y="-207" type="curve" smooth="yes"/>
			<point x="242" y="-209"/>
			<point x="254" y="-210"/>
			<point x="267" y="-210" type="curve" smooth="yes"/>
			<point x="345" y="-210"/>
			<point x="401" y="-181"/>
			<point x="401" y="-122" type="curve" smooth="yes"/>
			<point x="401" y="-76"/>
			<point x="372" y="-48"/>
			<point x="317" y="-41" type="curve"/>
			<point x="331" y="-14" type="line"/>
			<point x="460" y="-10"/>
			<point x="566" y="65"/>
		</contour>
	</outline>
</glyph>
<glyph name="scaron" format="2">
	<advance width="476"/>
	<unicode hex="0161"/>
	<note>
		scaron
	</note>
	<outline>
		<contour>
			<point x="287" y="585"/>
			<point x="298" y="605" type="curve" smooth="yes"/>
			<point x="324" y="651" type="line" smooth="yes"/>
			<point x="326" y="655"/>
			<point x="328" y="661"/>
			<point x="328" y="666" type="curve" smooth="yes"/>
			<point x="328" y="683"/>
			<point x="314" y="697"/>
			<point x="297" y="697" type="curve" smooth="yes"/>
			<point x="285" y="697"/>
			<point x="274" y="691"/>
			<point x="269" y="680" type="curve" smooth="yes"/>
			<point x="242" y="626" type="line"/>
			<point x="226" y="659" type="line" smooth="yes"/>
			<point x="216" y="679"/>
			<point x="174" y="685"/>
			<point x="168" y="645" type="curve" smooth="yes"/>
			<point x="167" y="642"/>
			<point x="167" y="639"/>
			<point x="167" y="636" type="curve" smooth="yes"/>
			<point x="167" y="619"/>
			<point x="176" y="605"/>
			<point x="187" y="595" type="curve" smooth="yes"/>
			<point x="202" y="582"/>
			<point x="221" y="572"/>
			<point x="241" y="572" type="curve" smooth="yes"/>
			<point x="265" y="572"/>
		</contour>
		<contour>
			<point x="273" y="310" type="curve" smooth="yes"/>
			<point x="194" y="331"/>
			<point x="155" y="351"/>
			<point x="155" y="399" type="curve" smooth="yes"/>
			<point x="155" y="439"/>
			<point x="180" y="468"/>
			<point x="232" y="468" type="curve" smooth="yes"/>
			<point x="275" y="468"/>
			<point x="305" y="447"/>
			<point x="321" y="407" type="curve" smooth="yes"/>
			<point x="329" y="388"/>
			<point x="348" y="373"/>
			<point x="370" y="373" type="curve" smooth="yes"/>
			<point x="400" y="373"/>
			<point x="424" y="397"/>
			<point x="424" y="427" type="curve" smooth="yes"/>
			<point x="424" y="436"/>
			<point x="422" y="446"/>
			<point x="418" y="453" type="curve" smooth="yes"/>
			<point x="387" y="510"/>
			<point x="327" y="545"/>
			<point x="240" y="545" type="curve" smooth="yes"/>
			<point x="122" y="545"/>
			<point x="44" y="485"/>
			<point x="44" y="386" type="curve" smooth="yes"/>
			<point x="44" y="293"/>
			<point x="116" y="252"/>
			<point x="213" y="227" type="curve" smooth="yes"/>
			<point x="303" y="203"/>
			<point x="339" y="178"/>
			<point x="339" y="132" type="curve" smooth="yes"/>
			<point x="339" y="86"/>
			<point x="298" y="64"/>
			<point x="247" y="64" type="curve" smooth="yes"/>
			<point x="201" y="64"/>
			<point x="162" y="83"/>
			<point x="143" y="131" type="curve" smooth="yes"/>
			<point x="135" y="150"/>
			<point x="116" y="165"/>
			<point x="94" y="165" type="curve" smooth="yes"/>
			<point x="64" y="165"/>
			<point x="40" y="141"/>
			<point x="40" y="111" type="curve" smooth="yes"/>
			<point x="40" y="103"/>
			<point x="41" y="95"/>
			<point x="45" y="87" type="curve" smooth="yes"/>
			<point x="81" y="17"/>
			<point x="153" y="-14"/>
			<point x="243" y="-14" type="curve" smooth="yes"/>
			<point x="359" y="-14"/>
			<point x="450" y="37"/>
			<point x="450" y="140" type="curve" smooth="yes"/>
			<point x="450" y="234"/>
			<point x="389" y="280"/>
		</contour>
	</outline>
</glyph>
<glyph name="uni0162" format="2">
	<advance width="617"/>
	<unicode hex="0162"/>
	<note>
		Tcedilla
	</note>
	<outline>
		<contour>
			<point x="335" y="-41" type="curve"/>
			<point x="356" y="0" type="line"/>
			<point x="368" y="0" type="line" smooth="yes"/>
			<point x="375" y="0"/>
			<point x="379" y="21"/>
			<point x="379" y="58" type="curve" smooth="yes"/>
			<point x="379" y="603" type="line"/>
			<point x="582" y="603" type="line" smooth="yes"/>
			<point x="606" y="603"/>
			<point x="626" y="622"/>
			<point x="626" y="647" type="curve" smooth="yes"/>
			<point x="626" y="671"/>
			<point x="606" y="690"/>
			<point x="582" y="690" type="curve" smooth="yes"/>
			<point x="67" y="690" type="line" smooth="yes"/>
			<point x="43" y="690"/>
			<point x="24" y="671"/>
			<point x="24" y="647" type="curve" smooth="yes"/>
			<point x="24" y="622"/>
			<point x="43" y="603"/>
			<point x="67" y="603" type="curve" smooth="yes"/>
			<point x="270" y="603" type="line"/>
			<point x="270" y="58" type="line" smooth="yes"/>
			<point x="270" y="21"/>
			<point x="279" y="0"/>
			<point x="295" y="0" type="curve"/>
			<point x="274" y="-41" type="line" smooth="yes"/>
			<point x="261" y="-67"/>
			<point x="280" y="-73"/>
			<point x="320" y="-85" type="curve" smooth="yes"/>
			<point x="340" y="-92"/>
			<point x="349" y="-104"/>
			<point x="349" y="-122" type="curve" smooth="yes"/>
			<point x="349" y="-146"/>
			<point x="329" y="-161"/>
			<point x="287" y="-161" type="curve" smooth="yes"/>
			<point x="277" y="-161"/>
			<point x="267" y="-160"/>
			<point x="256" y="-159" type="curve" smooth="yes"/>
			<point x="241" y="-156"/>
			<point x="227" y="-168"/>
			<point x="227" y="-183" type="curve" smooth="yes"/>
			<point x="227" y="-195"/>
			<point x="237" y="-205"/>
			<point x="248" y="-207" type="curve" smooth="yes"/>
			<point x="260" y="-209"/>
			<point x="272" y="-210"/>
			<point x="285" y="-210" type="curve" smooth="yes"/>
			<point x="363" y="-210"/>
			<point x="419" y="-181"/>
			<point x="419" y="-122" type="curve" smooth="yes"/>
			<point x="419" y="-76"/>
			<point x="390" y="-48"/>
		</contour>
	</outline>
</glyph>
<glyph name="Tcaron" format="2">
	<advance width="617"/>
	<unicode hex="0164"/>
	<note>
		Tcaron
	</note>
	<outline>
		<contour>
			<point x="277" y="736"/>
			<point x="305" y="736" type="curve" smooth="yes"/>
			<point x="328" y="736" type="line" smooth="yes"/>
			<point x="371" y="736"/>
			<point x="407" y="771"/>
			<point x="409" y="813" type="curve" smooth="yes"/>
			<point x="409" y="830"/>
			<point x="395" y="844"/>
			<point x="378" y="844" type="curve" smooth="yes"/>
			<point x="366" y="844"/>
			<point x="355" y="837"/>
			<point x="350" y="827" type="curve" smooth="yes"/>
			<point x="325" y="777" type="line"/>
			<point x="310" y="808" type="line" smooth="yes"/>
			<point x="300" y="828"/>
			<point x="259" y="833"/>
			<point x="253" y="794" type="curve" smooth="yes"/>
			<point x="253" y="792"/>
			<point x="253" y="789"/>
			<point x="253" y="787" type="curve" smooth="yes"/>
			<point x="253" y="758"/>
		</contour>
		<contour>
			<point x="379" y="603" type="line"/>
			<point x="582" y="603" type="line" smooth="yes"/>
			<point x="606" y="603"/>
			<point x="626" y="622"/>
			<point x="626" y="647" type="curve" smooth="yes"/>
			<point x="626" y="671"/>
			<point x="606" y="690"/>
			<point x="582" y="690" type="curve" smooth="yes"/>
			<point x="67" y="690" type="line" smooth="yes"/>
			<point x="43" y="690"/>
			<point x="24" y="671"/>
			<point x="24" y="647" type="curve" smooth="yes"/>
			<point x="24" y="622"/>
			<point x="43" y="603"/>
			<point x="67" y="603" type="curve" smooth="yes"/>
			<point x="270" y="603" type="line"/>
			<point x="270" y="49" type="line" smooth="yes"/>
			<point x="270" y="19"/>
			<point x="294" y="-6"/>
			<point x="325" y="-6" type="curve" smooth="yes"/>
			<point x="355" y="-6"/>
			<point x="379" y="19"/>
			<point x="379" y="49" type="curve" smooth="yes"/>
		</contour>
	</outline>
</glyph>
<glyph name="Umacron" format="2">
	<advance width="691"/>
	<unicode hex="016A"/>
	<note>
		Umacron
	</note>
	<outline>
		<contour>
			<point x="257" y="758" type="curve" smooth="yes"/>
			<point x="460" y="758" type="line" smooth="yes"/>
			<point x="477" y="758"/>
			<point x="492" y="772"/>
			<point x="492" y="790" type="curve" smooth="yes"/>
			<point x="492" y="807"/>
			<point x="477" y="821"/>
			<point x="460" y="821" type="curve" smooth="yes"/>
			<point x="257" y="821" type="line" smooth="yes"/>
			<point x="240" y="821"/>
			<point x="226" y="807"/>
			<point x="226" y="790" type="curve" smooth="yes"/>
			<point x="226" y="772"/>
			<point x="240" y="758"/>
		</contour>
		<contour>
			<point x="629" y="267" type="curve" smooth="yes"/>
			<point x="629" y="641" type="line" smooth="yes"/>
			<point x="629" y="671"/>
			<point x="605" y="696"/>
			<point x="575" y="696" type="curve" smooth="yes"/>
			<point x="544" y="696"/>
			<point x="520" y="671"/>
			<point x="520" y="641" type="curve" smooth="yes"/>
			<point x="520" y="265" type="line" smooth="yes"/>
			<point x="520" y="244"/>
			<point x="520" y="225"/>
			<point x="518" y="209" type="curve" smooth="yes"/>
			<point x="511" y="126"/>
			<point x="458" y="70"/>
			<point x="358" y="70" type="curve" smooth="yes"/>
			<point x="259" y="70"/>
			<point x="206" y="126"/>
			<point x="199" y="209" type="curve" smooth="yes"/>
			<point x="197" y="225"/>
			<point x="197" y="244"/>
			<point x="197" y="265" type="curve" smooth="yes"/>
			<point x="197" y="641" type="line" smooth="yes"/>
			<point x="197" y="671"/>
			<point x="173" y="696"/>
			<point x="143" y="696" type="curve" smooth="yes"/>
			<point x="112" y="696"/>
			<point x="88" y="671"/>
			<point x="88" y="641" type="curve" smooth="yes"/>
			<point x="88" y="267" type="line" smooth="yes"/>
			<point x="88" y="242"/>
			<point x="88" y="222"/>
			<point x="90" y="196" type="curve" smooth="yes"/>
			<point x="99" y="81"/>
			<point x="178" y="-14"/>
			<point x="358" y="-14" type="curve" smooth="yes"/>
			<point x="538" y="-14"/>
			<point x="617" y="81"/>
			<point x="627" y="196" type="curve" smooth="yes"/>
			<point x="629" y="222"/>
			<point x="629" y="242"/>
		</contour>
	</outline>
</glyph>
<glyph name="Uhungarumlaut" format="2">
	<advance width="691"/>
	<unicode hex="0170"/>
	<note>
		Uhungarumlaut
	</note>
	<outline>
		<contour>
			<point x="300" y="733"/>
			<point x="305" y="739" type="curve" smooth="yes"/>
			<point x="360" y="797" type="line" smooth="yes"/>
			<point x="364" y="802"/>
			<point x="368" y="808"/>
			<point x="368" y="816" type="curve" smooth="yes"/>
			<point x="368" y="833"/>
			<point x="352" y="845"/>
			<point x="336" y="843" type="curve" smooth="yes"/>
			<point x="293" y="837"/>
			<point x="258" y="802"/>
			<point x="256" y="759" type="curve" smooth="yes"/>
			<point x="256" y="743"/>
			<point x="268" y="731"/>
			<point x="284" y="731" type="curve" smooth="yes"/>
			<point x="293" y="731"/>
		</contour>
		<contour>
			<point x="432" y="733"/>
			<point x="437" y="739" type="curve" smooth="yes"/>
			<point x="492" y="797" type="line" smooth="yes"/>
			<point x="496" y="802"/>
			<point x="500" y="808"/>
			<point x="500" y="816" type="curve" smooth="yes"/>
			<point x="500" y="833"/>
			<point x="484" y="845"/>
			<point x="468" y="843" type="curve" smooth="yes"/>
			<point x="425" y="837"/>
			<point x="390" y="802"/>
			<point x="388" y="759" type="curve" smooth="yes"/>
			<point x="388" y="743"/>
			<point x="400" y="731"/>
			<point x="416" y="731" type="curve" smooth="yes"/>
			<point x="425" y="731"/>
		</contour>
		<contour>
			<point x="629" y="267" type="curve" smooth="yes"/>
			<point x="629" y="641" type="line" smooth="yes"/>
			<point x="629" y="671"/>
			<point x="605" y="696"/>
			<point x="575" y="696" type="curve" smooth="yes"/>
			<point x="544" y="696"/>
			<point x="520" y="671"/>
			<point x="520" y="641" type="curve" smooth="yes"/>
			<point x="520" y="265" type="line" smooth="yes"/>
			<point x="520" y="244"/>
			<point x="520" y="225"/>
			<point x="518" y="209" type="curve" smooth="yes"/>
			<point x="511" y="126"/>
			<point x="458" y="70"/>
			<point x="358" y="70" type="curve" smooth="yes"/>
			<point x="259" y="70"/>
			<point x="206" y="126"/>
			<point x="199" y="209" type="curve" smooth="yes"/>
			<point x="197" y="225"/>
			<point x="197" y="244"/>
			<point x="197" y="265" type="curve" smooth="yes"/>
			<point x="197" y="641" type="line" smooth="yes"/>
			<point x="197" y="671"/>
			<point x="173" y="696"/>
			<point x="143" y="696" type="curve" smooth="yes"/>
			<point x="112" y="696"/>
			<point x="88" y="671"/>
			<point x="88" y="641" type="curve" smooth="yes"/>
			<point x="88" y="267" type="line" smooth="yes"/>
			<point x="88" y="242"/>
			<point x="88" y="222"/>
			<point x="90" y="196" type="curve" smooth="yes"/>
			<point x="99" y="81"/>
			<point x="178" y="-14"/>
			<point x="358" y="-14" type="curve" smooth="yes"/>
			<point x="538" y="-14"/>
			<point x="617" y="81"/>
			<point x="627" y="196" type="curve" smooth="yes"/>
			<point x="629" y="222"/>
			<point x="629" y="242"/>
		</contour>
	</outline>
</glyph>
<glyph name="Ycircumflex" format="2">
	<advance width="602"/>
	<unicode hex="0176"/>
	<note>
		Ycircumflex
	</note>
	<outline>
		<contour>
			<point x="286" y="737"/>
			<point x="291" y="747" type="curve" smooth="yes"/>
			<point x="316" y="796" type="line"/>
			<point x="332" y="766" type="line" smooth="yes"/>
			<point x="342" y="747"/>
			<point x="382" y="741"/>
			<point x="387" y="780" type="curve" smooth="yes"/>
			<point x="388" y="782"/>
			<point x="388" y="785"/>
			<point x="388" y="787" type="curve" smooth="yes"/>
			<point x="388" y="816"/>
			<point x="365" y="839"/>
			<point x="336" y="839" type="curve" smooth="yes"/>
			<point x="307" y="839"/>
			<point x="284" y="816"/>
			<point x="284" y="787" type="curve" smooth="yes"/>
			<point x="284" y="766"/>
			<point x="292" y="787"/>
			<point x="305" y="808" type="curve" smooth="yes"/>
			<point x="317" y="827"/>
			<point x="324" y="838"/>
			<point x="313" y="838" type="curve" smooth="yes"/>
			<point x="270" y="838"/>
			<point x="234" y="803"/>
			<point x="232" y="761" type="curve" smooth="yes"/>
			<point x="232" y="744"/>
			<point x="246" y="730"/>
			<point x="263" y="730" type="curve" smooth="yes"/>
			<point x="275" y="730"/>
		</contour>
		<contour>
			<point x="371" y="49" type="curve" smooth="yes"/>
			<point x="371" y="270" type="line"/>
			<point x="572" y="617" type="line" smooth="yes"/>
			<point x="576" y="624"/>
			<point x="580" y="634"/>
			<point x="580" y="643" type="curve" smooth="yes"/>
			<point x="580" y="672"/>
			<point x="556" y="696"/>
			<point x="527" y="696" type="curve" smooth="yes"/>
			<point x="507" y="696"/>
			<point x="490" y="685"/>
			<point x="481" y="668" type="curve" smooth="yes"/>
			<point x="321" y="371" type="line"/>
			<point x="155" y="668" type="line" smooth="yes"/>
			<point x="146" y="685"/>
			<point x="129" y="696"/>
			<point x="108" y="696" type="curve" smooth="yes"/>
			<point x="79" y="696"/>
			<point x="54" y="671"/>
			<point x="54" y="642" type="curve" smooth="yes"/>
			<point x="54" y="632"/>
			<point x="58" y="623"/>
			<point x="62" y="615" type="curve" smooth="yes"/>
			<point x="262" y="270" type="line"/>
			<point x="262" y="49" type="line" smooth="yes"/>
			<point x="262" y="19"/>
			<point x="286" y="-6"/>
			<point x="317" y="-6" type="curve" smooth="yes"/>
			<point x="347" y="-6"/>
			<point x="371" y="19"/>
		</contour>
	</outline>
</glyph>
<glyph name="zcaron" format="2">
	<advance width="478"/>
	<unicode hex="017E"/>
	<note>
		zcaron
	</note>
	<outline>
		<contour>
			<point x="160" y="650" type="curve" smooth="yes"/>
			<point x="179" y="618" type="line" smooth="yes"/>
			<point x="195" y="591"/>
			<point x="214" y="578"/>
			<point x="239" y="578" type="curve" smooth="yes"/>
			<point x="285" y="578"/>
			<point x="325" y="613"/>
			<point x="328" y="659" type="curve"/>
			<point x="329" y="661"/>
			<point x="329" y="664"/>
			<point x="329" y="666" type="curve" smooth="yes"/>
			<point x="329" y="684"/>
			<point x="315" y="698"/>
			<point x="298" y="698" type="curve" smooth="yes"/>
			<point x="286" y="698"/>
			<point x="275" y="691"/>
			<point x="270" y="680" type="curve" smooth="yes"/>
			<point x="243" y="626" type="line"/>
			<point x="216" y="680" type="line" smooth="yes"/>
			<point x="211" y="691"/>
			<point x="200" y="698"/>
			<point x="188" y="698" type="curve" smooth="yes"/>
			<point x="170" y="698"/>
			<point x="156" y="683"/>
			<point x="156" y="666" type="curve" smooth="yes"/>
			<point x="156" y="660"/>
			<point x="157" y="654"/>
		</contour>
		<contour>
			<point x="436" y="79"/>
			<point x="415" y="79" type="curve" smooth="yes"/>
			<point x="148" y="79" type="line"/>
			<point x="439" y="440" type="line" smooth="yes"/>
			<point x="446" y="449"/>
			<point x="451" y="461"/>
			<point x="451" y="474" type="curve" smooth="yes"/>
			<point x="451" y="503"/>
			<point x="426" y="527"/>
			<point x="397" y="527" type="curve" smooth="yes"/>
			<point x="78" y="527" type="line" smooth="yes"/>
			<point x="57" y="527"/>
			<point x="39" y="509"/>
			<point x="39" y="488" type="curve" smooth="yes"/>
			<point x="39" y="466"/>
			<point x="57" y="448"/>
			<point x="78" y="448" type="curve" smooth="yes"/>
			<point x="323" y="448" type="line"/>
			<point x="30" y="83" type="line" smooth="yes"/>
			<point x="23" y="75"/>
			<point x="18" y="63"/>
			<point x="18" y="51" type="curve" smooth="yes"/>
			<point x="18" y="23"/>
			<point x="42" y="0"/>
			<point x="70" y="0" type="curve" smooth="yes"/>
			<point x="415" y="0" type="line" smooth="yes"/>
			<point x="436" y="0"/>
			<point x="455" y="18"/>
			<point x="455" y="40" type="curve" smooth="yes"/>
			<point x="455" y="61"/>
		</contour>
	</outline>
</glyph>
<glyph name="uni0218" format="2">
	<advance width="595"/>
	<unicode hex="0218"/>
	<note>
		Scommaaccent
	</note>
	<outline>
		<contour>
			<point x="316" y="704" type="curve" smooth="yes"/>
			<point x="187" y="704"/>
			<point x="78" y="629"/>
			<point x="78" y="507" type="curve" smooth="yes"/>
			<point x="78" y="387"/>
			<point x="165" y="338"/>
			<point x="296" y="307" type="curve" smooth="yes"/>
			<point x="408" y="281"/>
			<point x="450" y="244"/>
			<point x="450" y="172" type="curve" smooth="yes"/>
			<point x="450" y="109"/>
			<point x="393" y="70"/>
			<point x="321" y="70" type="curve" smooth="yes"/>
			<point x="252" y="70"/>
			<point x="198" y="103"/>
			<point x="172" y="169" type="curve" smooth="yes"/>
			<point x="164" y="191"/>
			<point x="144" y="206"/>
			<point x="119" y="206" type="curve" smooth="yes"/>
			<point x="88" y="206"/>
			<point x="63" y="180"/>
			<point x="63" y="149" type="curve" smooth="yes"/>
			<point x="63" y="141"/>
			<point x="63" y="134"/>
			<point x="66" y="128" type="curve" smooth="yes"/>
			<point x="104" y="34"/>
			<point x="194" y="-14"/>
			<point x="321" y="-14" type="curve" smooth="yes"/>
			<point x="455" y="-14"/>
			<point x="566" y="62"/>
			<point x="566" y="187" type="curve" smooth="yes"/>
			<point x="566" y="302"/>
			<point x="494" y="367"/>
			<point x="342" y="402" type="curve" smooth="yes"/>
			<point x="235" y="427"/>
			<point x="194" y="458"/>
			<point x="194" y="525" type="curve" smooth="yes"/>
			<point x="194" y="590"/>
			<point x="245" y="620"/>
			<point x="310" y="620" type="curve" smooth="yes"/>
			<point x="377" y="620"/>
			<point x="420" y="587"/>
			<point x="437" y="528" type="curve" smooth="yes"/>
			<point x="443" y="506"/>
			<point x="464" y="488"/>
			<point x="489" y="488" type="curve" smooth="yes"/>
			<point x="520" y="488"/>
			<point x="544" y="513"/>
			<point x="544" y="543" type="curve" smooth="yes"/>
			<point x="544" y="550"/>
			<point x="543" y="556"/>
			<point x="541" y="562" type="curve" smooth="yes"/>
			<point x="509" y="648"/>
			<point x="437" y="704"/>
		</contour>
		<contour>
			<point x="293" y="-187" type="curve" smooth="yes"/>
			<point x="335" y="-105" type="line" smooth="yes"/>
			<point x="351" y="-74"/>
			<point x="350" y="-36"/>
			<point x="315" y="-34" type="curve" smooth="yes"/>
			<point x="314" y="-34"/>
			<point x="312" y="-34"/>
			<point x="311" y="-34" type="curve" smooth="yes"/>
			<point x="287" y="-34"/>
			<point x="275" y="-52"/>
			<point x="267" y="-72" type="curve" smooth="yes"/>
			<point x="233" y="-160" type="line" smooth="yes"/>
			<point x="232" y="-164"/>
			<point x="230" y="-168"/>
			<point x="230" y="-172" type="curve" smooth="yes"/>
			<point x="230" y="-191"/>
			<point x="245" y="-206"/>
			<point x="264" y="-206" type="curve" smooth="yes"/>
			<point x="277" y="-206"/>
			<point x="288" y="-198"/>
		</contour>
	</outline>
</glyph>
<glyph name="tilde" format="2">
	<advance width="300"/>
	<unicode hex="02DC"/>
	<note>
		tilde
	</note>
	<outline>
		<contour>
			<point x="91" y="680" type="curve" smooth="yes"/>
			<point x="58" y="680"/>
			<point x="37" y="665"/>
			<point x="32" y="619" type="curve" smooth="yes"/>
			<point x="30" y="604"/>
			<point x="42" y="588"/>
			<point x="58" y="588" type="curve" smooth="yes"/>
			<point x="70" y="588"/>
			<point x="80" y="595"/>
			<point x="84" y="606" type="curve" smooth="yes"/>
			<point x="87" y="614"/>
			<point x="92" y="616"/>
			<point x="98" y="616" type="curve" smooth="yes"/>
			<point x="107" y="616"/>
			<point x="118" y="613"/>
			<point x="142" y="604" type="curve" smooth="yes"/>
			<point x="172" y="594"/>
			<point x="188" y="590"/>
			<point x="209" y="590" type="curve" smooth="yes"/>
			<point x="243" y="590"/>
			<point x="264" y="605"/>
			<point x="269" y="652" type="curve" smooth="yes"/>
			<point x="271" y="669"/>
			<point x="259" y="683"/>
			<point x="242" y="683" type="curve" smooth="yes"/>
			<point x="230" y="683"/>
			<point x="219" y="675"/>
			<point x="216" y="664" type="curve" smooth="yes"/>
			<point x="214" y="656"/>
			<point x="209" y="654"/>
			<point x="202" y="654" type="curve" smooth="yes"/>
			<point x="194" y="654"/>
			<point x="182" y="657"/>
			<point x="158" y="666" type="curve" smooth="yes"/>
			<point x="129" y="677"/>
			<point x="113" y="680"/>
		</contour>
	</outline>
</glyph>
<glyph name="Ygrave" format="2">
	<advance width="602"/>
	<unicode hex="1EF2"/>
	<note>
		Ygrave
	</note>
	<outline>
		<contour>
			<point x="243" y="784" type="curve" smooth="yes"/>
			<point x="249" y="778" type="line" smooth="yes"/>
			<point x="275" y="750"/>
			<point x="317" y="743"/>
			<point x="323" y="780" type="curve" smooth="yes"/>
			<point x="324" y="784"/>
			<point x="324" y="787"/>
			<point x="324" y="791" type="curve" smooth="yes"/>
			<point x="324" y="822"/>
			<point x="299" y="841"/>
			<point x="269" y="844" type="curve"/>
			<point x="249" y="844"/>
			<point x="234" y="828"/>
			<point x="234" y="808" type="curve" smooth="yes"/>
			<point x="234" y="799"/>
			<point x="237" y="791"/>
		</contour>
		<contour>
			<point x="371" y="49" type="curve" smooth="yes"/>
			<point x="371" y="270" type="line"/>
			<point x="572" y="617" type="line" smooth="yes"/>
			<point x="576" y="624"/>
			<point x="580" y="634"/>
			<point x="580" y="643" type="curve" smooth="yes"/>
			<point x="580" y="672"/>
			<point x="556" y="696"/>
			<point x="527" y="696" type="curve" smooth="yes"/>
			<point x="507" y="696"/>
			<point x="490" y="685"/>
			<point x="481" y="668" type="curve" smooth="yes"/>
			<point x="321" y="371" type="line"/>
			<point x="155" y="668" type="line" smooth="yes"/>
			<point x="146" y="685"/>
			<point x="129" y="696"/>
			<point x="108" y="696" type="curve" smooth="yes"/>
			<point x="79" y="696"/>
			<point x="54" y="671"/>
			<point x="54" y="642" type="curve" smooth="yes"/>
			<point x="54" y="632"/>
			<point x="58" y="623"/>
			<point x="62" y="615" type="curve" smooth="yes"/>
			<point x="262" y="270" type="line"/>
			<point x="262" y="49" type="line" smooth="yes"/>
			<point x="262" y="19"/>
			<point x="286" y="-6"/>
			<point x="317" y="-6" type="curve" smooth="yes"/>
			<point x="347" y="-6"/>
			<point x="371" y="19"/>
		</contour>
	</outline>
</glyph>
<glyph name="ygrave" format="2">
	<advance width="537"/>
	<unicode hex="1EF3"/>
	<note>
		ygrave
	</note>
	<outline>
		<contour>
			<point x="190" y="637" type="curve" smooth="yes"/>
			<point x="239" y="582" type="line" smooth="yes"/>
			<point x="244" y="576"/>
			<point x="252" y="573"/>
			<point x="261" y="573" type="curve" smooth="yes"/>
			<point x="277" y="573"/>
			<point x="290" y="586"/>
			<point x="290" y="602" type="curve" smooth="yes"/>
			<point x="290" y="607"/>
			<point x="288" y="613"/>
			<point x="286" y="617" type="curve" smooth="yes"/>
			<point x="248" y="680" type="line" smooth="yes"/>
			<point x="242" y="691"/>
			<point x="230" y="698"/>
			<point x="217" y="698" type="curve" smooth="yes"/>
			<point x="197" y="698"/>
			<point x="181" y="681"/>
			<point x="181" y="661" type="curve" smooth="yes"/>
			<point x="181" y="652"/>
			<point x="185" y="643"/>
		</contour>
		<contour>
			<point x="318" y="-34" type="curve" smooth="yes"/>
			<point x="508" y="462" type="line" smooth="yes"/>
			<point x="510" y="468"/>
			<point x="511" y="475"/>
			<point x="511" y="482" type="curve" smooth="yes"/>
			<point x="511" y="512"/>
			<point x="487" y="537"/>
			<point x="457" y="537" type="curve" smooth="yes"/>
			<point x="432" y="537"/>
			<point x="412" y="521"/>
			<point x="405" y="499" type="curve" smooth="yes"/>
			<point x="270" y="82" type="line"/>
			<point x="135" y="497" type="line" smooth="yes"/>
			<point x="128" y="519"/>
			<point x="106" y="537"/>
			<point x="81" y="537" type="curve" smooth="yes"/>
			<point x="50" y="537"/>
			<point x="25" y="511"/>
			<point x="25" y="480" type="curve" smooth="yes"/>
			<point x="25" y="473"/>
			<point x="26" y="466"/>
			<point x="28" y="460" type="curve" smooth="yes"/>
			<point x="215" y="-25" type="line"/>
			<point x="207" y="-44" type="line" smooth="yes"/>
			<point x="183" y="-106"/>
			<point x="149" y="-127"/>
			<point x="99" y="-127" type="curve" smooth="yes"/>
			<point x="77" y="-127"/>
			<point x="58" y="-146"/>
			<point x="58" y="-168" type="curve" smooth="yes"/>
			<point x="58" y="-191"/>
			<point x="77" y="-210"/>
			<point x="99" y="-210" type="curve" smooth="yes"/>
			<point x="116" y="-210" type="line" smooth="yes"/>
			<point x="212" y="-210"/>
			<point x="269" y="-160"/>
		</contour>
	</outline>
</glyph>
<glyph name="emdash" format="2">
	<advance width="1000"/>
	<unicode hex="2014"/>
	<note>
		emdash
	</note>
	<outline>
		<contour>
			<point x="103" y="259" type="curve" smooth="yes"/>
			<point x="898" y="259" type="line" smooth="yes"/>
			<point x="916" y="259"/>
			<point x="931" y="274"/>
			<point x="931" y="292" type="curve" smooth="yes"/>
			<point x="931" y="310"/>
			<point x="916" y="325"/>
			<point x="898" y="325" type="curve" smooth="yes"/>
			<point x="103" y="325" type="line" smooth="yes"/>
			<point x="85" y="325"/>
			<point x="70" y="310"/>
			<point x="70" y="292" type="curve" smooth="yes"/>
			<point x="70" y="274"/>
			<point x="85" y="259"/>
		</contour>
	</outline>
</glyph>
<glyph name="guilsinglright" format="2">
	<advance width="396"/>
	<unicode hex="203A"/>
	<note>
		guilsinglright
	</note>
	<outline>
		<contour>
			<point x="147" y="89" type="curve" smooth="yes"/>
			<point x="244" y="207" type="line" smooth="yes"/>
			<point x="266" y="234"/>
			<point x="266" y="262"/>
			<point x="244" y="289" type="curve" smooth="yes"/>
			<point x="147" y="407" type="line" smooth="yes"/>
			<point x="141" y="415"/>
			<point x="131" y="420"/>
			<point x="121" y="420" type="curve" smooth="yes"/>
			<point x="102" y="420"/>
			<point x="87" y="404"/>
			<point x="87" y="386" type="curve" smooth="yes"/>
			<point x="87" y="378"/>
			<point x="90" y="370"/>
			<point x="95" y="365" type="curve" smooth="yes"/>
			<point x="191" y="248" type="line"/>
			<point x="95" y="131" type="line" smooth="yes"/>
			<point x="90" y="126"/>
			<point x="87" y="118"/>
			<point x="87" y="110" type="curve" smooth="yes"/>
			<point x="87" y="92"/>
			<point x="102" y="76"/>
			<point x="121" y="76" type="curve" smooth="yes"/>
			<point x="131" y="76"/>
			<point x="141" y="81"/>
		</contour>
	</outline>
</glyph>
<glyph name="emptyset" format="2">
	<advance width="838"/>
	<unicode hex="2205"/>
	<note>
		emptyset
	</note>
	<outline>
		<contour>
			<point x="721" y="604" type="curve"/>
			<point x="782" y="665" type="line" smooth="yes"/>
			<point x="788" y="671"/>
			<point x="792" y="680"/>
			<point x="792" y="689" type="curve" smooth="yes"/>
			<point x="792" y="708"/>
			<point x="777" y="723"/>
			<point x="758" y="723" type="curve" smooth="yes"/>
			<point x="749" y="723"/>
			<point x="740" y="719"/>
			<point x="734" y="713" type="curve" smooth="yes"/>
			<point x="674" y="653" type="line"/>
			<point x="606" y="713"/>
			<point x="517" y="749"/>
			<point x="419" y="749" type="curve" smooth="yes"/>
			<point x="203" y="749"/>
			<point x="30" y="574"/>
			<point x="30" y="355" type="curve" smooth="yes"/>
			<point x="30" y="258"/>
			<point x="64" y="169"/>
			<point x="121" y="100" type="curve"/>
			<point x="57" y="36" type="line" smooth="yes"/>
			<point x="51" y="30"/>
			<point x="47" y="21"/>
			<point x="47" y="12" type="curve" smooth="yes"/>
			<point x="47" y="-7"/>
			<point x="62" y="-22"/>
			<point x="81" y="-22" type="curve" smooth="yes"/>
			<point x="91" y="-22"/>
			<point x="100" y="-18"/>
			<point x="106" y="-12" type="curve" smooth="yes"/>
			<point x="170" y="52" type="line"/>
			<point x="237" y="-5"/>
			<point x="324" y="-39"/>
			<point x="419" y="-39" type="curve" smooth="yes"/>
			<point x="635" y="-39"/>
			<point x="808" y="136"/>
			<point x="808" y="355" type="curve" smooth="yes"/>
			<point x="808" y="450"/>
			<point x="776" y="536"/>
		</contour>
		<contour>
			<point x="104" y="355" type="curve" smooth="yes"/>
			<point x="104" y="536"/>
			<point x="243" y="681"/>
			<point x="419" y="681" type="curve" smooth="yes"/>
			<point x="498" y="681"/>
			<point x="569" y="652"/>
			<point x="624" y="603" type="curve"/>
			<point x="172" y="151" type="line"/>
			<point x="129" y="207"/>
			<point x="104" y="277"/>
		</contour>
		<contour>
			<point x="419" y="29" type="curve" smooth="yes"/>
			<point x="342" y="29"/>
			<point x="273" y="56"/>
			<point x="219" y="102" type="curve"/>
			<point x="670" y="553" type="line"/>
			<point x="710" y="498"/>
			<point x="734" y="430"/>
			<point x="734" y="355" type="curve" smooth="yes"/>
			<point x="734" y="173"/>
			<point x="595" y="29"/>
		</contour>
	</outline>
</glyph>
<glyph name="integral" format="2">
	<advance width="600"/>
	<unicode hex="222B"/>
	<note>
		integral
	</note>
	<outline>
		<contour>
			<point x="349" y="754" type="curve" smooth="yes"/>
			<point x="266" y="754"/>
			<point x="207" y="686"/>
			<point x="207" y="572" type="curve" smooth="yes"/>
			<point x="207" y="505"/>
			<point x="221" y="435"/>
			<point x="264" y="290" type="curve" smooth="yes"/>
			<point x="314" y="123"/>
			<point x="320" y="75"/>
			<point x="320" y="18" type="curve" smooth="yes"/>
			<point x="320" y="-57"/>
			<point x="287" y="-94"/>
			<point x="245" y="-94" type="curve" smooth="yes"/>
			<point x="232" y="-94"/>
			<point x="221" y="-93"/>
			<point x="210" y="-89" type="curve" smooth="yes"/>
			<point x="190" y="-82"/>
			<point x="168" y="-98"/>
			<point x="168" y="-120" type="curve" smooth="yes"/>
			<point x="168" y="-133"/>
			<point x="177" y="-144"/>
			<point x="188" y="-149" type="curve" smooth="yes"/>
			<point x="209" y="-158"/>
			<point x="227" y="-160"/>
			<point x="251" y="-160" type="curve" smooth="yes"/>
			<point x="334" y="-160"/>
			<point x="393" y="-92"/>
			<point x="393" y="23" type="curve" smooth="yes"/>
			<point x="393" y="89"/>
			<point x="379" y="159"/>
			<point x="336" y="304" type="curve" smooth="yes"/>
			<point x="286" y="471"/>
			<point x="280" y="520"/>
			<point x="280" y="577" type="curve" smooth="yes"/>
			<point x="280" y="651"/>
			<point x="313" y="688"/>
			<point x="355" y="688" type="curve" smooth="yes"/>
			<point x="368" y="688"/>
			<point x="379" y="687"/>
			<point x="390" y="683" type="curve" smooth="yes"/>
			<point x="410" y="676"/>
			<point x="432" y="692"/>
			<point x="432" y="714" type="curve" smooth="yes"/>
			<point x="432" y="727"/>
			<point x="423" y="738"/>
			<point x="412" y="743" type="curve" smooth="yes"/>
			<point x="391" y="752"/>
			<point x="373" y="754"/>
		</contour>
	</outline>
</glyph>
<glyph name="notequal" format="2">
	<advance width="601"/>
	<unicode hex="2260"/>
	<note>
		notequal
	</note>
	<outline>
		<contour>
			<point x="301" y="248" type="line"/>
			<point x="376" y="384" type="line"/>
			<point x="493" y="384" type="line" smooth="yes"/>
			<point x="510" y="384"/>
			<point x="525" y="398"/>
			<point x="525" y="416" type="curve" smooth="yes"/>
			<point x="525" y="434"/>
			<point x="510" y="448"/>
			<point x="493" y="448" type="curve" smooth="yes"/>
			<point x="412" y="448" type="line"/>
			<point x="439" y="497" type="line" smooth="yes"/>
			<point x="441" y="501"/>
			<point x="444" y="507"/>
			<point x="444" y="513" type="curve" smooth="yes"/>
			<point x="444" y="532"/>
			<point x="429" y="547"/>
			<point x="411" y="547" type="curve" smooth="yes"/>
			<point x="398" y="547"/>
			<point x="387" y="540"/>
			<point x="382" y="530" type="curve" smooth="yes"/>
			<point x="336" y="448" type="line"/>
			<point x="109" y="448" type="line" smooth="yes"/>
			<point x="92" y="448"/>
			<point x="77" y="434"/>
			<point x="77" y="416" type="curve" smooth="yes"/>
			<point x="77" y="398"/>
			<point x="92" y="384"/>
			<point x="109" y="384" type="curve" smooth="yes"/>
			<point x="300" y="384" type="line"/>
			<point x="225" y="248" type="line"/>
			<point x="109" y="248" type="line" smooth="yes"/>
			<point x="92" y="248"/>
			<point x="77" y="234"/>
			<point x="77" y="216" type="curve" smooth="yes"/>
			<point x="77" y="198"/>
			<point x="92" y="184"/>
			<point x="109" y="184" type="curve" smooth="yes"/>
			<point x="189" y="184" type="line"/>
			<point x="162" y="135" type="line" smooth="yes"/>
			<point x="160" y="131"/>
			<point x="157" y="125"/>
			<point x="157" y="119" type="curve" smooth="yes"/>
			<point x="157" y="100"/>
			<point x="172" y="85"/>
			<point x="190" y="85" type="curve" smooth="yes"/>
			<point x="203" y="85"/>
			<point x="214" y="92"/>
			<point x="219" y="102" type="curve" smooth="yes"/>
			<point x="265" y="184" type="line"/>
			<point x="493" y="184" type="line" smooth="yes"/>
			<point x="510" y="184"/>
			<point x="525" y="198"/>
			<point x="525" y="216" type="curve" smooth="yes"/>
			<point x="525" y="234"/>
			<point x="510" y="248"/>
			<point x="493" y="248" type="curve" smooth="yes"/>
		</contour>
	</outline>
</glyph>
<glyph name="fi" format="2">
	<advance width="558"/>
	<unicode hex="FB01"/>
	<note>
		fi
	</note>
	<outline>
		<contour>
			<point x="486" y="49" type="curve" smooth="yes"/>
			<point x="486" y="469" type="line" smooth="yes"/>
			<point x="486" y="506"/>
			<point x="465" y="527"/>
			<point x="428" y="527" type="curve" smooth="yes"/>
			<point x="187" y="527" type="line"/>
			<point x="187" y="545" type="line" smooth="yes"/>
			<point x="187" y="559"/>
			<point x="188" y="581"/>
			<point x="190" y="595" type="curve" smooth="yes"/>
			<point x="197" y="647"/>
			<point x="233" y="671"/>
			<point x="339" y="668" type="curve" smooth="yes"/>
			<point x="361" y="667"/>
			<point x="383" y="686"/>
			<point x="383" y="710" type="curve" smooth="yes"/>
			<point x="383" y="733"/>
			<point x="365" y="751"/>
			<point x="344" y="753" type="curve" smooth="yes"/>
			<point x="332" y="754"/>
			<point x="321" y="754"/>
			<point x="308" y="754" type="curve" smooth="yes"/>
			<point x="155" y="754"/>
			<point x="90" y="699"/>
			<point x="80" y="601" type="curve" smooth="yes"/>
			<point x="78" y="583"/>
			<point x="78" y="558"/>
			<point x="78" y="539" type="curve" smooth="yes"/>
			<point x="78" y="527" type="line"/>
			<point x="54" y="527" type="line" smooth="yes"/>
			<point x="33" y="527"/>
			<point x="16" y="510"/>
			<point x="16" y="489" type="curve" smooth="yes"/>
			<point x="16" y="467"/>
			<point x="33" y="450"/>
			<point x="54" y="450" type="curve" smooth="yes"/>
			<point x="78" y="450" type="line"/>
			<point x="78" y="49" type="line" smooth="yes"/>
			<point x="78" y="19"/>
			<point x="102" y="-6"/>
			<point x="133" y="-6" type="curve" smooth="yes"/>
			<point x="163" y="-6"/>
			<point x="187" y="19"/>
			<point x="187" y="49" type="curve" smooth="yes"/>
			<point x="187" y="450" type="line"/>
			<point x="377" y="450" type="line"/>
			<point x="377" y="49" type="line" smooth="yes"/>
			<point x="377" y="19"/>
			<point x="401" y="-6"/>
			<point x="432" y="-6" type="curve" smooth="yes"/>
			<point x="462" y="-6"/>
			<point x="486" y="19"/>
		</contour>
	</outline>
</glyph>
<glyph name="uF1030" format="2">
	<advance width="1149"/>
	<unicode hex="F1030"/>
	<outline>
		<contour>
			<point x="215" y="228" type="line"/>
			<point x="461" y="228" type="line"/>
			<point x="498" y="79"/>
			<point x="610" y="-16"/>
			<point x="781" y="-16" type="curve" smooth="yes"/>
			<point x="992" y="-16"/>
			<point x="1113" y="130"/>
			<point x="1113" y="343" type="curve" smooth="yes"/>
			<point x="1113" y="557"/>
			<point x="992" y="702"/>
			<point x="781" y="702" type="curve" smooth="yes"/>
			<point x="630" y="702"/>
			<point x="526" y="629"/>
			<point x="478" y="510" type="curve"/>
			<point x="430" y="644" type="line" smooth="yes"/>
			<point x="419" y="676"/>
			<point x="397" y="690"/>
			<point x="364" y="690" type="curve" smooth="yes"/>
			<point x="320" y="690" type="line" smooth="yes"/>
			<point x="287" y="690"/>
			<point x="265" y="676"/>
			<point x="254" y="644" type="curve" smooth="yes"/>
			<point x="47" y="68" type="line" smooth="yes"/>
			<point x="45" y="63"/>
			<point x="44" y="56"/>
			<point x="44" y="49" type="curve" smooth="yes"/>
			<point x="44" y="19"/>
			<point x="69" y="-6"/>
			<point x="99" y="-6" type="curve" smooth="yes"/>
			<point x="123" y="-6"/>
			<point x="144" y="11"/>
			<point x="151" y="32" type="curve" smooth="yes"/>
		</contour>
		<contour>
			<point x="244" y="315" type="line"/>
			<point x="340" y="599" type="line"/>
			<point x="431" y="315" type="line"/>
		</contour>
		<contour>
			<point x="566" y="343" type="curve" smooth="yes"/>
			<point x="566" y="515"/>
			<point x="646" y="618"/>
			<point x="781" y="618" type="curve" smooth="yes"/>
			<point x="915" y="618"/>
			<point x="995" y="515"/>
			<point x="995" y="343" type="curve" smooth="yes"/>
			<point x="995" y="172"/>
			<point x="915" y="68"/>
			<point x="781" y="68" type="curve" smooth="yes"/>
			<point x="646" y="68"/>
			<point x="566" y="172"/>
		</contour>
	</outline>
</glyph>
<glyph name="uF1110" format="2">
	<advance width="894"/>
	<unicode hex="F1110"/>
	<outline>
		<contour>
			<point x="365" y="77" type="line"/>
			<point x="370" y="42" type="line" smooth="yes"/>
			<point x="373" y="16"/>
			<point x="396" y="-6"/>
			<point x="423" y="-6" type="curve" smooth="yes"/>
			<point x="455" y="-6"/>
			<point x="480" y="21"/>
			<point x="478" y="53" type="curve" smooth="yes"/>
			<point x="475" y="83"/>
			<point x="476" y="106"/>
			<point x="479" y="130" type="curve" smooth="yes"/>
			<point x="482" y="159"/>
			<point x="497" y="214"/>
			<point x="475" y="235" type="curve"/>
			<point x="799" y="235" type="line" smooth="yes"/>
			<point x="836" y="235"/>
			<point x="858" y="279"/>
			<point x="858" y="279" type="curve" smooth="yes"/>
			<point x="858" y="429"/>
			<point x="775" y="545"/>
			<point x="621" y="545" type="curve" smooth="yes"/>
			<point x="550" y="545"/>
			<point x="489" y="521"/>
			<point x="444" y="478" type="curve"/>
			<point x="415" y="520"/>
			<point x="361" y="545"/>
			<point x="271" y="545" type="curve" smooth="yes"/>
			<point x="177" y="545"/>
			<point x="104" y="505"/>
			<point x="72" y="431" type="curve" smooth="yes"/>
			<point x="69" y="424"/>
			<point x="68" y="418"/>
			<point x="68" y="410" type="curve" smooth="yes"/>
			<point x="68" y="381"/>
			<point x="92" y="357"/>
			<point x="122" y="357" type="curve" smooth="yes"/>
			<point x="146" y="357"/>
			<point x="167" y="373"/>
			<point x="173" y="395" type="curve" smooth="yes"/>
			<point x="186" y="442"/>
			<point x="218" y="465"/>
			<point x="269" y="465" type="curve" smooth="yes"/>
			<point x="332" y="465"/>
			<point x="359" y="435"/>
			<point x="362" y="392" type="curve" smooth="yes"/>
			<point x="364" y="372"/>
			<point x="364" y="354"/>
			<point x="364" y="334" type="curve" smooth="yes"/>
			<point x="364" y="321" type="line"/>
			<point x="330" y="321" type="line" smooth="yes"/>
			<point x="129" y="321"/>
			<point x="35" y="257"/>
			<point x="35" y="139" type="curve" smooth="yes"/>
			<point x="35" y="40"/>
			<point x="112" y="-14"/>
			<point x="206" y="-14" type="curve" smooth="yes"/>
			<point x="241" y="-14"/>
			<point x="274" y="-10"/>
			<point x="304" y="2" type="curve" smooth="yes"/>
			<point x="330" y="12"/>
			<point x="343" y="29"/>
			<point x="355" y="55" type="curve" smooth="yes"/>
		</contour>
		<contour>
			<point x="151" y="148" type="curve" smooth="yes"/>
			<point x="151" y="229"/>
			<point x="235" y="258"/>
			<point x="364" y="248" type="curve"/>
			<point x="364" y="199" type="line" smooth="yes"/>
			<point x="364" y="113"/>
			<point x="315" y="66"/>
			<point x="246" y="66" type="curve" smooth="yes"/>
			<point x="188" y="66"/>
			<point x="151" y="92"/>
		</contour>
		<contour>
			<point x="476" y="312" type="line"/>
			<point x="488" y="414"/>
			<point x="542" y="465"/>
			<point x="617" y="465" type="curve" smooth="yes"/>
			<point x="694" y="465"/>
			<point x="737" y="410"/>
			<point x="745" y="312" type="curve"/>
		</contour>
	</outline>
</glyph>
<glyph name="uF1130" format="2">
	<advance width="929"/>
	<unicode hex="F1130"/>
	<outline>
		<contour>
			<point x="35" y="139" type="curve" smooth="yes"/>
			<point x="35" y="40"/>
			<point x="112" y="-14"/>
			<point x="206" y="-14" type="curve" smooth="yes"/>
			<point x="243" y="-14"/>
			<point x="278" y="-9"/>
			<point x="308" y="3" type="curve" smooth="yes"/>
			<point x="331" y="14"/>
			<point x="345" y="27"/>
			<point x="363" y="44" type="curve" smooth="yes"/>
			<point x="413" y="91" type="line"/>
			<point x="456" y="27"/>
			<point x="530" y="-14"/>
			<point x="632" y="-14" type="curve" smooth="yes"/>
			<point x="810" y="-14"/>
			<point x="901" y="111"/>
			<point x="901" y="266" type="curve" smooth="yes"/>
			<point x="901" y="421"/>
			<point x="810" y="545"/>
			<point x="632" y="545" type="curve" smooth="yes"/>
			<point x="551" y="545"/>
			<point x="488" y="520"/>
			<point x="444" y="478" type="curve"/>
			<point x="415" y="520"/>
			<point x="361" y="545"/>
			<point x="271" y="545" type="curve" smooth="yes"/>
			<point x="177" y="545"/>
			<point x="104" y="505"/>
			<point x="72" y="431" type="curve" smooth="yes"/>
			<point x="69" y="424"/>
			<point x="68" y="418"/>
			<point x="68" y="410" type="curve" smooth="yes"/>
			<point x="68" y="381"/>
			<point x="92" y="357"/>
			<point x="122" y="357" type="curve" smooth="yes"/>
			<point x="146" y="357"/>
			<point x="167" y="373"/>
			<point x="173" y="395" type="curve" smooth="yes"/>
			<point x="186" y="442"/>
			<point x="218" y="465"/>
			<point x="269" y="465" type="curve" smooth="yes"/>
			<point x="332" y="465"/>
			<point x="359" y="435"/>
			<point x="362" y="392" type="curve" smooth="yes"/>
			<point x="364" y="372"/>
			<point x="364" y="354"/>
			<point x="364" y="334" type="curve" smooth="yes"/>
			<point x="364" y="321" type="line"/>
			<point x="330" y="321" type="line" smooth="yes"/>
			<point x="129" y="321"/>
			<point x="35" y="257"/>
		</contour>
		<contour>
			<point x="151" y="148" type="curve" smooth="yes"/>
			<point x="151" y="229"/>
			<point x="235" y="258"/>
			<point x="363" y="248" type="curve"/>
			<point x="364" y="245"/>
			<point x="364" y="241"/>
			<point x="364" y="238" type="curve" smooth="yes"/>
			<point x="364" y="199" type="line" smooth="yes"/>
			<point x="364" y="113"/>
			<point x="315" y="66"/>
			<point x="246" y="66" type="curve" smooth="yes"/>
			<point x="188" y="66"/>
			<point x="151" y="92"/>
		</contour>
		<contour>
			<point x="479" y="266" type="curve" smooth="yes"/>
			<point x="479" y="386"/>
			<point x="535" y="465"/>
			<point x="632" y="465" type="curve" smooth="yes"/>
			<point x="728" y="465"/>
			<point x="784" y="386"/>
			<point x="784" y="266" type="curve" smooth="yes"/>
			<point x="784" y="146"/>
			<point x="728" y="66"/>
			<point x="632" y="66" type="curve" smooth="yes"/>
			<point x="535" y="66"/>
			<point x="479" y="146"/>
		</contour>
	</outline>
</glyph>
<glyph name="uF1440" format="2">
	<advance width="1240"/>
	<unicode hex="F1440"/>
	<outline>
		<contour>
			<point x="379" y="704" type="curve" smooth="yes"/>
			<point x="185" y="704"/>
			<point x="49" y="559"/>
			<point x="49" y="342" type="curve" smooth="yes"/>
			<point x="49" y="132"/>
			<point x="170" y="-14"/>
			<point x="367" y="-14" type="curve" smooth="yes"/>
			<point x="485" y="-14"/>
			<point x="569" y="30"/>
			<point x="617" y="98" type="curve"/>
			<point x="673" y="27"/>
			<point x="760" y="-14"/>
			<point x="874" y="-14" type="curve" smooth="yes"/>
			<point x="900" y="-14"/>
			<point x="923" y="-12"/>
			<point x="945" y="-7" type="curve" smooth="yes"/>
			<point x="973" y="-1"/>
			<point x="990" y="2"/>
			<point x="1018" y="2" type="curve" smooth="yes"/>
			<point x="1049" y="2"/>
			<point x="1075" y="-4"/>
			<point x="1123" y="-32" type="curve" smooth="yes"/>
			<point x="1131" y="-37"/>
			<point x="1139" y="-39"/>
			<point x="1148" y="-39" type="curve" smooth="yes"/>
			<point x="1175" y="-39"/>
			<point x="1196" y="-17"/>
			<point x="1196" y="10" type="curve" smooth="yes"/>
			<point x="1196" y="27"/>
			<point x="1187" y="42"/>
			<point x="1174" y="51" type="curve" smooth="yes"/>
			<point x="1145" y="70"/>
			<point x="1117" y="82"/>
			<point x="1087" y="87" type="curve"/>
			<point x="1165" y="144"/>
			<point x="1206" y="238"/>
			<point x="1206" y="345" type="curve" smooth="yes"/>
			<point x="1206" y="559"/>
			<point x="1085" y="704"/>
			<point x="874" y="704" type="curve" smooth="yes"/>
			<point x="763" y="704"/>
			<point x="679" y="663"/>
			<point x="623" y="594" type="curve"/>
			<point x="578" y="661"/>
			<point x="497" y="704"/>
		</contour>
		<contour>
			<point x="168" y="347" type="curve" smooth="yes"/>
			<point x="168" y="510"/>
			<point x="249" y="620"/>
			<point x="377" y="620" type="curve" smooth="yes"/>
			<point x="466" y="620"/>
			<point x="521" y="577"/>
			<point x="547" y="506" type="curve" smooth="yes"/>
			<point x="556" y="479"/>
			<point x="563" y="457"/>
			<point x="589" y="447" type="curve" smooth="yes"/>
			<point x="598" y="443"/>
			<point x="608" y="441"/>
			<point x="618" y="441" type="curve" smooth="yes"/>
			<point x="652" y="441"/>
			<point x="670" y="466"/>
			<point x="683" y="494" type="curve" smooth="yes"/>
			<point x="719" y="575"/>
			<point x="787" y="620"/>
			<point x="874" y="620" type="curve" smooth="yes"/>
			<point x="1008" y="620"/>
			<point x="1088" y="517"/>
			<point x="1088" y="345" type="curve" smooth="yes"/>
			<point x="1088" y="174"/>
			<point x="1008" y="70"/>
			<point x="874" y="70" type="curve" smooth="yes"/>
			<point x="784" y="70"/>
			<point x="712" y="113"/>
			<point x="677" y="197" type="curve" smooth="yes"/>
			<point x="667" y="222"/>
			<point x="641" y="240"/>
			<point x="612" y="240" type="curve" smooth="yes"/>
			<point x="602" y="240"/>
			<point x="591" y="240"/>
			<point x="580" y="238" type="curve" smooth="yes"/>
			<point x="558" y="233"/>
			<point x="551" y="212"/>
			<point x="541" y="184" type="curve" smooth="yes"/>
			<point x="515" y="114"/>
			<point x="460" y="70"/>
			<point x="372" y="70" type="curve" smooth="yes"/>
			<point x="250" y="70"/>
			<point x="168" y="176"/>
		</contour>
	</outline>
</glyph>
<glyph name="uF1610" format="2">
	<advance width="988"/>
	<unicode hex="F1610"/>
	<outline>
		<contour>
			<point x="383" y="92" type="curve" smooth="yes"/>
			<point x="361" y="88"/>
			<point x="338" y="88"/>
			<point x="304" y="88" type="curve" smooth="yes"/>
			<point x="205" y="88" type="line"/>
			<point x="205" y="603" type="line"/>
			<point x="308" y="603" type="line" smooth="yes"/>
			<point x="341" y="603"/>
			<point x="365" y="602"/>
			<point x="387" y="598" type="curve" smooth="yes"/>
			<point x="497" y="582"/>
			<point x="566" y="498"/>
			<point x="566" y="353" type="curve" smooth="yes"/>
			<point x="566" y="200"/>
			<point x="494" y="108"/>
		</contour>
		<contour>
			<point x="153" y="0" type="curve" smooth="yes"/>
			<point x="923" y="1" type="line" smooth="yes"/>
			<point x="947" y="1"/>
			<point x="966" y="21"/>
			<point x="966" y="45" type="curve" smooth="yes"/>
			<point x="966" y="69"/>
			<point x="946" y="89"/>
			<point x="922" y="89" type="curve" smooth="yes"/>
			<point x="584" y="88" type="line"/>
			<point x="635" y="138"/>
			<point x="670" y="208"/>
			<point x="681" y="297" type="curve"/>
			<point x="684" y="302" type="line"/>
			<point x="885" y="303" type="line" smooth="yes"/>
			<point x="909" y="303"/>
			<point x="928" y="322"/>
			<point x="928" y="346" type="curve" smooth="yes"/>
			<point x="928" y="370"/>
			<point x="909" y="390"/>
			<point x="885" y="390" type="curve" smooth="yes"/>
			<point x="684" y="389" type="line"/>
			<point x="683" y="392" type="line"/>
			<point x="676" y="485"/>
			<point x="643" y="555"/>
			<point x="593" y="603" type="curve"/>
			<point x="913" y="604" type="line" smooth="yes"/>
			<point x="937" y="604"/>
			<point x="956" y="623"/>
			<point x="956" y="647" type="curve" smooth="yes"/>
			<point x="956" y="671"/>
			<point x="937" y="691"/>
			<point x="913" y="691" type="curve" smooth="yes"/>
			<point x="153" y="690" type="line" smooth="yes"/>
			<point x="116" y="690"/>
			<point x="95" y="669"/>
			<point x="95" y="632" type="curve" smooth="yes"/>
			<point x="95" y="58" type="line" smooth="yes"/>
			<point x="95" y="21"/>
			<point x="116" y="0"/>
		</contour>
	</outline>
</glyph>
<glyph name="uF1B00" format="2">
	<advance width="1392"/>
	<unicode hex="F1B00"/>
	<outline>
		<contour>
			<point x="526" y="279" type="curve" smooth="yes"/>
			<point x="526" y="429"/>
			<point x="443" y="545"/>
			<point x="289" y="545" type="curve" smooth="yes"/>
			<point x="136" y="545"/>
			<point x="29" y="432"/>
			<point x="29" y="264" type="curve" smooth="yes"/>
			<point x="29" y="76"/>
			<point x="136" y="-14"/>
			<point x="278" y="-14" type="curve" smooth="yes"/>
			<point x="369" y="-14"/>
			<point x="450" y="23"/>
			<point x="493" y="102" type="curve" smooth="yes"/>
			<point x="497" y="110"/>
			<point x="499" y="117"/>
			<point x="499" y="126" type="curve" smooth="yes"/>
			<point x="499" y="155"/>
			<point x="475" y="178"/>
			<point x="447" y="178" type="curve" smooth="yes"/>
			<point x="425" y="178"/>
			<point x="406" y="164"/>
			<point x="399" y="144" type="curve" smooth="yes"/>
			<point x="379" y="93"/>
			<point x="335" y="66"/>
			<point x="282" y="66" type="curve" smooth="yes"/>
			<point x="210" y="66"/>
			<point x="152" y="108"/>
			<point x="143" y="235" type="curve"/>
			<point x="467" y="235" type="line" smooth="yes"/>
			<point x="504" y="235"/>
			<point x="526" y="279"/>
		</contour>
		<contour>
			<point x="285" y="465" type="curve" smooth="yes"/>
			<point x="362" y="465"/>
			<point x="405" y="410"/>
			<point x="413" y="312" type="curve"/>
			<point x="144" y="312" type="line"/>
			<point x="156" y="414"/>
			<point x="210" y="465"/>
		</contour>
		<contour>
			<point x="762" y="172" type="curve" smooth="yes"/>
			<point x="762" y="450" type="line"/>
			<point x="1297" y="450" type="line" smooth="yes"/>
			<point x="1334" y="450"/>
			<point x="1356" y="494"/>
			<point x="1356" y="494" type="curve" smooth="yes"/>
			<point x="1356" y="644"/>
			<point x="1273" y="760"/>
			<point x="1119" y="760" type="curve" smooth="yes"/>
			<point x="981" y="760"/>
			<point x="881" y="668"/>
			<point x="862" y="527" type="curve"/>
			<point x="762" y="527" type="line"/>
			<point x="762" y="605" type="line" smooth="yes"/>
			<point x="762" y="635"/>
			<point x="738" y="660"/>
			<point x="708" y="660" type="curve" smooth="yes"/>
			<point x="677" y="660"/>
			<point x="653" y="635"/>
			<point x="653" y="605" type="curve" smooth="yes"/>
			<point x="653" y="527" type="line"/>
			<point x="611" y="527" type="line" smooth="yes"/>
			<point x="590" y="527"/>
			<point x="573" y="510"/>
			<point x="573" y="489" type="curve" smooth="yes"/>
			<point x="573" y="467"/>
			<point x="590" y="450"/>
			<point x="611" y="450" type="curve" smooth="yes"/>
			<point x="653" y="450" type="line"/>
			<point x="653" y="162" type="line" smooth="yes"/>
			<point x="653" y="132"/>
			<point x="653" y="109"/>
			<point x="654" y="91" type="curve" smooth="yes"/>
			<point x="659" y="21"/>
			<point x="695" y="-10"/>
			<point x="778" y="-10" type="curve" smooth="yes"/>
			<point x="795" y="-10"/>
			<point x="811" y="-9"/>
			<point x="829" y="-8" type="curve" smooth="yes"/>
			<point x="849" y="-6"/>
			<point x="865" y="11"/>
			<point x="865" y="31" type="curve" smooth="yes"/>
			<point x="865" y="53"/>
			<point x="847" y="70"/>
			<point x="826" y="70" type="curve" smooth="yes"/>
			<point x="780" y="71"/>
			<point x="766" y="86"/>
			<point x="763" y="128" type="curve" smooth="yes"/>
			<point x="762" y="142"/>
			<point x="762" y="154"/>
		</contour>
		<contour>
			<point x="974" y="527" type="line"/>
			<point x="986" y="629"/>
			<point x="1040" y="680"/>
			<point x="1115" y="680" type="curve" smooth="yes"/>
			<point x="1192" y="680"/>
			<point x="1235" y="625"/>
			<point x="1243" y="527" type="curve"/>
		</contour>
		<contour>
			<point x="182" y="600" type="curve" smooth="yes"/>
			<point x="385" y="600" type="line" smooth="yes"/>
			<point x="402" y="600"/>
			<point x="417" y="614"/>
			<point x="417" y="632" type="curve" smooth="yes"/>
			<point x="417" y="649"/>
			<point x="402" y="663"/>
			<point x="385" y="663" type="curve" smooth="yes"/>
			<point x="182" y="663" type="line" smooth="yes"/>
			<point x="165" y="663"/>
			<point x="151" y="649"/>
			<point x="151" y="632" type="curve" smooth="yes"/>
			<point x="151" y="614"/>
			<point x="165" y="600"/>
		</contour>
	</outline>
</glyph>
<glyph name="uF2030" format="2">
	<advance width="1385"/>
	<unicode hex="F2030"/>
	<outline>
		<contour>
			<point x="205" y="389" type="line"/>
			<point x="205" y="603" type="line"/>
			<point x="561" y="603" type="line"/>
			<point x="561" y="50" type="line" smooth="yes"/>
			<point x="561" y="20"/>
			<point x="586" y="-6"/>
			<point x="616" y="-6" type="curve" smooth="yes"/>
			<point x="646" y="-6"/>
			<point x="671" y="20"/>
			<point x="671" y="50" type="curve" smooth="yes"/>
			<point x="671" y="302" type="line"/>
			<point x="880" y="302" type="line"/>
			<point x="880" y="58" type="line" smooth="yes"/>
			<point x="880" y="21"/>
			<point x="901" y="0"/>
			<point x="938" y="0" type="curve" smooth="yes"/>
			<point x="1319" y="0" type="line" smooth="yes"/>
			<point x="1343" y="0"/>
			<point x="1363" y="20"/>
			<point x="1363" y="44" type="curve" smooth="yes"/>
			<point x="1363" y="68"/>
			<point x="1343" y="88"/>
			<point x="1319" y="88" type="curve" smooth="yes"/>
			<point x="990" y="88" type="line"/>
			<point x="990" y="302" type="line"/>
			<point x="1281" y="302" type="line" smooth="yes"/>
			<point x="1305" y="302"/>
			<point x="1325" y="321"/>
			<point x="1325" y="346" type="curve" smooth="yes"/>
			<point x="1325" y="370"/>
			<point x="1305" y="389"/>
			<point x="1281" y="389" type="curve" smooth="yes"/>
			<point x="990" y="389" type="line"/>
			<point x="990" y="603" type="line"/>
			<point x="1309" y="603" type="line" smooth="yes"/>
			<point x="1333" y="603"/>
			<point x="1353" y="622"/>
			<point x="1353" y="647" type="curve" smooth="yes"/>
			<point x="1353" y="671"/>
			<point x="1333" y="690"/>
			<point x="1309" y="690" type="curve" smooth="yes"/>
			<point x="153" y="690" type="line" smooth="yes"/>
			<point x="116" y="690"/>
			<point x="95" y="669"/>
			<point x="95" y="632" type="curve" smooth="yes"/>
			<point x="95" y="50" type="line" smooth="yes"/>
			<point x="95" y="20"/>
			<point x="120" y="-6"/>
			<point x="150" y="-6" type="curve" smooth="yes"/>
			<point x="180" y="-6"/>
			<point x="205" y="20"/>
			<point x="205" y="50" type="curve" smooth="yes"/>
			<point x="205" y="302" type="line"/>
			<point x="486" y="302" type="line" smooth="yes"/>
			<point x="510" y="302"/>
			<point x="530" y="321"/>
			<point x="530" y="346" type="curve" smooth="yes"/>
			<point x="530" y="370"/>
			<point x="510" y="389"/>
			<point x="486" y="389" type="curve" smooth="yes"/>
		</contour>
		<contour>
			<point x="671" y="389" type="line"/>
			<point x="671" y="603" type="line"/>
			<point x="880" y="603" type="line"/>
			<point x="880" y="389" type="line"/>
		</contour>
	</outline>
</glyph>
<glyph name="uF2050" format="2">
	<advance width="1063"/>
	<unicode hex="F2050"/>
	<outline>
		<contour>
			<point x="205" y="389" type="line"/>
			<point x="205" y="603" type="line"/>
			<point x="473" y="603" type="line"/>
			<point x="668" y="47" type="line" smooth="yes"/>
			<point x="679" y="16"/>
			<point x="701" y="0"/>
			<point x="734" y="0" type="curve" smooth="yes"/>
			<point x="777" y="0" type="line" smooth="yes"/>
			<point x="810" y="0"/>
			<point x="832" y="14"/>
			<point x="843" y="46" type="curve" smooth="yes"/>
			<point x="1050" y="622" type="line" smooth="yes"/>
			<point x="1052" y="627"/>
			<point x="1053" y="634"/>
			<point x="1053" y="641" type="curve" smooth="yes"/>
			<point x="1053" y="671"/>
			<point x="1028" y="695"/>
			<point x="998" y="695" type="curve" smooth="yes"/>
			<point x="974" y="695"/>
			<point x="953" y="679"/>
			<point x="946" y="658" type="curve" smooth="yes"/>
			<point x="757" y="84" type="line"/>
			<point x="577" y="642" type="line" smooth="yes"/>
			<point x="567" y="674"/>
			<point x="546" y="690"/>
			<point x="512" y="690" type="curve" smooth="yes"/>
			<point x="153" y="690" type="line" smooth="yes"/>
			<point x="116" y="690"/>
			<point x="95" y="669"/>
			<point x="95" y="632" type="curve" smooth="yes"/>
			<point x="95" y="50" type="line" smooth="yes"/>
			<point x="95" y="20"/>
			<point x="120" y="-6"/>
			<point x="150" y="-6" type="curve" smooth="yes"/>
			<point x="180" y="-6"/>
			<point x="205" y="20"/>
			<point x="205" y="50" type="curve" smooth="yes"/>
			<point x="205" y="302" type="line"/>
			<point x="486" y="302" type="line" smooth="yes"/>
			<point x="510" y="302"/>
			<point x="530" y="321"/>
			<point x="530" y="346" type="curve" smooth="yes"/>
			<point x="530" y="370"/>
			<point x="510" y="389"/>
			<point x="486" y="389" type="curve" smooth="yes"/>
		</contour>
	</outline>
</glyph>
<glyph name="uF2640" format="2">
	<advance width="872"/>
	<unicode hex="F2640"/>
	<outline>
		<contour>
			<point x="841" y="91"/>
			<point x="816" y="91" type="curve" smooth="yes"/>
			<point x="489" y="91" type="line"/>
			<point x="489" y="641" type="line" smooth="yes"/>
			<point x="489" y="671"/>
			<point x="464" y="696"/>
			<point x="434" y="696" type="curve" smooth="yes"/>
			<point x="404" y="696"/>
			<point x="379" y="671"/>
			<point x="379" y="641" type="curve" smooth="yes"/>
			<point x="379" y="58" type="line" smooth="yes"/>
			<point x="379" y="21"/>
			<point x="400" y="0"/>
			<point x="437" y="0" type="curve" smooth="yes"/>
			<point x="816" y="0" type="line" smooth="yes"/>
			<point x="841" y="0"/>
			<point x="862" y="20"/>
			<point x="862" y="46" type="curve" smooth="yes"/>
			<point x="862" y="71"/>
		</contour>
		<contour>
			<point x="210" y="180"/>
			<point x="210" y="210" type="curve" smooth="yes"/>
			<point x="210" y="642" type="line" smooth="yes"/>
			<point x="210" y="672"/>
			<point x="185" y="697"/>
			<point x="155" y="697" type="curve" smooth="yes"/>
			<point x="125" y="697"/>
			<point x="100" y="672"/>
			<point x="100" y="642" type="curve" smooth="yes"/>
			<point x="100" y="210" type="line" smooth="yes"/>
			<point x="100" y="180"/>
			<point x="125" y="155"/>
			<point x="155" y="155" type="curve" smooth="yes"/>
			<point x="185" y="155"/>
		</contour>
		<contour>
			<point x="119" y="753"/>
			<point x="151" y="745" type="curve" smooth="yes"/>
			<point x="181" y="737"/>
			<point x="211" y="761"/>
			<point x="211" y="792" type="curve" smooth="yes"/>
			<point x="211" y="833" type="line" smooth="yes"/>
			<point x="211" y="864"/>
			<point x="181" y="888"/>
			<point x="151" y="880" type="curve" smooth="yes"/>
			<point x="119" y="872"/>
			<point x="95" y="846"/>
			<point x="95" y="813" type="curve" smooth="yes"/>
			<point x="95" y="780"/>
		</contour>
	</outline>
</glyph>
<glyph name="uF2740" format="2">
	<advance width="439"/>
	<unicode hex="F2740"/>
	<outline>
		<contour>
			<point x="179" y="20"/>
			<point x="179" y="50" type="curve" smooth="yes"/>
			<point x="179" y="482" type="line" smooth="yes"/>
			<point x="179" y="512"/>
			<point x="154" y="537"/>
			<point x="124" y="537" type="curve" smooth="yes"/>
			<point x="94" y="537"/>
			<point x="69" y="512"/>
			<point x="69" y="482" type="curve" smooth="yes"/>
			<point x="69" y="50" type="line" smooth="yes"/>
			<point x="69" y="20"/>
			<point x="94" y="-6"/>
			<point x="124" y="-6" type="curve" smooth="yes"/>
			<point x="154" y="-6"/>
		</contour>
		<contour>
			<point x="88" y="593"/>
			<point x="120" y="585" type="curve" smooth="yes"/>
			<point x="150" y="577"/>
			<point x="180" y="601"/>
			<point x="180" y="632" type="curve" smooth="yes"/>
			<point x="180" y="673" type="line" smooth="yes"/>
			<point x="180" y="704"/>
			<point x="150" y="728"/>
			<point x="120" y="720" type="curve" smooth="yes"/>
			<point x="88" y="712"/>
			<point x="64" y="686"/>
			<point x="64" y="653" type="curve" smooth="yes"/>
			<point x="64" y="620"/>
		</contour>
		<contour>
			<point x="314" y="158" type="curve" smooth="yes"/>
			<point x="314" y="731" type="line"/>
			<point x="422" y="731" type="line"/>
			<point x="422" y="155" type="line" smooth="yes"/>
			<point x="422" y="123"/>
			<point x="422" y="99"/>
			<point x="421" y="79" type="curve" smooth="yes"/>
			<point x="418" y="11"/>
			<point x="379" y="-10"/>
			<point x="322" y="-10" type="curve" smooth="yes"/>
			<point x="297" y="-10"/>
			<point x="273" y="-8"/>
			<point x="251" y="-5" type="curve"/>
			<point x="251" y="72" type="line"/>
			<point x="297" y="68"/>
			<point x="312" y="78"/>
			<point x="313" y="108" type="curve" smooth="yes"/>
			<point x="314" y="124"/>
			<point x="314" y="140"/>
		</contour>
	</outline>
</glyph>
<glyph name="uF3620" format="2">
	<advance width="1064"/>
	<unicode hex="F3620"/>
	<outline>
		<contour>
			<point x="554" y="0" type="curve" smooth="yes"/>
			<point x="998" y="0" type="line" smooth="yes"/>
			<point x="1022" y="0"/>
			<point x="1042" y="20"/>
			<point x="1042" y="44" type="curve" smooth="yes"/>
			<point x="1042" y="68"/>
			<point x="1022" y="88"/>
			<point x="998" y="88" type="curve" smooth="yes"/>
			<point x="669" y="88" type="line"/>
			<point x="669" y="302" type="line"/>
			<point x="960" y="302" type="line" smooth="yes"/>
			<point x="984" y="302"/>
			<point x="1004" y="321"/>
			<point x="1004" y="346" type="curve" smooth="yes"/>
			<point x="1004" y="370"/>
			<point x="984" y="389"/>
			<point x="960" y="389" type="curve" smooth="yes"/>
			<point x="669" y="389" type="line"/>
			<point x="669" y="603" type="line"/>
			<point x="988" y="603" type="line" smooth="yes"/>
			<point x="1012" y="603"/>
			<point x="1032" y="622"/>
			<point x="1032" y="647" type="curve" smooth="yes"/>
			<point x="1032" y="671"/>
			<point x="1012" y="690"/>
			<point x="988" y="690" type="curve" smooth="yes"/>
			<point x="614" y="690" type="line" smooth="yes"/>
			<point x="577" y="690"/>
			<point x="556" y="669"/>
			<point x="556" y="632" type="curve" smooth="yes"/>
			<point x="556" y="358" type="line" smooth="yes"/>
			<point x="556" y="287"/>
			<point x="557" y="195"/>
			<point x="559" y="117" type="curve"/>
			<point x="272" y="649" type="line" smooth="yes"/>
			<point x="257" y="678"/>
			<point x="235" y="690"/>
			<point x="203" y="690" type="curve" smooth="yes"/>
			<point x="153" y="690" type="line" smooth="yes"/>
			<point x="116" y="690"/>
			<point x="95" y="669"/>
			<point x="95" y="632" type="curve" smooth="yes"/>
			<point x="95" y="50" type="line" smooth="yes"/>
			<point x="95" y="20"/>
			<point x="120" y="-6"/>
			<point x="150" y="-6" type="curve" smooth="yes"/>
			<point x="180" y="-6"/>
			<point x="205" y="20"/>
			<point x="205" y="50" type="curve" smooth="yes"/>
			<point x="205" y="330" type="line" smooth="yes"/>
			<point x="205" y="401"/>
			<point x="204" y="490"/>
			<point x="201" y="569" type="curve"/>
			<point x="485" y="41" type="line" smooth="yes"/>
			<point x="500" y="12"/>
			<point x="522" y="0"/>
		</contour>
	</outline>
</glyph>
<glyph name="uF3720" format="2">
	<advance width="964"/>
	<unicode hex="F3720"/>
	<outline>
		<contour>
			<point x="928" y="279" type="curve" smooth="yes"/>
			<point x="928" y="429"/>
			<point x="845" y="545"/>
			<point x="691" y="545" type="curve" smooth="yes"/>
			<point x="618" y="545"/>
			<point x="555" y="519"/>
			<point x="510" y="474" type="curve"/>
			<point x="479" y="519"/>
			<point x="425" y="545"/>
			<point x="349" y="545" type="curve" smooth="yes"/>
			<point x="309" y="545"/>
			<point x="278" y="540"/>
			<point x="246" y="524" type="curve" smooth="yes"/>
			<point x="222" y="511"/>
			<point x="210" y="496"/>
			<point x="196" y="472" type="curve" smooth="yes"/>
			<point x="179" y="443" type="line"/>
			<point x="179" y="482" type="line" smooth="yes"/>
			<point x="179" y="512"/>
			<point x="154" y="537"/>
			<point x="124" y="537" type="curve" smooth="yes"/>
			<point x="94" y="537"/>
			<point x="69" y="512"/>
			<point x="69" y="482" type="curve" smooth="yes"/>
			<point x="69" y="50" type="line" smooth="yes"/>
			<point x="69" y="20"/>
			<point x="94" y="-6"/>
			<point x="124" y="-6" type="curve" smooth="yes"/>
			<point x="154" y="-6"/>
			<point x="179" y="20"/>
			<point x="179" y="50" type="curve" smooth="yes"/>
			<point x="179" y="238" type="line" smooth="yes"/>
			<point x="179" y="404"/>
			<point x="241" y="464"/>
			<point x="317" y="464" type="curve" smooth="yes"/>
			<point x="392" y="464"/>
			<point x="424" y="422"/>
			<point x="429" y="362" type="curve" smooth="yes"/>
			<point x="431" y="335"/>
			<point x="431" y="312"/>
			<point x="431" y="287" type="curve" smooth="yes"/>
			<point x="431" y="50" type="line" smooth="yes"/>
			<point x="431" y="20"/>
			<point x="456" y="-6"/>
			<point x="486" y="-6" type="curve" smooth="yes"/>
			<point x="516" y="-6"/>
			<point x="541" y="20"/>
			<point x="541" y="50" type="curve" smooth="yes"/>
			<point x="541" y="235" type="line"/>
			<point x="869" y="235" type="line" smooth="yes"/>
			<point x="906" y="235"/>
			<point x="928" y="279"/>
		</contour>
		<contour>
			<point x="546" y="312" type="line"/>
			<point x="558" y="414"/>
			<point x="612" y="465"/>
			<point x="687" y="465" type="curve" smooth="yes"/>
			<point x="764" y="465"/>
			<point x="807" y="410"/>
			<point x="815" y="312" type="curve"/>
		</contour>
	</outline>
</glyph>
<glyph name="uF4010" format="2">
	<advance width="1141"/>
	<unicode hex="F4010"/>
	<outline>
		<contour>
			<point x="415" y="686" type="curve" smooth="yes"/>
			<point x="394" y="689"/>
			<point x="376" y="690"/>
			<point x="356" y="690" type="curve" smooth="yes"/>
			<point x="153" y="690" type="line" smooth="yes"/>
			<point x="116" y="690"/>
			<point x="95" y="669"/>
			<point x="95" y="632" type="curve" smooth="yes"/>
			<point x="95" y="50" type="line" smooth="yes"/>
			<point x="95" y="20"/>
			<point x="120" y="-6"/>
			<point x="150" y="-6" type="curve" smooth="yes"/>
			<point x="180" y="-6"/>
			<point x="205" y="20"/>
			<point x="205" y="50" type="curve" smooth="yes"/>
			<point x="205" y="272" type="line"/>
			<point x="321" y="272" type="line" smooth="yes"/>
			<point x="358" y="272"/>
			<point x="383" y="272"/>
			<point x="415" y="276" type="curve" smooth="yes"/>
			<point x="463" y="282"/>
			<point x="507" y="302"/>
			<point x="539" y="334" type="curve"/>
			<point x="632" y="53" type="line" smooth="yes"/>
			<point x="643" y="19"/>
			<point x="675" y="-5"/>
			<point x="712" y="-5" type="curve" smooth="yes"/>
			<point x="750" y="-5"/>
			<point x="782" y="19"/>
			<point x="793" y="53" type="curve" smooth="yes"/>
			<point x="887" y="340" type="line" smooth="yes"/>
			<point x="913" y="418"/>
			<point x="942" y="513"/>
			<point x="962" y="586" type="curve"/>
			<point x="960" y="513"/>
			<point x="960" y="418"/>
			<point x="960" y="339" type="curve" smooth="yes"/>
			<point x="960" y="49" type="line" smooth="yes"/>
			<point x="960" y="19"/>
			<point x="984" y="-6"/>
			<point x="1015" y="-6" type="curve" smooth="yes"/>
			<point x="1045" y="-6"/>
			<point x="1069" y="19"/>
			<point x="1069" y="49" type="curve" smooth="yes"/>
			<point x="1069" y="632" type="line" smooth="yes"/>
			<point x="1069" y="669"/>
			<point x="1048" y="690"/>
			<point x="1011" y="690" type="curve" smooth="yes"/>
			<point x="947" y="690" type="line" smooth="yes"/>
			<point x="913" y="690"/>
			<point x="892" y="674"/>
			<point x="882" y="642" type="curve" smooth="yes"/>
			<point x="715" y="98" type="line"/>
			<point x="597" y="481" type="line"/>
			<point x="597" y="603"/>
			<point x="523" y="672"/>
		</contour>
		<contour>
			<point x="205" y="361" type="line"/>
			<point x="205" y="601" type="line"/>
			<point x="324" y="601" type="line" smooth="yes"/>
			<point x="352" y="601"/>
			<point x="376" y="600"/>
			<point x="394" y="597" type="curve" smooth="yes"/>
			<point x="442" y="588"/>
			<point x="481" y="554"/>
			<point x="481" y="481" type="curve" smooth="yes"/>
			<point x="481" y="408"/>
			<point x="442" y="374"/>
			<point x="394" y="365" type="curve" smooth="yes"/>
			<point x="376" y="362"/>
			<point x="352" y="361"/>
			<point x="324" y="361" type="curve" smooth="yes"/>
		</contour>
	</outline>
</glyph>
<glyph name="uF4410" format="2">
	<advance width="912"/>
	<unicode hex="F4410"/>
	<outline>
		<contour>
			<point x="570" y="178" type="curve" smooth="yes"/>
			<point x="565" y="227"/>
			<point x="552" y="271"/>
			<point x="524" y="302" type="curve"/>
			<point x="808" y="302" type="line" smooth="yes"/>
			<point x="832" y="302"/>
			<point x="852" y="321"/>
			<point x="852" y="346" type="curve" smooth="yes"/>
			<point x="852" y="370"/>
			<point x="832" y="389"/>
			<point x="808" y="389" type="curve" smooth="yes"/>
			<point x="562" y="389" type="line"/>
			<point x="587" y="417"/>
			<point x="603" y="454"/>
			<point x="603" y="502" type="curve" smooth="yes"/>
			<point x="603" y="543"/>
			<point x="594" y="577"/>
			<point x="578" y="603" type="curve"/>
			<point x="836" y="603" type="line" smooth="yes"/>
			<point x="860" y="603"/>
			<point x="880" y="622"/>
			<point x="880" y="647" type="curve" smooth="yes"/>
			<point x="880" y="671"/>
			<point x="860" y="690"/>
			<point x="836" y="690" type="curve" smooth="yes"/>
			<point x="153" y="690" type="line" smooth="yes"/>
			<point x="116" y="690"/>
			<point x="95" y="669"/>
			<point x="95" y="632" type="curve" smooth="yes"/>
			<point x="95" y="50" type="line" smooth="yes"/>
			<point x="95" y="20"/>
			<point x="120" y="-6"/>
			<point x="150" y="-6" type="curve" smooth="yes"/>
			<point x="180" y="-6"/>
			<point x="205" y="20"/>
			<point x="205" y="50" type="curve" smooth="yes"/>
			<point x="205" y="288" type="line"/>
			<point x="312" y="288" type="line" smooth="yes"/>
			<point x="329" y="288"/>
			<point x="346" y="288"/>
			<point x="363" y="287" type="curve" smooth="yes"/>
			<point x="426" y="283"/>
			<point x="453" y="237"/>
			<point x="462" y="164" type="curve" smooth="yes"/>
			<point x="467" y="114"/>
			<point x="473" y="78"/>
			<point x="481" y="47" type="curve" smooth="yes"/>
			<point x="490" y="14"/>
			<point x="514" y="0"/>
			<point x="547" y="0" type="curve" smooth="yes"/>
			<point x="846" y="0" type="line" smooth="yes"/>
			<point x="870" y="0"/>
			<point x="890" y="20"/>
			<point x="890" y="44" type="curve" smooth="yes"/>
			<point x="890" y="68"/>
			<point x="870" y="88"/>
			<point x="846" y="88" type="curve" smooth="yes"/>
			<point x="582" y="88" type="line"/>
			<point x="577" y="113"/>
			<point x="573" y="143"/>
		</contour>
		<contour>
			<point x="205" y="373" type="line"/>
			<point x="205" y="603" type="line"/>
			<point x="327" y="603" type="line" smooth="yes"/>
			<point x="355" y="603"/>
			<point x="373" y="602"/>
			<point x="391" y="599" type="curve" smooth="yes"/>
			<point x="450" y="591"/>
			<point x="487" y="561"/>
			<point x="487" y="488" type="curve" smooth="yes"/>
			<point x="487" y="415"/>
			<point x="442" y="381"/>
			<point x="382" y="375" type="curve" smooth="yes"/>
			<point x="365" y="373"/>
			<point x="348" y="373"/>
			<point x="320" y="373" type="curve" smooth="yes"/>
		</contour>
	</outline>
</glyph>
<glyph name="uF4660" format="2">
	<advance width="937"/>
	<unicode hex="F4660"/>
	<outline>
		<contour>
			<point x="316" y="704" type="curve" smooth="yes"/>
			<point x="187" y="704"/>
			<point x="78" y="629"/>
			<point x="78" y="507" type="curve" smooth="yes"/>
			<point x="78" y="387"/>
			<point x="165" y="338"/>
			<point x="296" y="307" type="curve" smooth="yes"/>
			<point x="408" y="281"/>
			<point x="436" y="243"/>
			<point x="436" y="171" type="curve" smooth="yes"/>
			<point x="436" y="108"/>
			<point x="393" y="70"/>
			<point x="321" y="70" type="curve" smooth="yes"/>
			<point x="252" y="70"/>
			<point x="198" y="103"/>
			<point x="172" y="169" type="curve" smooth="yes"/>
			<point x="164" y="191"/>
			<point x="144" y="206"/>
			<point x="119" y="206" type="curve" smooth="yes"/>
			<point x="88" y="206"/>
			<point x="63" y="180"/>
			<point x="63" y="149" type="curve" smooth="yes"/>
			<point x="63" y="141"/>
			<point x="63" y="134"/>
			<point x="66" y="128" type="curve" smooth="yes"/>
			<point x="104" y="34"/>
			<point x="194" y="-14"/>
			<point x="321" y="-14" type="curve" smooth="yes"/>
			<point x="367" y="-14"/>
			<point x="409" y="-5"/>
			<point x="444" y="12" type="curve"/>
			<point x="444" y="-136" type="line" smooth="yes"/>
			<point x="444" y="-173"/>
			<point x="465" y="-194"/>
			<point x="502" y="-194" type="curve" smooth="yes"/>
			<point x="881" y="-194" type="line" smooth="yes"/>
			<point x="906" y="-194"/>
			<point x="927" y="-174"/>
			<point x="927" y="-149" type="curve" smooth="yes"/>
			<point x="927" y="-123"/>
			<point x="906" y="-103"/>
			<point x="881" y="-103" type="curve" smooth="yes"/>
			<point x="554" y="-103" type="line"/>
			<point x="554" y="496" type="line"/>
			<point x="540" y="616"/>
			<point x="469" y="704"/>
		</contour>
		<contour>
			<point x="194" y="525" type="curve" smooth="yes"/>
			<point x="194" y="590"/>
			<point x="245" y="620"/>
			<point x="310" y="620" type="curve" smooth="yes"/>
			<point x="390" y="620"/>
			<point x="436" y="573"/>
			<point x="444" y="494" type="curve"/>
			<point x="444" y="367" type="line"/>
			<point x="416" y="381"/>
			<point x="382" y="393"/>
			<point x="342" y="402" type="curve" smooth="yes"/>
			<point x="235" y="427"/>
			<point x="194" y="458"/>
		</contour>
	</outline>
</glyph>
<glyph name="uF46E0" format="2">
	<advance width="1738"/>
	<unicode hex="F46E0"/>
	<outline>
		<contour>
			<point x="316" y="704" type="curve" smooth="yes"/>
			<point x="187" y="704"/>
			<point x="78" y="629"/>
			<point x="78" y="507" type="curve" smooth="yes"/>
			<point x="78" y="387"/>
			<point x="165" y="338"/>
			<point x="296" y="307" type="curve" smooth="yes"/>
			<point x="408" y="281"/>
			<point x="450" y="244"/>
			<point x="450" y="172" type="curve" smooth="yes"/>
			<point x="450" y="109"/>
			<point x="393" y="70"/>
			<point x="321" y="70" type="curve" smooth="yes"/>
			<point x="252" y="70"/>
			<point x="198" y="103"/>
			<point x="172" y="169" type="curve" smooth="yes"/>
			<point x="164" y="191"/>
			<point x="144" y="206"/>
			<point x="119" y="206" type="curve" smooth="yes"/>
			<point x="88" y="206"/>
			<point x="63" y="180"/>
			<point x="63" y="149" type="curve" smooth="yes"/>
			<point x="63" y="141"/>
			<point x="63" y="134"/>
			<point x="66" y="128" type="curve" smooth="yes"/>
			<point x="104" y="34"/>
			<point x="194" y="-14"/>
			<point x="321" y="-14" type="curve" smooth="yes"/>
			<point x="455" y="-14"/>
			<point x="566" y="62"/>
			<point x="566" y="187" type="curve" smooth="yes"/>
			<point x="566" y="302"/>
			<point x="494" y="367"/>
			<point x="342" y="402" type="curve" smooth="yes"/>
			<point x="235" y="427"/>
			<point x="194" y="458"/>
			<point x="194" y="525" type="curve" smooth="yes"/>
			<point x="194" y="590"/>
			<point x="245" y="620"/>
			<point x="310" y="620" type="curve" smooth="yes"/>
			<point x="377" y="620"/>
			<point x="420" y="587"/>
			<point x="437" y="528" type="curve" smooth="yes"/>
			<point x="443" y="506"/>
			<point x="464" y="488"/>
			<point x="489" y="488" type="curve" smooth="yes"/>
			<point x="520" y="488"/>
			<point x="544" y="513"/>
			<point x="544" y="543" type="curve" smooth="yes"/>
			<point x="544" y="550"/>
			<point x="543" y="556"/>
			<point x="541" y="562" type="curve" smooth="yes"/>
			<point x="509" y="648"/>
			<point x="437" y="704"/>
		</contour>
		<contour>
			<point x="662" y="603" type="curve" smooth="yes"/>
			<point x="865" y="603" type="line"/>
			<point x="865" y="-242" type="line" smooth="yes"/>
			<point x="865" y="-279"/>
			<point x="886" y="-300"/>
			<point x="923" y="-300" type="curve" smooth="yes"/>
			<point x="1304" y="-300" type="line" smooth="yes"/>
			<point x="1328" y="-300"/>
			<point x="1348" y="-280"/>
			<point x="1348" y="-256" type="curve" smooth="yes"/>
			<point x="1348" y="-232"/>
			<point x="1328" y="-212"/>
			<point x="1304" y="-212" type="curve" smooth="yes"/>
			<point x="975" y="-212" type="line"/>
			<point x="975" y="2" type="line"/>
			<point x="1214" y="2" type="line"/>
			<point x="1255" y="-82"/>
			<point x="1343" y="-126"/>
			<point x="1464" y="-126" type="curve" smooth="yes"/>
			<point x="1598" y="-126"/>
			<point x="1709" y="-50"/>
			<point x="1709" y="75" type="curve" smooth="yes"/>
			<point x="1709" y="190"/>
			<point x="1637" y="255"/>
			<point x="1485" y="290" type="curve" smooth="yes"/>
			<point x="1378" y="315"/>
			<point x="1337" y="346"/>
			<point x="1337" y="413" type="curve" smooth="yes"/>
			<point x="1337" y="478"/>
			<point x="1388" y="508"/>
			<point x="1453" y="508" type="curve" smooth="yes"/>
			<point x="1520" y="508"/>
			<point x="1563" y="475"/>
			<point x="1580" y="416" type="curve" smooth="yes"/>
			<point x="1586" y="394"/>
			<point x="1607" y="376"/>
			<point x="1632" y="376" type="curve" smooth="yes"/>
			<point x="1663" y="376"/>
			<point x="1687" y="401"/>
			<point x="1687" y="431" type="curve" smooth="yes"/>
			<point x="1687" y="438"/>
			<point x="1686" y="444"/>
			<point x="1684" y="450" type="curve" smooth="yes"/>
			<point x="1652" y="536"/>
			<point x="1580" y="592"/>
			<point x="1459" y="592" type="curve" smooth="yes"/>
			<point x="1330" y="592"/>
			<point x="1221" y="517"/>
			<point x="1221" y="395" type="curve" smooth="yes"/>
			<point x="1221" y="390" type="line"/>
			<point x="974" y="390" type="line"/>
			<point x="974" y="603" type="line"/>
			<point x="1177" y="603" type="line" smooth="yes"/>
			<point x="1201" y="603"/>
			<point x="1221" y="622"/>
			<point x="1221" y="647" type="curve" smooth="yes"/>
			<point x="1221" y="671"/>
			<point x="1201" y="690"/>
			<point x="1177" y="690" type="curve" smooth="yes"/>
			<point x="662" y="690" type="line" smooth="yes"/>
			<point x="638" y="690"/>
			<point x="619" y="671"/>
			<point x="619" y="647" type="curve" smooth="yes"/>
			<point x="619" y="622"/>
			<point x="638" y="603"/>
		</contour>
		<contour>
			<point x="975" y="89" type="line"/>
			<point x="975" y="303" type="line"/>
			<point x="1244" y="303" type="line"/>
			<point x="1279" y="247"/>
			<point x="1348" y="216"/>
			<point x="1439" y="195" type="curve" smooth="yes"/>
			<point x="1551" y="169"/>
			<point x="1593" y="132"/>
			<point x="1593" y="60" type="curve" smooth="yes"/>
			<point x="1593" y="-3"/>
			<point x="1536" y="-42"/>
			<point x="1464" y="-42" type="curve" smooth="yes"/>
			<point x="1383" y="-42"/>
			<point x="1323" y="3"/>
			<point x="1305" y="88" type="curve"/>
			<point x="1304" y="88" type="line"/>
			<point x="1304" y="89" type="line"/>
		</contour>
	</outline>
</glyph>
<glyph name="uF4740" format="2">
	<advance width="859"/>
	<unicode hex="F4740"/>
	<outline>
		<contour>
			<point x="240" y="545" type="curve" smooth="yes"/>
			<point x="122" y="545"/>
			<point x="44" y="485"/>
			<point x="44" y="386" type="curve" smooth="yes"/>
			<point x="44" y="293"/>
			<point x="116" y="252"/>
			<point x="213" y="227" type="curve" smooth="yes"/>
			<point x="303" y="203"/>
			<point x="339" y="178"/>
			<point x="339" y="132" type="curve" smooth="yes"/>
			<point x="339" y="86"/>
			<point x="298" y="64"/>
			<point x="247" y="64" type="curve" smooth="yes"/>
			<point x="201" y="64"/>
			<point x="162" y="83"/>
			<point x="143" y="131" type="curve" smooth="yes"/>
			<point x="135" y="150"/>
			<point x="116" y="165"/>
			<point x="94" y="165" type="curve" smooth="yes"/>
			<point x="64" y="165"/>
			<point x="40" y="141"/>
			<point x="40" y="111" type="curve" smooth="yes"/>
			<point x="40" y="103"/>
			<point x="41" y="95"/>
			<point x="45" y="87" type="curve" smooth="yes"/>
			<point x="81" y="17"/>
			<point x="153" y="-14"/>
			<point x="243" y="-14" type="curve" smooth="yes"/>
			<point x="359" y="-14"/>
			<point x="450" y="37"/>
			<point x="450" y="140" type="curve" smooth="yes"/>
			<point x="450" y="234"/>
			<point x="389" y="280"/>
			<point x="273" y="310" type="curve" smooth="yes"/>
			<point x="194" y="331"/>
			<point x="155" y="351"/>
			<point x="155" y="399" type="curve" smooth="yes"/>
			<point x="155" y="439"/>
			<point x="180" y="468"/>
			<point x="232" y="468" type="curve" smooth="yes"/>
			<point x="269" y="468"/>
			<point x="296" y="453"/>
			<point x="313" y="425" type="curve" smooth="yes"/>
			<point x="331" y="396"/>
			<point x="346" y="379"/>
			<point x="379" y="379" type="curve" smooth="yes"/>
			<point x="764" y="379" type="line" smooth="yes"/>
			<point x="801" y="379"/>
			<point x="823" y="423"/>
			<point x="823" y="423" type="curve" smooth="yes"/>
			<point x="823" y="573"/>
			<point x="740" y="689"/>
			<point x="586" y="689" type="curve" smooth="yes"/>
			<point x="471" y="689"/>
			<point x="382" y="625"/>
			<point x="345" y="523" type="curve"/>
			<point x="316" y="537"/>
			<point x="281" y="545"/>
		</contour>
		<contour>
			<point x="441" y="456" type="line"/>
			<point x="453" y="558"/>
			<point x="507" y="609"/>
			<point x="582" y="609" type="curve" smooth="yes"/>
			<point x="659" y="609"/>
			<point x="702" y="554"/>
			<point x="710" y="456" type="curve"/>
		</contour>
	</outline>
</glyph>
<glyph name="uF47E0" format="2">
	<advance width="1529"/>
	<unicode hex="F47E0"/>
	<outline>
		<contour>
			<point x="240" y="545" type="curve" smooth="yes"/>
			<point x="122" y="545"/>
			<point x="44" y="485"/>
			<point x="44" y="386" type="curve" smooth="yes"/>
			<point x="44" y="293"/>
			<point x="116" y="252"/>
			<point x="213" y="227" type="curve" smooth="yes"/>
			<point x="303" y="203"/>
			<point x="339" y="178"/>
			<point x="339" y="132" type="curve" smooth="yes"/>
			<point x="339" y="86"/>
			<point x="298" y="64"/>
			<point x="247" y="64" type="curve" smooth="yes"/>
			<point x="201" y="64"/>
			<point x="162" y="83"/>
			<point x="143" y="131" type="curve" smooth="yes"/>
			<point x="135" y="150"/>
			<point x="116" y="165"/>
			<point x="94" y="165" type="curve" smooth="yes"/>
			<point x="64" y="165"/>
			<point x="40" y="141"/>
			<point x="40" y="111" type="curve" smooth="yes"/>
			<point x="40" y="103"/>
			<point x="41" y="95"/>
			<point x="45" y="87" type="curve" smooth="yes"/>
			<point x="81" y="17"/>
			<point x="153" y="-14"/>
			<point x="243" y="-14" type="curve" smooth="yes"/>
			<point x="359" y="-14"/>
			<point x="450" y="37"/>
			<point x="450" y="140" type="curve" smooth="yes"/>
			<point x="450" y="234"/>
			<point x="389" y="280"/>
			<point x="273" y="310" type="curve" smooth="yes"/>
			<point x="194" y="331"/>
			<point x="155" y="351"/>
			<point x="155" y="399" type="curve" smooth="yes"/>
			<point x="155" y="439"/>
			<point x="180" y="468"/>
			<point x="232" y="468" type="curve" smooth="yes"/>
			<point x="269" y="468"/>
			<point x="296" y="453"/>
			<point x="313" y="425" type="curve" smooth="yes"/>
			<point x="331" y="396"/>
			<point x="346" y="379"/>
			<point x="379" y="379" type="curve" smooth="yes"/>
			<point x="485" y="379" type="line"/>
			<point x="485" y="91" type="line" smooth="yes"/>
			<point x="485" y="61"/>
			<point x="485" y="38"/>
			<point x="486" y="20" type="curve" smooth="yes"/>
			<point x="491" y="-50"/>
			<point x="527" y="-81"/>
			<point x="610" y="-81" type="curve" smooth="yes"/>
			<point x="627" y="-81"/>
			<point x="643" y="-80"/>
			<point x="661" y="-79" type="curve" smooth="yes"/>
			<point x="681" y="-77"/>
			<point x="697" y="-60"/>
			<point x="697" y="-40" type="curve" smooth="yes"/>
			<point x="697" y="-18"/>
			<point x="679" y="-1"/>
			<point x="658" y="-1" type="curve" smooth="yes"/>
			<point x="612" y="0"/>
			<point x="598" y="15"/>
			<point x="595" y="57" type="curve" smooth="yes"/>
			<point x="594" y="71"/>
			<point x="594" y="83"/>
			<point x="594" y="101" type="curve" smooth="yes"/>
			<point x="594" y="379" type="line"/>
			<point x="1100" y="379" type="line"/>
			<point x="1136" y="313"/>
			<point x="1207" y="283"/>
			<point x="1296" y="283" type="curve" smooth="yes"/>
			<point x="1412" y="283"/>
			<point x="1503" y="334"/>
			<point x="1503" y="437" type="curve" smooth="yes"/>
			<point x="1503" y="531"/>
			<point x="1442" y="577"/>
			<point x="1326" y="607" type="curve" smooth="yes"/>
			<point x="1247" y="628"/>
			<point x="1208" y="648"/>
			<point x="1208" y="696" type="curve" smooth="yes"/>
			<point x="1208" y="736"/>
			<point x="1233" y="765"/>
			<point x="1285" y="765" type="curve" smooth="yes"/>
			<point x="1328" y="765"/>
			<point x="1358" y="744"/>
			<point x="1374" y="704" type="curve" smooth="yes"/>
			<point x="1382" y="685"/>
			<point x="1401" y="670"/>
			<point x="1423" y="670" type="curve" smooth="yes"/>
			<point x="1453" y="670"/>
			<point x="1477" y="694"/>
			<point x="1477" y="724" type="curve" smooth="yes"/>
			<point x="1477" y="733"/>
			<point x="1475" y="743"/>
			<point x="1471" y="750" type="curve" smooth="yes"/>
			<point x="1440" y="807"/>
			<point x="1380" y="842"/>
			<point x="1293" y="842" type="curve" smooth="yes"/>
			<point x="1175" y="842"/>
			<point x="1097" y="782"/>
			<point x="1097" y="683" type="curve" smooth="yes"/>
			<point x="1097" y="665"/>
			<point x="1100" y="650"/>
			<point x="1104" y="636" type="curve"/>
			<point x="1066" y="669"/>
			<point x="1014" y="689"/>
			<point x="951" y="689" type="curve" smooth="yes"/>
			<point x="813" y="689"/>
			<point x="713" y="597"/>
			<point x="694" y="456" type="curve"/>
			<point x="594" y="456" type="line"/>
			<point x="594" y="534" type="line" smooth="yes"/>
			<point x="594" y="564"/>
			<point x="570" y="589"/>
			<point x="540" y="589" type="curve" smooth="yes"/>
			<point x="509" y="589"/>
			<point x="485" y="564"/>
			<point x="485" y="534" type="curve" smooth="yes"/>
			<point x="485" y="456" type="line"/>
			<point x="417" y="456" type="line"/>
			<point x="386" y="511"/>
			<point x="326" y="545"/>
		</contour>
		<contour>
			<point x="806" y="456" type="line"/>
			<point x="818" y="558"/>
			<point x="872" y="609"/>
			<point x="947" y="609" type="curve" smooth="yes"/>
			<point x="1024" y="609"/>
			<point x="1067" y="554"/>
			<point x="1075" y="456" type="curve"/>
		</contour>
		<contour>
			<point x="1155" y="570" type="curve"/>
			<point x="1184" y="550"/>
			<point x="1223" y="535"/>
			<point x="1266" y="524" type="curve" smooth="yes"/>
			<point x="1356" y="500"/>
			<point x="1392" y="475"/>
			<point x="1392" y="429" type="curve" smooth="yes"/>
			<point x="1392" y="383"/>
			<point x="1351" y="361"/>
			<point x="1300" y="361" type="curve" smooth="yes"/>
			<point x="1245" y="361"/>
			<point x="1200" y="388"/>
			<point x="1187" y="456" type="curve"/>
			<point x="1183" y="498"/>
			<point x="1172" y="537"/>
		</contour>
		<contour>
			<point x="892" y="432" type="move"/>
			<point x="892" y="454" type="line"/>
		</contour>
	</outline>
</glyph>
